<?xml version="1.0" encoding="utf-8"?>
<!-- Generator: Adobe Illustrator 22.0.1, SVG Export Plug-In . SVG Version: 6.00 Build 0)  -->
<svg version="1.1" xmlns="http://www.w3.org/2000/svg" xmlns:xlink="http://www.w3.org/1999/xlink" x="0px" y="0px"
	 viewBox="0 0 500 500" style="enable-background:new 0 0 500 500;" xml:space="preserve">
<style type="text/css">
	.st0{fill:#47D6DD;}
	.st1{fill:#FFFFFF;}
	.st2{fill:#7EDEE8;}
	.st3{fill:#2B3E45;}
	.st4{fill:#42A1BB;}
	.st5{fill:#4CC6C7;}
	.st6{fill:#FAFAFC;}
	.st7{fill:none;stroke:#FAFAFC;stroke-width:2;stroke-linecap:round;stroke-linejoin:round;stroke-miterlimit:10;}
</style>
<g id="objects">
	<g>
		<g>
			<path class="st0" d="M208.5,258L208.5,258c-5.3,5.3-13.8,5.3-19.1,0l-21.8-21.8c-5.3-5.3-5.3-13.8,0-19.1v0
				c5.3-5.3,13.8-5.3,19.1,0l21.8,21.8C213.8,244.2,213.8,252.8,208.5,258z"/>
		</g>
		<g>
			<path class="st1" d="M342.9,349.7v45.8h-88.1v-18.4l-18.8-7.9c-10.2-4.3-17.7-13.3-20.1-24.1l0,0h64.8L342.9,349.7z"/>
		</g>
		<g>
			<path class="st0" d="M259.5,345.1h-43.5c1.5,6.8,5,12.9,10,17.6l40.9-15.6L259.5,345.1z"/>
		</g>
		<g>
			<path class="st2" d="M301.8,347.9H196.9c-4.2,0-7.6-3.4-7.6-7.6V131.1c0-4.2,3.4-7.6,7.6-7.6h104.9c4.2,0,7.6,3.4,7.6,7.6v209.2
				C309.4,344.5,306,347.9,301.8,347.9z"/>
			<path class="st3" d="M301.8,349.2H196.9c-4.9,0-8.9-4-8.9-8.9V131.1c0-4.9,4-8.9,8.9-8.9h104.9c4.9,0,8.9,4,8.9,8.9v209.2
				C310.7,345.2,306.7,349.2,301.8,349.2z M196.9,124.8c-3.5,0-6.3,2.8-6.3,6.3v209.2c0,3.5,2.8,6.3,6.3,6.3h104.9
				c3.5,0,6.3-2.8,6.3-6.3V131.1c0-3.5-2.8-6.3-6.3-6.3H196.9z"/>
		</g>
		<g>
			
				<rect x="244.7" y="90" transform="matrix(-1.836970e-16 1 -1 -1.836970e-16 389.897 -108.8675)" class="st4" width="9.3" height="101.1"/>
		</g>
		<g>
			<path class="st1" d="M299.9,329.2H198.8c-0.7,0-1.3-0.6-1.3-1.3V135.8c0-0.7,0.6-1.3,1.3-1.3h101.1c0.7,0,1.3,0.6,1.3,1.3v192.1
				C301.2,328.7,300.7,329.2,299.9,329.2z M200.1,326.6h98.5V137.1h-98.5V326.6z"/>
		</g>
		<g>
			<path class="st3" d="M257.9,343h-17.1c-2.6,0-4.8-2.1-4.8-4.8c0-2.6,2.1-4.8,4.8-4.8h17.1c2.6,0,4.8,2.1,4.8,4.8
				C262.7,340.9,260.6,343,257.9,343z M240.8,336.1c-1.2,0-2.2,1-2.2,2.2c0,1.2,1,2.2,2.2,2.2h17.1c1.2,0,2.2-1,2.2-2.2
				c0-1.2-1-2.2-2.2-2.2H240.8z"/>
		</g>
		<g>
			<g>
				<path class="st3" d="M260.3,131h-21.8c-0.7,0-1.3-0.6-1.3-1.3c0-0.7,0.6-1.3,1.3-1.3h21.8c0.7,0,1.3,0.6,1.3,1.3
					C261.6,130.4,261,131,260.3,131z"/>
			</g>
			<g>
				<path class="st3" d="M269.6,131H268c-0.7,0-1.3-0.6-1.3-1.3c0-0.7,0.6-1.3,1.3-1.3h1.6c0.7,0,1.3,0.6,1.3,1.3
					C270.9,130.4,270.3,131,269.6,131z"/>
			</g>
		</g>
		<g>
			<path class="st5" d="M205.6,140.5c0,1.2-1,2.1-2.1,2.1c-1.2,0-2.1-1-2.1-2.1c0-1.2,1-2.1,2.1-2.1
				C204.7,138.4,205.6,139.3,205.6,140.5z"/>
		</g>
		<g>
			<path class="st5" d="M212.8,140.5c0,1.2-1,2.1-2.1,2.1c-1.2,0-2.1-1-2.1-2.1c0-1.2,1-2.1,2.1-2.1
				C211.9,138.4,212.8,139.3,212.8,140.5z"/>
		</g>
		<g>
			<path class="st5" d="M220,140.5c0,1.2-1,2.1-2.1,2.1c-1.2,0-2.1-1-2.1-2.1c0-1.2,1-2.1,2.1-2.1C219.1,138.4,220,139.3,220,140.5z
				"/>
		</g>
		<g>
			<rect x="284.3" y="139" class="st5" width="11.9" height="3"/>
		</g>
		<g>
			<rect x="275.7" y="139" class="st5" width="4.1" height="3"/>
		</g>
		<g>
			<g>
				<path class="st4" d="M205.3,238.2L205.3,238.2c0.2,0,0.3,0.1,0.3,0.3v0.8c0,0.3,0.3,0.4,0.6,0.2l1.3-1.3
					c0.1-0.1,0.1-0.1,0.2-0.1h22.7c0.6,0,1.2-0.5,1.2-1.2v-6.6c0-0.2-0.1-0.3-0.3-0.3h-26.8c-0.2,0-0.3,0.1-0.3,0.3v6.6
					C204.1,237.7,204.6,238.2,205.3,238.2z"/>
			</g>
			<g>
				<path class="st4" d="M204.3,228.1h54.6c0.2,0,0.3-0.1,0.3-0.3v-6.7c0-0.6-0.5-1.2-1.2-1.2h-52.9c-0.6,0-1.2,0.5-1.2,1.2v6.7
					C204,228,204.1,228.1,204.3,228.1z"/>
			</g>
			<g>
				<path class="st0" d="M240.8,250.2h50.3c0.1,0,0.2,0,0.2,0.1l1.3,1.3c0.2,0.2,0.6,0.1,0.6-0.2v-0.8c0-0.2,0.1-0.3,0.3-0.3h0
					c0.7,0,1.3-0.6,1.3-1.3v-5.6c0-0.7-0.6-1.3-1.3-1.3h-52.7c-0.7,0-1.3,0.6-1.3,1.3v5.6C239.6,249.7,240.1,250.2,240.8,250.2z"/>
			</g>
		</g>
		<g>
			<path class="st4" d="M249.2,272.1h-41.4c-0.1,0-0.2,0-0.2,0.1l-1.3,1.3c-0.2,0.2-0.6,0.1-0.6-0.2v-0.8c0-0.2-0.1-0.3-0.3-0.3h0
				c-0.7,0-1.3-0.6-1.3-1.3v-6.6c0-0.2,0.1-0.3,0.3-0.3h45.7c0.2,0,0.3,0.1,0.3,0.3v6.6C250.5,271.5,249.9,272.1,249.2,272.1z"/>
		</g>
		<g>
			<path class="st4" d="M241.3,262h-36.9c-0.2,0-0.3-0.1-0.3-0.3v-6.6c0-0.7,0.6-1.3,1.3-1.3h35c0.7,0,1.3,0.6,1.3,1.3v6.6
				C241.6,261.8,241.5,262,241.3,262z"/>
		</g>
		<g>
			<g>
				<path class="st0" d="M293.6,283.8L293.6,283.8c-0.2,0-0.3,0.1-0.3,0.3v0.8c0,0.3-0.3,0.4-0.6,0.2l-1.3-1.3
					c-0.1-0.1-0.1-0.1-0.2-0.1h-9c-0.6,0-1.2-0.5-1.2-1.2v-5.8c0-0.6,0.5-1.2,1.2-1.2h11.4c0.6,0,1.2,0.5,1.2,1.2v5.8
					C294.8,283.3,294.2,283.8,293.6,283.8z"/>
			</g>
			<g>
				<path class="st4" d="M240.3,306h-32.5c-0.1,0-0.2,0-0.2,0.1l-1.3,1.3c-0.2,0.2-0.6,0.1-0.6-0.2v-0.8c0-0.2-0.1-0.3-0.3-0.3h0
					c-0.7,0-1.3-0.6-1.3-1.3v-6.6c0-0.2,0.1-0.3,0.3-0.3h36.9c0.2,0,0.3,0.1,0.3,0.3v6.6C241.6,305.4,241,306,240.3,306z"/>
			</g>
			<g>
				<path class="st4" d="M217.5,295.8h-13.1c-0.2,0-0.3-0.1-0.3-0.3V289c0-0.7,0.6-1.3,1.3-1.3h11.2c0.7,0,1.3,0.6,1.3,1.3v6.5
					C217.8,295.7,217.7,295.8,217.5,295.8z"/>
			</g>
		</g>
		<g>
			<g>
				<path class="st4" d="M157.2,178.2h90.7c0.3,0,0.5-0.2,0.5-0.5v-26.1c0-0.3-0.2-0.5-0.5-0.5h-90.7c-0.3,0-0.5,0.2-0.5,0.5v26.1
					C156.7,177.9,156.9,178.2,157.2,178.2z"/>
			</g>
			<g>
				<path class="st4" d="M162.9,194.9h45.4c1.1,0,2-0.9,2-2v-11c0-0.3-0.2-0.5-0.5-0.5h-52.2c-0.3,0-0.5,0.2-0.5,0.5v11
					c0,1.1,0.9,2,2,2h0c0.3,0,0.5,0.2,0.5,0.5v1.3c0,0.5,0.6,0.7,0.9,0.4l2.1-2.1C162.6,195,162.7,194.9,162.9,194.9z"/>
			</g>
			<g>
				<path class="st0" d="M260.1,215.3h77.1c0.1,0,0.3,0.1,0.3,0.1l2,1.9c0.3,0.3,0.8,0.1,0.8-0.4v-1.2c0-0.3,0.2-0.5,0.5-0.5h0
					c1.1,0,2-0.9,2-2v-21.2c0-1.1-0.9-2-2-2h-80.8c-1.1,0-2,0.9-2,2v21.2C258.1,214.4,259,215.3,260.1,215.3z"/>
			</g>
		</g>
		<g>
			<path class="st1" d="M208.5,349.1L208.5,349.1c-5.3,5.3-13.8,5.3-19.1,0l-10.7-10.7c-5.3-5.3-5.3-13.8,0-19.1l0,0
				c5.3-5.3,13.8-5.3,19.1,0l10.7,10.7C213.8,335.3,213.8,343.8,208.5,349.1z"/>
		</g>
		<g>
			<path class="st1" d="M208.5,318.8L208.5,318.8c-5.3,5.3-13.8,5.3-19.1,0L178.7,308c-5.3-5.3-5.3-13.8,0-19.1l0,0
				c5.3-5.3,13.8-5.3,19.1,0l10.7,10.7C213.8,304.9,213.8,313.5,208.5,318.8z"/>
		</g>
		<g>
			<path class="st1" d="M208.5,288.4L208.5,288.4c-5.3,5.3-13.8,5.3-19.1,0l-10.7-10.7c-5.3-5.3-5.3-13.8,0-19.1l0,0
				c5.3-5.3,13.8-5.3,19.1,0l10.7,10.7C213.8,274.6,213.8,283.1,208.5,288.4z"/>
		</g>
		<g>
			<path class="st1" d="M334.1,270.3l-41.4-41.4c-13.9,13.9-13.9,36.4,0,50.3l14.7,14.7V319l-25.2,15c-12,7.1-19.3,20-19.3,33.9l0,0
				l80.1-18.2l-0.4-59.2C342.5,282.9,339.4,275.7,334.1,270.3z"/>
		</g>
		<g>
			<rect x="247.2" y="395.5" class="st5" width="103.3" height="6.8"/>
			<path class="st2" d="M350.5,403.6H247.2c-0.7,0-1.3-0.6-1.3-1.3v-6.8c0-0.7,0.6-1.3,1.3-1.3h103.3c0.7,0,1.3,0.6,1.3,1.3v6.8
				C351.8,403,351.2,403.6,350.5,403.6z M248.5,401h100.7v-4.2H248.5V401z"/>
		</g>
		<g>
			<rect x="243.4" y="402.3" class="st2" width="110.9" height="24.2"/>
			<path class="st0" d="M354.3,427.8H243.4c-0.7,0-1.3-0.6-1.3-1.3v-24.2c0-0.7,0.6-1.3,1.3-1.3h110.9c0.7,0,1.3,0.6,1.3,1.3v24.2
				C355.6,427.2,355,427.8,354.3,427.8z M244.7,425.2H353v-21.6H244.7V425.2z"/>
		</g>
		<g>
			<line class="st5" x1="109.9" y1="426.5" x2="390.1" y2="426.5"/>
			<path class="st0" d="M390.1,427.8H109.9c-0.7,0-1.3-0.6-1.3-1.3c0-0.7,0.6-1.3,1.3-1.3h280.2c0.7,0,1.3,0.6,1.3,1.3
				C391.4,427.2,390.8,427.8,390.1,427.8z"/>
		</g>
		<g>
			<circle class="st0" cx="180.2" cy="378.5" r="20.4"/>
		</g>
		<g>
			<path class="st6" d="M187,387h-13.6c-2.7,0-4.9-2.2-4.9-4.9v-7.2c0-2.7,2.2-4.9,4.9-4.9H187c2.7,0,4.9,2.2,4.9,4.9v7.2
				C191.9,384.8,189.7,387,187,387z M173.4,371.8c-1.7,0-3.1,1.4-3.1,3.1v7.2c0,1.7,1.4,3.1,3.1,3.1H187c1.7,0,3.1-1.4,3.1-3.1v-7.2
				c0-1.7-1.4-3.1-3.1-3.1H173.4z"/>
		</g>
		<g>
			<path class="st6" d="M178.2,382.5c-0.1,0-0.3,0-0.4-0.1c-0.3-0.2-0.4-0.4-0.4-0.8v-6.8c0-0.3,0.2-0.6,0.4-0.8
				c0.3-0.2,0.6-0.1,0.9,0l5.5,3.4c0.3,0.2,0.4,0.4,0.4,0.7c0,0.3-0.2,0.6-0.4,0.7l-5.5,3.4C178.5,382.4,178.3,382.5,178.2,382.5z
				 M179,376.3v3.7l3-1.8L179,376.3z"/>
		</g>
		<g>
			<g>
				<g>
					<path class="st7" d="M159.9,121.2"/>
				</g>
				<g>
					<path class="st6" d="M168,139.2c-0.1,0-0.3,0-0.4-0.1l-2.7-1.4c-1.5,1-3.2,1.5-5,1.5c-3.2,0-6.2-1.7-7.8-4.5
						c-0.2-0.4-0.1-0.9,0.3-1.2c0.4-0.2,0.9-0.1,1.2,0.3c1.3,2.3,3.7,3.7,6.3,3.7c1.6,0,3.1-0.5,4.4-1.5c0.3-0.2,0.6-0.2,0.9-0.1
						l0.8,0.4l-0.4-0.9c-0.1-0.3-0.1-0.6,0.1-0.9c0.9-1.3,1.4-2.7,1.4-4.3c0-4-3.2-7.2-7.2-7.2c-0.5,0-0.9-0.4-0.9-0.9
						c0-0.5,0.4-0.9,0.9-0.9c4.9,0,8.9,4,8.9,8.9c0,1.7-0.5,3.4-1.5,4.9l1.4,2.8c0.2,0.3,0.1,0.7-0.2,1
						C168.4,139.2,168.2,139.2,168,139.2z"/>
				</g>
				<g>
					<path class="st6" d="M135.8,135.4c-0.2,0-0.4-0.1-0.6-0.2c-0.3-0.3-0.3-0.7-0.2-1l2.1-4.2c-1.4-2.1-2.1-4.5-2.1-7
						c0-6.9,5.6-12.5,12.5-12.5c6.9,0,12.5,5.6,12.5,12.5c0,6.9-5.6,12.5-12.5,12.5c-2.6,0-5-0.8-7.2-2.3l-4,2.2
						C136.1,135.3,135.9,135.4,135.8,135.4z M140.3,131.2c0.2,0,0.4,0.1,0.5,0.2c1.9,1.5,4.2,2.2,6.6,2.2c5.9,0,10.7-4.8,10.7-10.7
						c0-5.9-4.8-10.7-10.7-10.7c-5.9,0-10.7,4.8-10.7,10.7c0,2.3,0.7,4.5,2.1,6.4c0.2,0.3,0.2,0.6,0.1,0.9l-1.1,2.3l2.2-1.2
						C140,131.2,140.2,131.2,140.3,131.2z"/>
				</g>
			</g>
			<g>
				<path class="st6" d="M152.4,120.4h-10.1c-0.5,0-0.9-0.4-0.9-0.9c0-0.5,0.4-0.9,0.9-0.9h10.1c0.5,0,0.9,0.4,0.9,0.9
					C153.3,120,152.9,120.4,152.4,120.4z"/>
			</g>
			<g>
				<path class="st6" d="M152.4,124h-10.1c-0.5,0-0.9-0.4-0.9-0.9c0-0.5,0.4-0.9,0.9-0.9h10.1c0.5,0,0.9,0.4,0.9,0.9
					C153.3,123.6,152.9,124,152.4,124z"/>
			</g>
			<g>
				<path class="st6" d="M147.4,127.5h-5c-0.5,0-0.9-0.4-0.9-0.9c0-0.5,0.4-0.9,0.9-0.9h5c0.5,0,0.9,0.4,0.9,0.9
					C148.3,127.1,147.9,127.5,147.4,127.5z"/>
			</g>
		</g>
		<g>
			<path class="st0" d="M333.2,234l1.6,1.6l1.6-1.6c1.5-1.5,4-1.5,5.5,0l0,0c1.5,1.5,1.5,4,0,5.5l-7,7l-7-7c-1.5-1.5-1.5-4,0-5.5
				C329.2,232.4,331.6,232.4,333.2,234z"/>
		</g>
		<g>
			<path class="st6" d="M225.7,407.2h-11.4c-0.5,0-0.9-0.4-0.9-0.9v-4.2c0-2.3,1.3-4.5,3.2-5.6c-0.4-0.6-0.6-1.3-0.6-2
				c0-2.2,1.8-3.9,3.9-3.9c2.2,0,3.9,1.8,3.9,3.9c0,0.7-0.2,1.4-0.6,2c2,1.2,3.2,3.3,3.2,5.6v4.2
				C226.6,406.8,226.2,407.2,225.7,407.2z M215.2,405.5h9.6v-3.4c0-2-1.3-3.8-3.2-4.5c-0.3-0.1-0.5-0.4-0.6-0.7
				c-0.1-0.3,0.1-0.6,0.3-0.8c0.5-0.4,0.8-1,0.8-1.7c0-1.2-1-2.2-2.2-2.2c-1.2,0-2.2,1-2.2,2.2c0,0.6,0.3,1.2,0.8,1.7
				c0.2,0.2,0.4,0.5,0.3,0.8c-0.1,0.3-0.3,0.6-0.6,0.7c-1.9,0.7-3.2,2.5-3.2,4.5V405.5z"/>
		</g>
		<g>
			<g>
				<path class="st4" d="M156.7,266.4c-3.5,0-6.4-2.9-6.4-6.4c0-3.5,2.9-6.4,6.4-6.4c3.5,0,6.4,2.9,6.4,6.4
					C163.1,263.6,160.2,266.4,156.7,266.4z M156.7,255.4c-2.6,0-4.6,2.1-4.6,4.6c0,2.6,2.1,4.6,4.6,4.6c2.6,0,4.6-2.1,4.6-4.6
					C161.3,257.5,159.3,255.4,156.7,255.4z"/>
			</g>
			<g>
				<path class="st4" d="M156.7,266.4c-1.9,0-2.8-3.3-2.8-6.4c0-3.2,0.9-6.4,2.8-6.4c1.9,0,2.8,3.2,2.8,6.4
					C159.5,263.2,158.6,266.4,156.7,266.4z M156.7,255.5c-0.3,0.3-1,1.8-1,4.6c0,2.8,0.7,4.3,1,4.6c0.3-0.3,1-1.8,1-4.6
					C157.7,257.3,157.1,255.8,156.7,255.5z"/>
			</g>
			<g>
				<path class="st4" d="M162.2,260.9h-11c-0.5,0-0.9-0.4-0.9-0.9c0-0.5,0.4-0.9,0.9-0.9h11c0.5,0,0.9,0.4,0.9,0.9
					C163.1,260.5,162.7,260.9,162.2,260.9z"/>
			</g>
		</g>
		<g>
			<g>
				<path class="st4" d="M140.1,352.7h-20.5c-0.5,0-0.9-0.4-0.9-0.9v-15.2c0-0.5,0.4-0.9,0.9-0.9h20.5c0.5,0,0.9,0.4,0.9,0.9v15.2
					C141,352.3,140.6,352.7,140.1,352.7z M120.5,350.9h18.8v-13.5h-18.8V350.9z"/>
			</g>
			<g>
				<g>
					<path class="st4" d="M137.3,344h-3.6c-0.5,0-0.9-0.4-0.9-0.9v-3.6c0-0.5,0.4-0.9,0.9-0.9h3.6c0.5,0,0.9,0.4,0.9,0.9v3.6
						C138.2,343.6,137.8,344,137.3,344z M134.6,342.2h1.9v-1.9h-1.9V342.2z"/>
				</g>
			</g>
			<g>
				<g>
					<path class="st4" d="M131.4,344h-3.6c-0.5,0-0.9-0.4-0.9-0.9v-3.6c0-0.5,0.4-0.9,0.9-0.9h3.6c0.5,0,0.9,0.4,0.9,0.9v3.6
						C132.3,343.6,131.9,344,131.4,344z M128.7,342.2h1.9v-1.9h-1.9V342.2z"/>
				</g>
			</g>
			<g>
				<g>
					<path class="st4" d="M125.5,349.7h-3.6c-0.5,0-0.9-0.4-0.9-0.9v-3.6c0-0.5,0.4-0.9,0.9-0.9h3.6c0.5,0,0.9,0.4,0.9,0.9v3.6
						C126.3,349.3,125.9,349.7,125.5,349.7z M122.7,347.9h1.9v-1.9h-1.9V347.9z"/>
				</g>
				<g>
					<path class="st4" d="M131.4,349.7h-3.6c-0.5,0-0.9-0.4-0.9-0.9v-3.6c0-0.5,0.4-0.9,0.9-0.9h3.6c0.5,0,0.9,0.4,0.9,0.9v3.6
						C132.3,349.3,131.9,349.7,131.4,349.7z M128.7,347.9h1.9v-1.9h-1.9V347.9z"/>
				</g>
			</g>
			<g>
				<path class="st4" d="M123.2,334.7c-0.9,0-1.6-0.7-1.6-1.6v-1.6c0-0.9,0.7-1.6,1.6-1.6c0.9,0,1.6,0.7,1.6,1.6v1.6
					C124.8,334,124.1,334.7,123.2,334.7z"/>
			</g>
			<g>
				<path class="st4" d="M136.6,334.7c-0.9,0-1.6-0.7-1.6-1.6v-1.6c0-0.9,0.7-1.6,1.6-1.6c0.9,0,1.6,0.7,1.6,1.6v1.6
					C138.2,334,137.5,334.7,136.6,334.7z"/>
			</g>
			<g>
				<path class="st4" d="M140.1,337.5h-20.5c-0.5,0-0.9-0.4-0.9-0.9v-4.3c0-0.5,0.4-0.9,0.9-0.9h2.8c0.3,0,0.6,0.2,0.7,0.4
					c0.2-0.3,0.4-0.4,0.7-0.4h11.9c0.3,0,0.6,0.2,0.7,0.4c0.1-0.3,0.4-0.4,0.7-0.4h2.8c0.5,0,0.9,0.4,0.9,0.9v4.3
					C141,337.1,140.6,337.5,140.1,337.5z M120.5,335.7h18.8v-2.6h-1.1c0,0.9-0.7,1.5-1.6,1.5c-0.9,0-1.6-0.7-1.6-1.5h-10.1
					c0,0.9-0.7,1.5-1.6,1.5c-0.9,0-1.6-0.7-1.6-1.5h-1.1V335.7z"/>
			</g>
		</g>
		<g>
			<g>
				<path class="st6" d="M382.7,182c-2.2,0-4.3-0.9-5.8-2.4c-3.2-3.2-3.2-8.4,0-11.6c1.6-1.6,3.6-2.4,5.8-2.4s4.3,0.9,5.8,2.4
					c3.2,3.2,3.2,8.4,0,11.6C387,181.1,384.9,182,382.7,182z M382.7,167.3c-1.7,0-3.4,0.7-4.6,1.9c-2.5,2.5-2.5,6.6,0,9.2
					c1.2,1.2,2.9,1.9,4.6,1.9c1.7,0,3.4-0.7,4.6-1.9c2.5-2.5,2.5-6.6,0-9.2C386.1,168,384.5,167.3,382.7,167.3z"/>
			</g>
			<g>
				<path class="st6" d="M375.7,181.6c-0.2,0-0.4-0.1-0.6-0.3c-0.3-0.3-0.3-0.9,0-1.2l1.8-1.8c0.3-0.3,0.9-0.3,1.2,0
					c0.3,0.3,0.3,0.9,0,1.2l-1.8,1.8C376.2,181.5,376,181.6,375.7,181.6z"/>
			</g>
			<g>
				<path class="st6" d="M368.5,190.7c-0.7,0-1.4-0.3-1.9-0.8c-0.5-0.5-0.8-1.2-0.8-1.9c0-0.7,0.3-1.4,0.8-1.9l6-6c1-1,2.8-1,3.8,0
					c1.1,1.1,1.1,2.8,0,3.8l-6,6C369.9,190.4,369.2,190.7,368.5,190.7z M374.4,181.1c-0.3,0-0.5,0.1-0.7,0.3l-6,6
					c-0.2,0.2-0.3,0.4-0.3,0.7c0,0.3,0.1,0.5,0.3,0.7c0.4,0.4,1,0.4,1.4,0l6-6c0.4-0.4,0.4-1,0-1.4
					C374.9,181.2,374.7,181.1,374.4,181.1z"/>
			</g>
			<g>
				<path class="st6" d="M386.5,178.4c-0.2,0-0.4-0.1-0.6-0.3c-0.3-0.3-0.3-0.9,0-1.2c1.8-1.8,1.8-4.6,0-6.4c-0.3-0.3-0.3-0.9,0-1.2
					c0.3-0.3,0.9-0.3,1.2,0c2.4,2.4,2.4,6.4,0,8.8C387,178.3,386.8,178.4,386.5,178.4z"/>
			</g>
		</g>
		<g>
			<g>
				<path class="st6" d="M131,229.8h-20.2c-1,0-1.8-0.8-1.8-1.8v-14c0-1,0.8-1.8,1.8-1.8H131c1,0,1.8,0.8,1.8,1.8v14
					C132.8,229,132,229.8,131,229.8z M110.9,213.9C110.8,213.9,110.8,213.9,110.9,213.9l-0.1,14c0,0,0,0.1,0.1,0.1H131
					c0,0,0.1,0,0.1-0.1v-14c0,0,0-0.1-0.1-0.1H110.9z"/>
			</g>
			<g>
				<path class="st6" d="M126.1,222.1h-10.3c-3.7,0-6.7-3-6.7-6.7V214c0-1,0.8-1.8,1.8-1.8H131c1,0,1.8,0.8,1.8,1.8v1.4
					C132.8,219.1,129.8,222.1,126.1,222.1z M110.9,213.9C110.8,213.9,110.8,213.9,110.9,213.9l-0.1,1.5c0,2.8,2.3,5,5,5h10.3
					c2.8,0,5-2.3,5-5V214c0,0,0-0.1-0.1-0.1H110.9z"/>
			</g>
			<g>
				<path class="st6" d="M123.1,224.1h-4.3c-0.5,0-0.9-0.4-0.9-0.9v-1.8c0-0.5,0.4-0.9,0.9-0.9h4.3c0.5,0,0.9,0.4,0.9,0.9v1.8
					C124,223.7,123.6,224.1,123.1,224.1z M119.6,222.3h2.6v-0.1L119.6,222.3L119.6,222.3z"/>
			</g>
			<g>
				<path class="st6" d="M124.4,213.9h-6.9c-0.5,0-0.9-0.4-0.9-0.9v-1.3c0-1.3,1-2.3,2.3-2.3h4.1c1.3,0,2.3,1,2.3,2.3v1.3
					C125.3,213.5,124.9,213.9,124.4,213.9z M118.3,212.2h5.2v-0.4c0-0.3-0.3-0.6-0.6-0.6h-4.1c-0.3,0-0.6,0.3-0.6,0.6V212.2z"/>
			</g>
		</g>
		<g>
			<g>
				<g>
					<path class="st6" d="M387.2,238.5h-8.9c-2.1,0-3.7-1.7-3.7-3.7v-8.9c0-2.1,1.7-3.7,3.7-3.7h8.9c2.1,0,3.7,1.7,3.7,3.7v8.9
						C391,236.8,389.3,238.5,387.2,238.5z M378.3,223.8c-1.1,0-2,0.9-2,2v8.9c0,1.1,0.9,2,2,2h8.9c1.1,0,2-0.9,2-2v-8.9
						c0-1.1-0.9-2-2-2H378.3z"/>
				</g>
				<g>
					<path class="st6" d="M382.7,234.5c-2.3,0-4.2-1.9-4.2-4.2s1.9-4.2,4.2-4.2s4.2,1.9,4.2,4.2S385,234.5,382.7,234.5z
						 M382.7,227.8c-1.3,0-2.4,1.1-2.4,2.4c0,1.3,1.1,2.4,2.4,2.4c1.4,0,2.4-1.1,2.4-2.4C385.2,228.9,384.1,227.8,382.7,227.8z"/>
				</g>
			</g>
			<g>
				<path class="st6" d="M379.8,229.1h-4.4c-0.5,0-0.9-0.4-0.9-0.9c0-0.5,0.4-0.9,0.9-0.9h4.4c0.5,0,0.9,0.4,0.9,0.9
					C380.6,228.7,380.3,229.1,379.8,229.1z"/>
			</g>
			<g>
				<path class="st6" d="M390.1,229.1h-4.5c-0.5,0-0.9-0.4-0.9-0.9c0-0.5,0.4-0.9,0.9-0.9h4.5c0.5,0,0.9,0.4,0.9,0.9
					C391,228.7,390.6,229.1,390.1,229.1z"/>
			</g>
		</g>
		<g>
			<g>
				
					<ellipse transform="matrix(0.2298 -0.9732 0.9732 0.2298 -194.6976 359.216)" class="st0" cx="129.6" cy="302.6" rx="11.1" ry="11.1"/>
			</g>
			<g>
				<g>
					<path class="st6" d="M129.6,302.4c-0.8,0-1.5-0.7-1.5-1.5s0.7-1.5,1.5-1.5c0.8,0,1.5,0.7,1.5,1.5S130.4,302.4,129.6,302.4z
						 M129.6,300.7c-0.1,0-0.2,0.1-0.2,0.2c0,0.2,0.4,0.2,0.4,0C129.8,300.8,129.7,300.7,129.6,300.7z"/>
				</g>
				<g>
					<path class="st6" d="M129.6,309.5L129.6,309.5c-0.2,0-0.4-0.1-0.6-0.3c-0.2-0.2-4.3-4.3-4.3-8.4c0-2.7,2.2-4.9,4.9-4.9
						c2.7,0,4.9,2.2,4.9,4.9c0,4.1-4.1,8.2-4.3,8.4C130,309.4,129.8,309.5,129.6,309.5z M129.6,297.7c-1.7,0-3.2,1.4-3.2,3.2
						c0,2.5,2.1,5.3,3.2,6.5c1.1-1.2,3.2-4,3.2-6.5C132.8,299.1,131.3,297.7,129.6,297.7z"/>
				</g>
			</g>
		</g>
		<g>
			<g>
				<g>
					<path class="st7" d="M369.1,256.5"/>
				</g>
				<g>
					<path class="st6" d="M350.5,267.7c-0.2,0-0.4-0.1-0.6-0.2c-0.3-0.3-0.3-0.7-0.2-1l1.5-3.2c-1.1-1.6-1.6-3.5-1.6-5.4
						c0-5.4,4.4-9.8,9.8-9.8c5.4,0,9.8,4.4,9.8,9.8c0,5.4-4.4,9.8-9.8,9.8c-2,0-3.9-0.6-5.6-1.7l-3,1.6
						C350.8,267.7,350.6,267.7,350.5,267.7z M354,264.1c0.2,0,0.4,0.1,0.5,0.2c1.4,1.1,3.1,1.7,5,1.7c4.5,0,8.1-3.6,8.1-8.1
						c0-4.5-3.6-8.1-8.1-8.1c-4.5,0-8.1,3.6-8.1,8.1c0,1.7,0.6,3.4,1.6,4.8c0.2,0.3,0.2,0.6,0.1,0.9l-0.6,1.2l1.1-0.6
						C353.7,264.1,353.8,264.1,354,264.1z"/>
				</g>
			</g>
			<g>
				<path class="st6" d="M363.4,256.2h-7.8c-0.5,0-0.9-0.4-0.9-0.9c0-0.5,0.4-0.9,0.9-0.9h7.8c0.5,0,0.9,0.4,0.9,0.9
					C364.2,255.8,363.9,256.2,363.4,256.2z"/>
			</g>
			<g>
				<path class="st6" d="M363.4,258.9h-7.8c-0.5,0-0.9-0.4-0.9-0.9c0-0.5,0.4-0.9,0.9-0.9h7.8c0.5,0,0.9,0.4,0.9,0.9
					C364.2,258.5,363.9,258.9,363.4,258.9z"/>
			</g>
			<g>
				<path class="st6" d="M359.5,261.6h-3.9c-0.5,0-0.9-0.4-0.9-0.9c0-0.5,0.4-0.9,0.9-0.9h3.9c0.5,0,0.9,0.4,0.9,0.9
					C360.3,261.3,359.9,261.6,359.5,261.6z"/>
			</g>
		</g>
		<g>
			<g>
				<g>
					<g>
						<g>
							<path class="st6" d="M128.9,388.9c-0.5,0-0.9-0.4-0.9-0.9v-3.9c0-0.5,0.4-0.9,0.9-0.9c0.5,0,0.9,0.4,0.9,0.9v3.9
								C129.8,388.5,129.4,388.9,128.9,388.9z"/>
						</g>
					</g>
					<g>
						<g>
							<path class="st6" d="M128.9,388.9c-0.5,0-0.9-0.4-0.9-0.9v-3.9c0-0.5,0.4-0.9,0.9-0.9c0.5,0,0.9,0.4,0.9,0.9v3.9
								C129.8,388.5,129.4,388.9,128.9,388.9z"/>
						</g>
					</g>
					<g>
						<g>
							<path class="st6" d="M130.9,387H127c-0.5,0-0.9-0.4-0.9-0.9c0-0.5,0.4-0.9,0.9-0.9h3.9c0.5,0,0.9,0.4,0.9,0.9
								C131.8,386.6,131.4,387,130.9,387z"/>
						</g>
					</g>
				</g>
				<g>
					<g>
						<g>
							<path class="st6" d="M233.8,388.1c-0.5,0-0.9-0.4-0.9-0.9v-3.9c0-0.5,0.4-0.9,0.9-0.9c0.5,0,0.9,0.4,0.9,0.9v3.9
								C234.6,387.7,234.2,388.1,233.8,388.1z"/>
						</g>
					</g>
					<g>
						<g>
							<path class="st6" d="M233.8,388.1c-0.5,0-0.9-0.4-0.9-0.9v-3.9c0-0.5,0.4-0.9,0.9-0.9c0.5,0,0.9,0.4,0.9,0.9v3.9
								C234.6,387.7,234.2,388.1,233.8,388.1z"/>
						</g>
					</g>
					<g>
						<g>
							<path class="st6" d="M235.7,386.1h-3.9c-0.5,0-0.9-0.4-0.9-0.9c0-0.5,0.4-0.9,0.9-0.9h3.9c0.5,0,0.9,0.4,0.9,0.9
								C236.6,385.7,236.2,386.1,235.7,386.1z"/>
						</g>
					</g>
				</g>
				<g>
					<g>
						<g>
							<path class="st6" d="M147,165.6c-0.5,0-0.9-0.4-0.9-0.9v-3.9c0-0.5,0.4-0.9,0.9-0.9s0.9,0.4,0.9,0.9v3.9
								C147.9,165.2,147.5,165.6,147,165.6z"/>
						</g>
					</g>
					<g>
						<g>
							<path class="st6" d="M147,165.6c-0.5,0-0.9-0.4-0.9-0.9v-3.9c0-0.5,0.4-0.9,0.9-0.9s0.9,0.4,0.9,0.9v3.9
								C147.9,165.2,147.5,165.6,147,165.6z"/>
						</g>
					</g>
					<g>
						<g>
							<path class="st6" d="M148.9,163.6H145c-0.5,0-0.9-0.4-0.9-0.9c0-0.5,0.4-0.9,0.9-0.9h3.9c0.5,0,0.9,0.4,0.9,0.9
								C149.8,163.2,149.4,163.6,148.9,163.6z"/>
						</g>
					</g>
				</g>
				<g>
					<g>
						<g>
							<path class="st6" d="M180.1,127.6c-0.5,0-0.9-0.4-0.9-0.9v-3.9c0-0.5,0.4-0.9,0.9-0.9c0.5,0,0.9,0.4,0.9,0.9v3.9
								C180.9,127.2,180.5,127.6,180.1,127.6z"/>
						</g>
					</g>
					<g>
						<g>
							<path class="st6" d="M180.1,127.6c-0.5,0-0.9-0.4-0.9-0.9v-3.9c0-0.5,0.4-0.9,0.9-0.9c0.5,0,0.9,0.4,0.9,0.9v3.9
								C180.9,127.2,180.5,127.6,180.1,127.6z"/>
						</g>
					</g>
					<g>
						<g>
							<path class="st6" d="M182,125.6h-3.9c-0.5,0-0.9-0.4-0.9-0.9c0-0.5,0.4-0.9,0.9-0.9h3.9c0.5,0,0.9,0.4,0.9,0.9
								C182.9,125.3,182.5,125.6,182,125.6z"/>
						</g>
					</g>
				</g>
				<g>
					<g>
						<g>
							<path class="st6" d="M328.2,133.7c-0.5,0-0.9-0.4-0.9-0.9v-3.9c0-0.5,0.4-0.9,0.9-0.9c0.5,0,0.9,0.4,0.9,0.9v3.9
								C329,133.3,328.6,133.7,328.2,133.7z"/>
						</g>
					</g>
					<g>
						<g>
							<path class="st6" d="M328.2,133.7c-0.5,0-0.9-0.4-0.9-0.9v-3.9c0-0.5,0.4-0.9,0.9-0.9c0.5,0,0.9,0.4,0.9,0.9v3.9
								C329,133.3,328.6,133.7,328.2,133.7z"/>
						</g>
					</g>
					<g>
						<g>
							<path class="st6" d="M330.1,131.7h-3.9c-0.5,0-0.9-0.4-0.9-0.9c0-0.5,0.4-0.9,0.9-0.9h3.9c0.5,0,0.9,0.4,0.9,0.9
								C331,131.3,330.6,131.7,330.1,131.7z"/>
						</g>
					</g>
				</g>
				<g>
					<g>
						<g>
							<path class="st6" d="M277.7,117.4c-0.5,0-0.9-0.4-0.9-0.9v-3.9c0-0.5,0.4-0.9,0.9-0.9c0.5,0,0.9,0.4,0.9,0.9v3.9
								C278.5,117,278.1,117.4,277.7,117.4z"/>
						</g>
					</g>
					<g>
						<g>
							<path class="st6" d="M277.7,117.4c-0.5,0-0.9-0.4-0.9-0.9v-3.9c0-0.5,0.4-0.9,0.9-0.9c0.5,0,0.9,0.4,0.9,0.9v3.9
								C278.5,117,278.1,117.4,277.7,117.4z"/>
						</g>
					</g>
					<g>
						<g>
							<path class="st6" d="M279.6,115.4h-3.9c-0.5,0-0.9-0.4-0.9-0.9c0-0.5,0.4-0.9,0.9-0.9h3.9c0.5,0,0.9,0.4,0.9,0.9
								C280.5,115,280.1,115.4,279.6,115.4z"/>
						</g>
					</g>
				</g>
				<g>
					<g>
						<g>
							<path class="st6" d="M385.6,251.7c-0.5,0-0.9-0.4-0.9-0.9v-3.9c0-0.5,0.4-0.9,0.9-0.9c0.5,0,0.9,0.4,0.9,0.9v3.9
								C386.5,251.3,386.1,251.7,385.6,251.7z"/>
						</g>
					</g>
					<g>
						<g>
							<path class="st6" d="M385.6,251.7c-0.5,0-0.9-0.4-0.9-0.9v-3.9c0-0.5,0.4-0.9,0.9-0.9c0.5,0,0.9,0.4,0.9,0.9v3.9
								C386.5,251.3,386.1,251.7,385.6,251.7z"/>
						</g>
					</g>
					<g>
						<g>
							<path class="st6" d="M387.6,249.8h-3.9c-0.5,0-0.9-0.4-0.9-0.9c0-0.5,0.4-0.9,0.9-0.9h3.9c0.5,0,0.9,0.4,0.9,0.9
								C388.4,249.4,388,249.8,387.6,249.8z"/>
						</g>
					</g>
				</g>
				<g>
					<g>
						<g>
							<path class="st6" d="M385.5,333.6c-0.5,0-0.9-0.4-0.9-0.9v-3.9c0-0.5,0.4-0.9,0.9-0.9c0.5,0,0.9,0.4,0.9,0.9v3.9
								C386.4,333.2,386,333.6,385.5,333.6z"/>
						</g>
					</g>
					<g>
						<g>
							<path class="st6" d="M385.5,333.6c-0.5,0-0.9-0.4-0.9-0.9v-3.9c0-0.5,0.4-0.9,0.9-0.9c0.5,0,0.9,0.4,0.9,0.9v3.9
								C386.4,333.2,386,333.6,385.5,333.6z"/>
						</g>
					</g>
					<g>
						<g>
							<path class="st6" d="M387.5,331.7h-3.9c-0.5,0-0.9-0.4-0.9-0.9c0-0.5,0.4-0.9,0.9-0.9h3.9c0.5,0,0.9,0.4,0.9,0.9
								C388.4,331.3,388,331.7,387.5,331.7z"/>
						</g>
					</g>
				</g>
				<g>
					<g>
						<g>
							<path class="st6" d="M204.2,307.3c-0.5,0-0.9-0.4-0.9-0.9v-3.9c0-0.5,0.4-0.9,0.9-0.9c0.5,0,0.9,0.4,0.9,0.9v3.9
								C205,306.9,204.7,307.3,204.2,307.3z"/>
						</g>
					</g>
					<g>
						<g>
							<path class="st6" d="M204.2,307.3c-0.5,0-0.9-0.4-0.9-0.9v-3.9c0-0.5,0.4-0.9,0.9-0.9c0.5,0,0.9,0.4,0.9,0.9v3.9
								C205,306.9,204.7,307.3,204.2,307.3z"/>
						</g>
					</g>
					<g>
						<g>
							<path class="st6" d="M206.1,305.4h-3.9c-0.5,0-0.9-0.4-0.9-0.9s0.4-0.9,0.9-0.9h3.9c0.5,0,0.9,0.4,0.9,0.9
								S206.6,305.4,206.1,305.4z"/>
						</g>
					</g>
				</g>
				<g>
					<g>
						<g>
							<path class="st6" d="M135.3,263.6c-0.5,0-0.9-0.4-0.9-0.9v-3.9c0-0.5,0.4-0.9,0.9-0.9c0.5,0,0.9,0.4,0.9,0.9v3.9
								C136.2,263.2,135.8,263.6,135.3,263.6z"/>
						</g>
					</g>
					<g>
						<g>
							<path class="st6" d="M135.3,263.6c-0.5,0-0.9-0.4-0.9-0.9v-3.9c0-0.5,0.4-0.9,0.9-0.9c0.5,0,0.9,0.4,0.9,0.9v3.9
								C136.2,263.2,135.8,263.6,135.3,263.6z"/>
						</g>
					</g>
					<g>
						<g>
							<path class="st6" d="M137.3,261.6h-3.9c-0.5,0-0.9-0.4-0.9-0.9c0-0.5,0.4-0.9,0.9-0.9h3.9c0.5,0,0.9,0.4,0.9,0.9
								C138.2,261.3,137.8,261.6,137.3,261.6z"/>
						</g>
					</g>
				</g>
			</g>
			<g>
				<g>
					<g>
						<g>
							<path class="st6" d="M369.1,391.4c-1.7,0-3-1.4-3-3c0-1.7,1.4-3,3-3c1.7,0,3,1.4,3,3C372.1,390.1,370.8,391.4,369.1,391.4z
								 M369.1,387.1c-0.7,0-1.3,0.6-1.3,1.3s0.6,1.3,1.3,1.3c0.7,0,1.3-0.6,1.3-1.3S369.8,387.1,369.1,387.1z"/>
						</g>
					</g>
				</g>
				<g>
					<g>
						<g>
							<path class="st6" d="M359.5,216.1c-1.7,0-3-1.4-3-3c0-1.7,1.4-3,3-3s3,1.4,3,3C362.5,214.7,361.1,216.1,359.5,216.1z
								 M359.5,211.8c-0.7,0-1.3,0.6-1.3,1.3c0,0.7,0.6,1.3,1.3,1.3c0.7,0,1.3-0.6,1.3-1.3C360.7,212.3,360.2,211.8,359.5,211.8z"/>
						</g>
					</g>
				</g>
				<g>
					<g>
						<g>
							<path class="st6" d="M359.5,290.7c-1.7,0-3-1.4-3-3c0-1.7,1.4-3,3-3c1.7,0,3,1.4,3,3C362.5,289.4,361.1,290.7,359.5,290.7z
								 M359.5,286.4c-0.7,0-1.3,0.6-1.3,1.3c0,0.7,0.6,1.3,1.3,1.3c0.7,0,1.3-0.6,1.3-1.3C360.7,287,360.2,286.4,359.5,286.4z"/>
						</g>
					</g>
				</g>
				<g>
					<g>
						<g>
							<path class="st6" d="M385.5,263.1c-1.7,0-3-1.4-3-3c0-1.7,1.4-3,3-3c1.7,0,3,1.4,3,3C388.6,261.7,387.2,263.1,385.5,263.1z
								 M385.5,258.8c-0.7,0-1.3,0.6-1.3,1.3c0,0.7,0.6,1.3,1.3,1.3c0.7,0,1.3-0.6,1.3-1.3C386.8,259.4,386.2,258.8,385.5,258.8z"/>
						</g>
					</g>
				</g>
				<g>
					<g>
						<g>
							<path class="st6" d="M162.3,309.5c-0.5,0-0.9-0.4-0.9-0.9v-3.9c0-0.5,0.4-0.9,0.9-0.9c0.5,0,0.9,0.4,0.9,0.9v3.9
								C163.1,309.1,162.7,309.5,162.3,309.5z"/>
						</g>
					</g>
					<g>
						<g>
							<path class="st6" d="M162.3,309.5c-0.5,0-0.9-0.4-0.9-0.9v-3.9c0-0.5,0.4-0.9,0.9-0.9c0.5,0,0.9,0.4,0.9,0.9v3.9
								C163.1,309.1,162.7,309.5,162.3,309.5z"/>
						</g>
					</g>
					<g>
						<g>
							<path class="st6" d="M164.2,307.5h-3.9c-0.5,0-0.9-0.4-0.9-0.9c0-0.5,0.4-0.9,0.9-0.9h3.9c0.5,0,0.9,0.4,0.9,0.9
								C165.1,307.1,164.7,307.5,164.2,307.5z"/>
						</g>
					</g>
				</g>
				<g>
					<g>
						<g>
							<path class="st6" d="M162.2,320.8c-1.7,0-3-1.4-3-3c0-1.7,1.4-3,3-3c1.7,0,3,1.4,3,3C165.2,319.5,163.9,320.8,162.2,320.8z
								 M162.2,316.6c-0.7,0-1.3,0.6-1.3,1.3s0.6,1.3,1.3,1.3c0.7,0,1.3-0.6,1.3-1.3S162.9,316.6,162.2,316.6z"/>
						</g>
					</g>
				</g>
				<g>
					<g>
						<g>
							<path class="st6" d="M369.3,154c-1.7,0-3-1.4-3-3c0-1.7,1.4-3,3-3c1.7,0,3,1.4,3,3C372.3,152.6,371,154,369.3,154z
								 M369.3,149.7c-0.7,0-1.3,0.6-1.3,1.3s0.6,1.3,1.3,1.3c0.7,0,1.3-0.6,1.3-1.3S370,149.7,369.3,149.7z"/>
						</g>
					</g>
				</g>
				<g>
					<g>
						<g>
							<path class="st6" d="M350.5,117.6c-1.7,0-3-1.4-3-3c0-1.7,1.4-3,3-3c1.7,0,3,1.4,3,3C353.5,116.2,352.2,117.6,350.5,117.6z
								 M350.5,113.3c-0.7,0-1.3,0.6-1.3,1.3c0,0.7,0.6,1.3,1.3,1.3c0.7,0,1.3-0.6,1.3-1.3C351.8,113.8,351.2,113.3,350.5,113.3z"/>
						</g>
					</g>
				</g>
				<g>
					<g>
						<g>
							<path class="st6" d="M120.6,133.3c-1.7,0-3-1.4-3-3c0-1.7,1.4-3,3-3c1.7,0,3,1.4,3,3C123.7,132,122.3,133.3,120.6,133.3z
								 M120.6,129c-0.7,0-1.3,0.6-1.3,1.3s0.6,1.3,1.3,1.3c0.7,0,1.3-0.6,1.3-1.3S121.3,129,120.6,129z"/>
						</g>
					</g>
				</g>
				<g>
					<g>
						<g>
							<path class="st6" d="M180.2,117.6c-0.2,0-0.5,0-0.7-0.1c-1.1-0.3-1.9-1.1-2.2-2.2c-0.2-0.9,0-1.9,0.6-2.6
								c0.7-0.9,1.9-1.3,3.1-1.1c1.1,0.3,1.9,1.1,2.2,2.2c0.2,0.9,0,1.9-0.6,2.6C182,117.1,181.2,117.6,180.2,117.6z M180.2,113.3
								c-0.4,0-0.8,0.2-1,0.5c-0.2,0.3-0.3,0.7-0.2,1.1c0.1,0.4,0.5,0.8,0.9,0.9c0.5,0.1,1-0.1,1.3-0.4c0.2-0.3,0.3-0.7,0.2-1.1
								c-0.1-0.4-0.5-0.8-0.9-0.9C180.4,113.3,180.3,113.3,180.2,113.3z"/>
						</g>
					</g>
				</g>
				<g>
					<g>
						<g>
							<path class="st6" d="M277.7,376.4c-0.2,0-0.5,0-0.7-0.1c-1.1-0.3-1.9-1.1-2.2-2.2c-0.2-0.9,0-1.9,0.6-2.6
								c0.7-0.9,1.9-1.3,3.1-1.1c1.1,0.3,1.9,1.1,2.2,2.2c0.2,0.9,0,1.9-0.6,2.6C279.5,376,278.6,376.4,277.7,376.4z M277.7,372.1
								c-0.4,0-0.8,0.2-1,0.5c-0.2,0.3-0.3,0.7-0.2,1.1c0.1,0.4,0.5,0.8,0.9,0.9c0.5,0.1,1-0.1,1.3-0.4c0.2-0.3,0.3-0.7,0.2-1.1
								c-0.1-0.4-0.5-0.8-0.9-0.9C277.9,372.1,277.8,372.1,277.7,372.1z"/>
						</g>
					</g>
				</g>
				<g>
					<g>
						<g>
							<path class="st6" d="M140.1,197.4c-1.7,0-3-1.4-3-3c0-1.7,1.4-3,3-3c1.7,0,3,1.4,3,3C143.2,196.1,141.8,197.4,140.1,197.4z
								 M140.1,193.2c-0.7,0-1.3,0.6-1.3,1.3s0.6,1.3,1.3,1.3s1.3-0.6,1.3-1.3S140.8,193.2,140.1,193.2z"/>
						</g>
					</g>
				</g>
				<g>
					<g>
						<g>
							<path class="st6" d="M266.8,117.6c-1.7,0-3-1.4-3-3c0-1.7,1.4-3,3-3c1.7,0,3,1.4,3,3C269.8,116.2,268.5,117.6,266.8,117.6z
								 M266.8,113.3c-0.7,0-1.3,0.6-1.3,1.3c0,0.7,0.6,1.3,1.3,1.3s1.3-0.6,1.3-1.3C268.1,113.8,267.5,113.3,266.8,113.3z"/>
						</g>
					</g>
				</g>
				<g>
					<g>
						<g>
							<path class="st6" d="M112.9,294.5c-1.7,0-3-1.4-3-3c0-1.7,1.4-3,3-3c1.7,0,3,1.4,3,3C115.9,293.1,114.6,294.5,112.9,294.5z
								 M112.9,290.2c-0.7,0-1.3,0.6-1.3,1.3c0,0.7,0.6,1.3,1.3,1.3c0.7,0,1.3-0.6,1.3-1.3C114.2,290.7,113.6,290.2,112.9,290.2z"/>
						</g>
					</g>
				</g>
				<g>
					<g>
						<g>
							<path class="st6" d="M187.3,307.1c-1.7,0-3-1.4-3-3c0-1.7,1.4-3,3-3c1.7,0,3,1.4,3,3C190.3,305.7,188.9,307.1,187.3,307.1z
								 M187.3,302.8c-0.7,0-1.3,0.6-1.3,1.3c0,0.7,0.6,1.3,1.3,1.3s1.3-0.6,1.3-1.3C188.6,303.4,188,302.8,187.3,302.8z"/>
						</g>
					</g>
				</g>
			</g>
		</g>
	</g>
</g>
<g id="Designed_by_Freepik">
</g>
</svg>
