<?xml version="1.0" encoding="utf-8"?>
<!-- Generator: Adobe Illustrator 18.0.0, SVG Export Plug-In . SVG Version: 6.00 Build 0)  -->
<!DOCTYPE svg PUBLIC "-//W3C//DTD SVG 1.1//EN" "http://www.w3.org/Graphics/SVG/1.1/DTD/svg11.dtd">
<svg version="1.1" id="Layer_1" xmlns="http://www.w3.org/2000/svg" xmlns:xlink="http://www.w3.org/1999/xlink" x="0px" y="0px"
	 viewBox="0 0 600 600" enable-background="new 0 0 600 600" xml:space="preserve">
<g>
	<g opacity="0.15">
		<path fill="#717F91" d="M287.5,381.6V306c-23.6-6.7-40.8-16.9-51.8-30.6c-11-13.6-16.5-30.2-16.5-49.7c0-19.7,6.2-36.3,18.7-49.7
			c12.4-13.4,29-21.1,49.7-23.2v-17.9h26.1v17.9c19.1,2.3,34.3,8.8,45.6,19.6c11.3,10.8,18.5,25.2,21.6,43.2l-45.6,6
			c-2.8-14.2-10-23.8-21.6-28.9v70.5c28.9,7.8,48.5,17.9,59,30.4c10.5,12.4,15.7,28.4,15.7,47.9c0,21.8-6.6,40.1-19.7,55
			c-13.2,14.9-31.5,24-54.9,27.4v33.7h-26.1v-32.8c-20.8-2.5-37.7-10.3-50.7-23.3c-13-13-21.3-31.3-24.9-55l47.1-5.1
			c1.9,9.6,5.5,17.9,10.8,24.9C275.1,373.4,281,378.5,287.5,381.6z M287.5,192.2c-7.1,2.4-12.7,6.5-17,12.3
			c-4.2,5.8-6.3,12.1-6.3,19.1c0,6.4,1.9,12.3,5.8,17.8c3.8,5.5,9.7,9.9,17.5,13.3V192.2z M313.7,384.1c9-1.7,16.3-5.9,22-12.5
			c5.7-6.7,8.5-14.5,8.5-23.5c0-8.1-2.4-15-7.1-20.8c-4.8-5.8-12.5-10.3-23.4-13.4V384.1z"/>
	</g>
	<g>
		<rect x="299.9" y="108.8" fill="#CECCD5" width="2.3" height="19.3"/>
		<rect x="299.9" y="462.7" fill="#CECCD5" width="2.3" height="19.3"/>
		
			<rect x="388.4" y="132.5" transform="matrix(-0.866 -0.5 0.5 -0.866 655.9199 460.0181)" fill="#CECCD5" width="2.3" height="19.3"/>
		
			<rect x="211.5" y="439" transform="matrix(-0.866 -0.5 0.5 -0.866 172.4189 943.5109)" fill="#CECCD5" width="2.3" height="19.3"/>
		
			<rect x="453.2" y="197.3" transform="matrix(-0.5 -0.866 0.866 -0.5 502.3297 703.8593)" fill="#CECCD5" width="2.3" height="19.3"/>
		
			<rect x="138.2" y="382.7" transform="matrix(0.866 -0.5 0.5 0.866 -172.1324 125.352)" fill="#CECCD5" width="19.3" height="2.3"/>
		<rect x="114.5" y="294.2" fill="#CECCD5" width="19.3" height="2.3"/>
		<rect x="468.4" y="294.2" fill="#CECCD5" width="19.3" height="2.3"/>
		
			<rect x="138.2" y="205.8" transform="matrix(0.866 0.5 -0.5 0.866 123.2629 -46.2012)" fill="#CECCD5" width="19.3" height="2.3"/>
		
			<rect x="444.7" y="382.7" transform="matrix(-0.866 -0.5 0.5 -0.866 655.9127 943.511)" fill="#CECCD5" width="19.3" height="2.3"/>
		<rect x="203" y="141" transform="matrix(-0.5 -0.866 0.866 -0.5 195.8351 397.339)" fill="#CECCD5" width="19.3" height="2.3"/>
		
			<rect x="379.9" y="447.5" transform="matrix(-0.5 -0.866 0.866 -0.5 195.8341 1010.3751)" fill="#CECCD5" width="19.3" height="2.3"/>
		<path fill="#CECCD5" d="M318.7,117c0.8,0.1,1.5,0.2,2.3,0.2l0.8-7.3l-2.3-0.2L318.7,117z"/>
		<path fill="#CECCD5" d="M280.4,480.9l2.3,0.2l0.9-8.7c-0.8-0.1-1.5-0.2-2.3-0.2L280.4,480.9z"/>
		<path fill="#CECCD5" d="M405.5,149.8c0.6,0.5,1.3,0.9,1.9,1.4l4.4-6l-1.9-1.4L405.5,149.8z"/>
		<path fill="#CECCD5" d="M190.5,445.7l1.9,1.4l5.1-7c-0.6-0.4-1.2-0.9-1.9-1.4L190.5,445.7z"/>
		<path fill="#CECCD5" d="M472.1,220.6l-0.9-2.1l-7,3.1c0.3,0.7,0.6,1.4,0.9,2.1L472.1,220.6z"/>
		<path fill="#CECCD5" d="M130.2,370.2l0.9,2.1l7.6-3.4c-0.3-0.7-0.6-1.4-0.9-2.1L130.2,370.2z"/>
		<path fill="#CECCD5" d="M123.6,275.6l-7.9-0.8l-0.2,2.3l7.9,0.8C123.4,277.1,123.5,276.3,123.6,275.6z"/>
		<path fill="#CECCD5" d="M478.5,315.2l8.1,0.9l0.2-2.3l-8.1-0.8C478.7,313.7,478.6,314.4,478.5,315.2z"/>
		<path fill="#CECCD5" d="M157,189.3l-6.2-4.5l-1.4,1.9l6.2,4.5C156.1,190.5,156.5,189.9,157,189.3z"/>
		<path fill="#CECCD5" d="M444.5,401l6.9,5l1.4-1.9l-6.9-5C445.4,399.8,445,400.4,444.5,401z"/>
		<path fill="#CECCD5" d="M229.3,131.2l-3-6.7l-2.1,0.9l3,6.7C227.8,131.8,228.5,131.5,229.3,131.2z"/>
		<path fill="#CECCD5" d="M372.4,458.4l3.5,7.9l2.1-0.9l-3.5-7.9C373.8,457.8,373.1,458.1,372.4,458.4z"/>
		<path fill="#CECCD5" d="M337.3,119.8c0.8,0.2,1.5,0.3,2.3,0.5l1.5-7.2l-2.3-0.5L337.3,119.8z"/>
		<path fill="#CECCD5" d="M261.2,477.7l2.3,0.5l1.8-8.5c-0.8-0.2-1.5-0.3-2.3-0.5L261.2,477.7z"/>
		<path fill="#CECCD5" d="M420.1,161.5c0.6,0.5,1.1,1,1.7,1.6l5-5.6l-1.7-1.5L420.1,161.5z"/>
		<path fill="#CECCD5" d="M175.4,433.3l1.7,1.5l5.8-6.4c-0.6-0.5-1.2-1-1.7-1.5L175.4,433.3z"/>
		<path fill="#CECCD5" d="M471.5,241.2l7.4-2.4l-0.7-2.2l-7.4,2.4C471.1,239.8,471.3,240.5,471.5,241.2z"/>
		<path fill="#CECCD5" d="M131.1,349.4l-7.8,2.5l0.7,2.2l7.8-2.5C131.6,350.9,131.3,350.1,131.1,349.4z"/>
		<path fill="#CECCD5" d="M126.5,257.1l-7.7-1.6l-0.5,2.3l7.7,1.6C126.2,258.6,126.4,257.9,126.5,257.1z"/>
		<path fill="#CECCD5" d="M475.4,333.6l8,1.7l0.5-2.3l-8-1.7C475.7,332.1,475.6,332.9,475.4,333.6z"/>
		<path fill="#CECCD5" d="M168.8,174.7l-5.6-5.1l-1.5,1.7l5.6,5.1C167.8,175.9,168.3,175.3,168.8,174.7z"/>
		<path fill="#CECCD5" d="M432.7,415.4l6.4,5.7l1.5-1.7l-6.4-5.7C433.7,414.3,433.2,414.8,432.7,415.4z"/>
		<path fill="#CECCD5" d="M246.8,124.5l-2.3-7l-2.2,0.7l2.3,7C245.3,125,246.1,124.8,246.8,124.5z"/>
		<path fill="#CECCD5" d="M355,465l2.7,8.3l2.2-0.7l-2.7-8.3C356.4,464.5,355.7,464.7,355,465z"/>
		<path fill="#CECCD5" d="M355.4,124.5c0.7,0.2,1.5,0.5,2.2,0.7l2.3-7l-2.2-0.7L355.4,124.5z"/>
		<path fill="#CECCD5" d="M242.3,472.5l2.2,0.7l2.7-8.3c-0.7-0.2-1.5-0.5-2.2-0.7L242.3,472.5z"/>
		<path fill="#CECCD5" d="M433.4,174.7c0.5,0.6,1,1.2,1.5,1.7l5.6-5.1l-1.5-1.7L433.4,174.7z"/>
		<path fill="#CECCD5" d="M161.7,419.4l1.5,1.7l6.4-5.7c-0.5-0.6-1-1.1-1.6-1.7L161.7,419.4z"/>
		<path fill="#CECCD5" d="M476.2,259.4l7.7-1.6l-0.5-2.3l-7.7,1.6C475.9,257.9,476,258.6,476.2,259.4z"/>
		<path fill="#CECCD5" d="M126.3,331.4l-8,1.7l0.5,2.3l8-1.7C126.6,332.9,126.5,332.1,126.3,331.4z"/>
		<path fill="#CECCD5" d="M131.4,239l-7.4-2.4l-0.7,2.2l7.4,2.4C130.9,240.5,131.2,239.8,131.4,239z"/>
		<path fill="#CECCD5" d="M470.4,351.6l7.8,2.5l0.7-2.2l-7.8-2.5C470.9,350.1,470.6,350.9,470.4,351.6z"/>
		<path fill="#CECCD5" d="M182.1,161.5l-5-5.6l-1.7,1.5l5,5.6C181,162.6,181.6,162,182.1,161.5z"/>
		<path fill="#CECCD5" d="M419.4,428.5l5.8,6.4l1.7-1.5l-5.7-6.4C420.5,427.4,419.9,427.9,419.4,428.5z"/>
		<path fill="#CECCD5" d="M265,119.8l-1.5-7.2l-2.3,0.5l1.5,7.2C263.4,120.1,264.2,119.9,265,119.8z"/>
		<path fill="#CECCD5" d="M337,469.6l1.8,8.5l2.3-0.5l-1.8-8.5C338.5,469.3,337.7,469.5,337,469.6z"/>
		<path fill="#CECCD5" d="M373,131.2c0.7,0.3,1.4,0.6,2.1,0.9l3-6.7l-2.1-0.9L373,131.2z"/>
		<path fill="#CECCD5" d="M224.1,465.4l2.1,0.9l3.5-7.9c-0.7-0.3-1.4-0.6-2.1-0.9L224.1,465.4z"/>
		<path fill="#CECCD5" d="M452.8,186.6l-1.4-1.9l-6.2,4.5c0.5,0.6,0.9,1.2,1.4,1.9L452.8,186.6z"/>
		<path fill="#CECCD5" d="M149.5,404.1l1.4,1.9l6.9-5c-0.5-0.6-0.9-1.2-1.4-1.9L149.5,404.1z"/>
		<path fill="#CECCD5" d="M478.9,277.9l7.9-0.8l-0.2-2.3l-7.9,0.8C478.7,276.3,478.8,277.1,478.9,277.9z"/>
		<path fill="#CECCD5" d="M123.5,312.9l-8.1,0.8l0.2,2.3l8.1-0.9C123.6,314.4,123.5,313.7,123.5,312.9z"/>
		<path fill="#CECCD5" d="M138.1,221.6l-7-3.1l-0.9,2.1l7.1,3.1C137.5,223,137.8,222.3,138.1,221.6z"/>
		<path fill="#CECCD5" d="M463.5,369l7.6,3.4l0.9-2.1l-7.6-3.4C464.1,367.6,463.8,368.3,463.5,369z"/>
		<path fill="#CECCD5" d="M196.7,149.8l-4.4-6l-1.9,1.4l4.4,6C195.5,150.7,196.1,150.2,196.7,149.8z"/>
		<path fill="#CECCD5" d="M404.8,440.1l5.1,7l1.9-1.4l-5.1-7C406,439.2,405.4,439.6,404.8,440.1z"/>
		<path fill="#CECCD5" d="M283.5,117l-0.8-7.3l-2.3,0.2l0.8,7.3C282,117.1,282.7,117,283.5,117z"/>
		<path fill="#CECCD5" d="M318.5,472.4l0.9,8.7l2.3-0.2l-0.9-8.7C320.1,472.2,319.3,472.3,318.5,472.4z"/>
	</g>
	<g opacity="0.3">
		<path fill="#FFFFFF" d="M312.1,314.9l3.9-5.8c2-3,0.5-13.6-1.3-14.7L227,239.3c-1.2-0.7-3.3,0.3-4.6,2.3l-1.6,2.4
			c-1.4,2-3.8,11.2,1.9,15.1l79.3,56.8C305.6,318.2,310.1,317.9,312.1,314.9z"/>
		<path fill="#F5F5F5" d="M311.9,314.4l3.8-5.6c2-2.9,0.5-13.2-1.3-14.3l-87.1-54.9c-1.2-0.7-3.2,0.2-4.6,2.2l-1.6,2.3
			c-1.3,1.9-3.6,10.8,1.9,14.6l79,56.5C305.6,317.5,309.9,317.3,311.9,314.4z"/>
		<path fill="#EBEBEB" d="M311.7,313.8l3.7-5.5c1.9-2.8,0.5-12.8-1.3-13.9l-86.5-54.6c-1.2-0.7-3.2,0.2-4.5,2.1l-1.5,2.2
			c-1.3,1.9-3.5,10.5,1.8,14.1l78.6,56.2C305.5,316.9,309.8,316.6,311.7,313.8z"/>
		<path fill="#E0E0E0" d="M311.5,313.2l3.6-5.3c1.9-2.7,0.5-12.4-1.3-13.4L228,240.2c-1.2-0.7-3.2,0.2-4.4,2l-1.5,2.2
			c-1.3,1.8-3.3,10.1,1.8,13.6l78.3,56C305.5,316.2,309.6,316,311.5,313.2z"/>
		<path fill="#D6D6D6" d="M311.3,312.6l3.5-5.2c1.8-2.7,0.5-11.9-1.3-13l-85.3-53.9c-1.2-0.7-3.1,0.1-4.3,1.9l-1.5,2.1
			c-1.2,1.8-3.2,9.7,1.8,13.1l77.9,55.7C305.4,315.6,309.4,315.3,311.3,312.6z"/>
		<path fill="#CCCCCC" d="M311.1,312.1l3.4-5c1.8-2.6,0.5-11.5-1.3-12.6l-84.6-53.6c-1.2-0.7-3.1,0.1-4.3,1.8l-1.4,2.1
			c-1.2,1.7-3,9.3,1.7,12.6l77.6,55.4C305.3,314.9,309.3,314.7,311.1,312.1z"/>
		<path fill="#C2C2C2" d="M310.8,311.5l3.3-4.9c1.7-2.5,0.5-11.1-1.3-12.1l-84-53.3c-1.2-0.7-3,0.1-4.2,1.8l-1.4,2
			c-1.2,1.7-2.9,9,1.7,12.1l77.2,55.1C305.3,314.2,309.1,314,310.8,311.5z"/>
		<path fill="#B8B8B8" d="M310.6,310.9l3.2-4.8c1.7-2.5,0.4-10.6-1.3-11.7l-83.4-53c-1.2-0.7-3,0-4.1,1.7l-1.3,2
			c-1.1,1.6-2.7,8.6,1.6,11.6l76.9,54.9C305.2,313.6,309,313.4,310.6,310.9z"/>
		<path fill="#ADADAD" d="M310.4,310.3l3.2-4.6c1.6-2.4,0.4-10.2-1.3-11.2l-82.8-52.7c-1.2-0.7-2.9,0-4,1.6l-1.3,1.9
			c-1.1,1.6-2.6,8.2,1.6,11.1l76.5,54.6C305.2,312.9,308.8,312.7,310.4,310.3z"/>
		<path fill="#A3A3A3" d="M310.2,309.8l3.1-4.5c1.6-2.3,0.4-9.8-1.3-10.8l-82.1-52.4c-1.1-0.7-2.9,0-3.9,1.5l-1.3,1.8
			c-1.1,1.5-2.5,7.8,1.5,10.6l76.1,54.3C305.1,312.3,308.6,312.1,310.2,309.8z"/>
		<path fill="#999999" d="M310,309.2l3-4.3c1.5-2.2,0.4-9.3-1.3-10.4l-81.5-52.1c-1.1-0.7-2.8-0.1-3.9,1.4l-1.2,1.8
			c-1,1.5-2.3,7.5,1.5,10.1l75.8,54C305.1,311.6,308.5,311.4,310,309.2z"/>
		<path fill="#8F8F8F" d="M309.8,308.6l2.9-4.2c1.5-2.2,0.4-8.9-1.3-9.9l-80.9-51.8c-1.1-0.7-2.8-0.1-3.8,1.3l-1.2,1.7
			c-1,1.4-2.2,7.1,1.4,9.6l75.4,53.8C305,310.9,308.3,310.8,309.8,308.6z"/>
		<path fill="#858585" d="M309.6,308l2.8-4c1.4-2.1,0.4-8.5-1.3-9.5L230.7,243c-1.1-0.7-2.8-0.1-3.7,1.3l-1.1,1.7
			c-1,1.4-2,6.7,1.4,9.1l75.1,53.5C304.9,310.3,308.1,310.1,309.6,308z"/>
		<path fill="#7A7A7A" d="M309.3,307.5l2.7-3.9c1.4-2,0.3-8-1.3-9l-79.6-51.2c-1.1-0.7-2.7-0.2-3.6,1.2l-1.1,1.6
			c-0.9,1.3-1.9,6.4,1.4,8.6l74.7,53.2C304.9,309.6,308,309.5,309.3,307.5z"/>
		<path fill="#707070" d="M309.1,306.9l2.6-3.7c1.3-1.9,0.3-7.6-1.3-8.6l-79-50.9c-1.1-0.7-2.7-0.2-3.6,1.1l-1.1,1.5
			c-0.9,1.3-1.7,6,1.3,8.1l74.4,52.9C304.8,309,307.8,308.8,309.1,306.9z"/>
		<path fill="#666666" d="M308.9,306.3l2.5-3.6c1.3-1.9,0.3-7.2-1.3-8.2L231.7,244c-1.1-0.7-2.6-0.2-3.5,1l-1,1.5
			c-0.8,1.2-1.6,5.6,1.3,7.6l74,52.7C304.8,308.3,307.6,308.2,308.9,306.3z"/>
		<path fill="#5C5C5C" d="M308.7,305.7l2.4-3.5c1.2-1.8,0.3-6.7-1.3-7.7L232,244.3c-1.1-0.7-2.6-0.3-3.4,0.9l-1,1.4
			c-0.8,1.2-1.4,5.2,1.2,7.1l73.7,52.4C304.7,307.7,307.5,307.5,308.7,305.7z"/>
		<path fill="#525252" d="M308.5,305.2l2.3-3.3c1.2-1.7,0.3-6.3-1.3-7.3l-77.1-49.9c-1.1-0.7-2.5-0.3-3.3,0.8l-0.9,1.4
			c-0.8,1.1-1.3,4.9,1.2,6.6l73.3,52.1C304.6,307,307.3,306.9,308.5,305.2z"/>
		<path fill="#474747" d="M308.3,304.6l2.2-3.2c1.1-1.6,0.3-5.9-1.3-6.9l-76.5-49.6c-1.1-0.7-2.5-0.3-3.2,0.8l-0.9,1.3
			c-0.7,1.1-1.2,4.5,1.1,6.1l72.9,51.8C304.6,306.3,307.2,306.2,308.3,304.6z"/>
		<path fill="#3D3D3D" d="M308.1,304l2.1-3c1.1-1.6,0.2-5.4-1.3-6.4l-75.9-49.3c-1.1-0.7-2.5-0.4-3.2,0.7l-0.8,1.2
			c-0.7,1-1,4.1,1.1,5.6l72.6,51.5C304.5,305.7,307,305.6,308.1,304z"/>
		<path fill="#333333" d="M307.8,303.4l2-2.9c1-1.5,0.2-5-1.3-6l-75.2-49c-1-0.7-2.4-0.4-3.1,0.6l-0.8,1.2c-0.7,1-0.9,3.8,1,5.1
			l72.2,51.3C304.5,305,306.8,304.9,307.8,303.4z"/>
		<path fill="#292929" d="M307.6,302.9l1.9-2.7c1-1.4,0.2-4.6-1.3-5.5l-74.6-48.7c-1-0.7-2.4-0.4-3,0.5l-0.8,1.1
			c-0.6,0.9-0.7,3.4,1,4.6l71.9,51C304.4,304.4,306.7,304.3,307.6,302.9z"/>
		<path fill="#1F1F1F" d="M307.4,302.3l1.8-2.6c0.9-1.3,0.2-4.1-1.3-5.1l-74-48.4c-1-0.7-2.3-0.5-2.9,0.4l-0.7,1.1
			c-0.6,0.9-0.6,3,1,4.1l71.5,50.7C304.4,303.7,306.5,303.6,307.4,302.3z"/>
		<path fill="#141414" d="M307.2,301.7l1.7-2.4c0.9-1.3,0.2-3.7-1.3-4.7l-73.4-48.1c-1-0.7-2.3-0.5-2.9,0.3l-0.7,1
			c-0.6,0.8-0.4,2.6,0.9,3.6l71.2,50.4C304.3,303,306.3,303,307.2,301.7z"/>
		<path fill="#0A0A0A" d="M307,301.1l1.6-2.3c0.8-1.2,0.2-3.3-1.3-4.2l-72.7-47.8c-1-0.6-2.2-0.5-2.8,0.3L231,248
			c-0.5,0.8-0.3,2.3,0.9,3.1l70.8,50.2C304.2,302.4,306.2,302.3,307,301.1z"/>
		<path d="M306.8,300.6l1.5-2.2c0.8-1.1,0.1-2.8-1.3-3.8l-72.1-47.5c-1-0.6-2.2-0.6-2.7,0.2l-0.6,0.9c-0.5,0.7-0.1,1.9,0.8,2.6
			l70.5,49.9C304.2,301.7,306,301.7,306.8,300.6z"/>
	</g>
	<g opacity="0.2">
		<path fill="#FFFFFF" d="M288.2,293.9l3.8-3c1.9-1.5,12.1,2.4,13.7,4.7l81.2,107.2c1.1,1.5,0.9,3.5-0.4,4.5l-1.5,1.2
			c-1.3,1-8.7,1.6-14.3-5.5l-79.6-98.5C287.6,300.2,286.3,295.4,288.2,293.9z"/>
		<path fill="#F9F6F5" d="M288.8,294.2l3.7-2.9c1.9-1.5,11.7,2.4,13.3,4.6l80.7,106.5c1.1,1.5,1,3.5-0.3,4.5l-1.5,1.2
			c-1.3,1-8.4,1.5-13.8-5.3l-79.2-98C288.3,300.4,286.9,295.7,288.8,294.2z"/>
		<path fill="#F3EEEB" d="M289.4,294.6l3.6-2.8c1.8-1.5,11.3,2.3,12.9,4.5L386.1,402c1.1,1.5,1,3.4-0.3,4.4l-1.5,1.2
			c-1.2,1-8.2,1.4-13.3-5.1l-78.8-97.6C288.9,300.6,287.6,296,289.4,294.6z"/>
		<path fill="#EDE5E0" d="M290,294.9l3.5-2.8c1.8-1.4,10.9,2.2,12.5,4.4l79.7,105c1.1,1.5,1,3.4-0.2,4.3l-1.4,1.1
			c-1.2,1-7.9,1.4-12.9-5l-78.5-97.1C289.5,300.8,288.2,296.4,290,294.9z"/>
		<path fill="#E7DCD6" d="M290.6,295.3l3.4-2.7c1.8-1.4,10.6,2.1,12.2,4.3l79.2,104.2c1.1,1.5,1,3.3-0.2,4.3l-1.4,1.1
			c-1.2,0.9-7.6,1.3-12.4-4.8L293.3,305C290.1,301,288.9,296.7,290.6,295.3z"/>
		<path fill="#E1D3CC" d="M291.2,295.7l3.3-2.6c1.7-1.3,10.2,2.1,11.8,4.2l78.7,103.5c1.1,1.4,1,3.3-0.1,4.2l-1.4,1.1
			c-1.1,0.9-7.3,1.2-11.9-4.7l-77.7-96.2C290.7,301.2,289.5,297,291.2,295.7z"/>
		<path fill="#DBCBC2" d="M291.8,296l3.2-2.5c1.7-1.3,9.8,2,11.4,4.1l78.2,102.7c1.1,1.4,1,3.3-0.1,4.1l-1.3,1
			c-1.1,0.9-7,1.1-11.5-4.5l-77.3-95.8C291.3,301.4,290.2,297.3,291.8,296z"/>
		<path fill="#D5C2B8" d="M292.4,296.4l3.1-2.5c1.6-1.3,9.4,1.9,11,4l77.7,102c1.1,1.4,1,3.2,0,4.1l-1.3,1c-1.1,0.8-6.7,1.1-11-4.3
			l-77-95.4C291.9,301.6,290.8,297.6,292.4,296.4z"/>
		<path fill="#CFB9AD" d="M293,296.7l3-2.4c1.6-1.2,9,1.8,10.6,3.9l77.2,101.3c1.1,1.4,1.1,3.2,0,4l-1.2,1c-1,0.8-6.5,1-10.5-4.2
			l-76.6-94.9C292.6,301.8,291.4,298,293,296.7z"/>
		<path fill="#C9B1A3" d="M293.6,297.1l2.9-2.3c1.5-1.2,8.6,1.7,10.2,3.8l76.7,100.5c1,1.4,1.1,3.1,0.1,3.9l-1.2,0.9
			c-1,0.8-6.2,0.9-10.1-4l-76.2-94.5C293.2,302,292.1,298.3,293.6,297.1z"/>
		<path fill="#C3A899" d="M294.2,297.5l2.8-2.2c1.5-1.2,8.2,1.7,9.8,3.7l76.2,99.8c1,1.4,1.1,3.1,0.1,3.9l-1.2,0.9
			c-1,0.8-5.9,0.8-9.6-3.9l-75.8-94C293.8,302.2,292.7,298.6,294.2,297.5z"/>
		<path fill="#BD9F8F" d="M294.8,297.8l2.7-2.2c1.4-1.1,7.9,1.6,9.4,3.6l75.6,99c1,1.4,1.1,3.1,0.2,3.8l-1.1,0.9
			c-0.9,0.7-5.6,0.8-9.1-3.7L297,305.7C294.4,302.5,293.4,298.9,294.8,297.8z"/>
		<path fill="#B79685" d="M295.4,298.2l2.6-2.1c1.4-1.1,7.5,1.5,9,3.5l75.1,98.3c1,1.4,1.1,3,0.2,3.7l-1.1,0.9
			c-0.9,0.7-5.3,0.7-8.7-3.5l-75.1-93.1C295,302.7,294,299.2,295.4,298.2z"/>
		<path fill="#B08E7A" d="M296,298.5l2.5-2c1.3-1,7.1,1.4,8.6,3.4l74.6,97.5c1,1.4,1.1,3,0.2,3.7l-1,0.8c-0.9,0.7-5,0.6-8.2-3.4
			l-74.7-92.7C295.6,302.9,294.7,299.6,296,298.5z"/>
		<path fill="#AA8570" d="M296.6,298.9l2.5-1.9c1.3-1,6.7,1.3,8.2,3.3l74.1,96.8c1,1.3,1.1,2.9,0.3,3.6l-1,0.8
			c-0.8,0.7-4.8,0.5-7.7-3.2L298.6,306C296.2,303.1,295.3,299.9,296.6,298.9z"/>
		<path fill="#A47C66" d="M297.2,299.3l2.4-1.9c1.2-1,6.3,1.3,7.8,3.2l73.6,96c1,1.3,1.2,2.9,0.3,3.5l-1,0.8
			c-0.8,0.6-4.5,0.5-7.3-3.1l-74-91.8C296.8,303.3,295.9,300.2,297.2,299.3z"/>
		<path fill="#9E735C" d="M297.8,299.6l2.3-1.8c1.2-0.9,5.9,1.2,7.4,3.2l73.1,95.3c1,1.3,1.2,2.9,0.4,3.5l-0.9,0.7
			c-0.8,0.6-4.2,0.4-6.8-2.9l-73.6-91.3C297.5,303.5,296.6,300.5,297.8,299.6z"/>
		<path fill="#986B52" d="M298.4,300l2.2-1.7c1.1-0.9,5.6,1.1,7,3.1l72.6,94.5c1,1.3,1.2,2.8,0.4,3.4l-0.9,0.7
			c-0.7,0.6-3.9,0.3-6.3-2.7l-73.2-90.9C298.1,303.7,297.2,300.9,298.4,300z"/>
		<path fill="#926247" d="M298.9,300.3l2.1-1.6c1.1-0.8,5.2,1,6.6,3l72.1,93.8c1,1.3,1.2,2.8,0.5,3.3l-0.9,0.7
			c-0.7,0.6-3.6,0.3-5.9-2.6l-72.8-90.5C298.7,303.9,297.9,301.2,298.9,300.3z"/>
		<path fill="#8C593D" d="M299.5,300.7l2-1.6c1-0.8,4.8,0.9,6.3,2.9l71.6,93.1c1,1.3,1.2,2.7,0.5,3.3l-0.8,0.6
			c-0.7,0.5-3.3,0.2-5.4-2.4l-72.5-90C299.3,304.1,298.5,301.5,299.5,300.7z"/>
		<path fill="#865133" d="M300.1,301.1l1.9-1.5c1-0.8,4.4,0.9,5.9,2.8l71.1,92.3c1,1.3,1.2,2.7,0.6,3.2l-0.8,0.6
			c-0.7,0.5-3.1,0.1-5-2.3l-72.1-89.6C299.9,304.3,299.2,301.8,300.1,301.1z"/>
		<path fill="#804829" d="M300.7,301.4l1.8-1.4c0.9-0.7,4,0.8,5.5,2.7l70.6,91.6c1,1.3,1.2,2.7,0.6,3.2l-0.7,0.6
			c-0.6,0.5-2.8,0-4.5-2.1l-71.7-89.1C300.5,304.6,299.8,302.1,300.7,301.4z"/>
		<path fill="#7A3F1F" d="M301.3,301.8l1.7-1.3c0.9-0.7,3.6,0.7,5.1,2.6l70.1,90.8c1,1.3,1.3,2.6,0.7,3.1l-0.7,0.5
			c-0.6,0.5-2.5,0-4-1.9l-71.3-88.7C301.1,304.8,300.5,302.5,301.3,301.8z"/>
		<path fill="#743614" d="M301.9,302.1l1.6-1.3c0.8-0.7,3.3,0.6,4.7,2.5l69.6,90.1c1,1.2,1.3,2.6,0.7,3l-0.7,0.5
			c-0.6,0.4-2.2-0.1-3.6-1.8l-71-88.2C301.8,305,301.1,302.8,301.9,302.1z"/>
		<path fill="#6E2E0A" d="M302.5,302.5l1.5-1.2c0.8-0.6,2.9,0.5,4.3,2.4l69.1,89.3c0.9,1.2,1.3,2.5,0.8,3l-0.6,0.5
			c-0.5,0.4-1.9-0.2-3.1-1.6l-70.6-87.8C302.4,305.2,301.7,303.1,302.5,302.5z"/>
		<path fill="#682500" d="M303.1,302.9l1.4-1.1c0.7-0.6,2.5,0.5,3.9,2.3l68.6,88.6c0.9,1.2,1.3,2.5,0.8,2.9l-0.6,0.5
			c-0.5,0.4-1.6-0.3-2.6-1.5l-70.2-87.3C303,305.4,302.4,303.4,303.1,302.9z"/>
	</g>
	<g opacity="0.3">
		<path fill="#FFFFFF" d="M294.9,322.1l-7.3-7.3c-3.7-3.7-4.5-19.5-2.2-21.6l111.6-103.5c1.6-1.4,4.8-0.5,7.3,2l3,3
			c2.5,2.5,8.5,15.1,1.3,22.3l-99,103.5C305.2,325.1,298.7,325.9,294.9,322.1z"/>
		<path fill="#F5F5F5" d="M295.1,321.3l-7.1-7.1c-3.6-3.6-4.4-18.9-2-21l110.8-102.9c1.6-1.4,4.7-0.5,7.2,1.9l2.9,2.9
			c2.4,2.4,8.2,14.6,1.2,21.6l-98.6,103C305.1,324.1,298.7,324.9,295.1,321.3z"/>
		<path fill="#EBEBEB" d="M295.3,320.4l-6.9-6.9c-3.5-3.5-4.2-18.3-1.9-20.4l110-102.2c1.5-1.4,4.7-0.6,7,1.8l2.8,2.8
			c2.4,2.4,7.8,14.1,1.2,20.8l-98.2,102.5C305,323.2,298.8,323.9,295.3,320.4z"/>
		<path fill="#E0E0E0" d="M295.4,319.5l-6.7-6.7c-3.5-3.5-4.1-17.7-1.8-19.7l109.2-101.6c1.5-1.4,4.6-0.6,6.9,1.7l2.8,2.8
			c2.3,2.3,7.5,13.6,1.1,20.1l-97.7,102C304.9,322.2,298.9,322.9,295.4,319.5z"/>
		<path fill="#D6D6D6" d="M295.6,318.6l-6.5-6.5c-3.4-3.4-3.9-17.1-1.7-19.1l108.4-101c1.5-1.4,4.5-0.7,6.8,1.6l2.7,2.7
			c2.3,2.3,7.2,13.1,1,19.4l-97.3,101.5C304.8,321.2,298.9,322,295.6,318.6z"/>
		<path fill="#CCCCCC" d="M295.7,317.7l-6.3-6.3c-3.3-3.3-3.8-16.4-1.5-18.5l107.5-100.4c1.5-1.4,4.4-0.7,6.6,1.5l2.6,2.6
			c2.2,2.2,6.9,12.6,0.9,18.6l-96.9,101C304.7,320.3,299,321,295.7,317.7z"/>
		<path fill="#C2C2C2" d="M295.9,316.8l-6.2-6.2c-3.2-3.2-3.7-15.8-1.4-17.8L395,193c1.5-1.3,4.4-0.7,6.5,1.4l2.5,2.5
			c2.1,2.1,6.6,12.1,0.9,17.9l-96.4,100.5C304.6,319.3,299,320,295.9,316.8z"/>
		<path fill="#B8B8B8" d="M296,315.9l-6-6c-3.1-3.1-3.5-15.2-1.3-17.2l105.9-99.2c1.5-1.3,4.3-0.8,6.4,1.3l2.5,2.5
			c2.1,2.1,6.3,11.6,0.8,17.2l-96,100.1C304.5,318.3,299.1,319,296,315.9z"/>
		<path fill="#ADADAD" d="M296.2,315l-5.8-5.8c-3-3-3.4-14.6-1.2-16.6l105.1-98.6c1.5-1.3,4.2-0.8,6.2,1.2l2.4,2.4
			c2,2,6,11.2,0.7,16.4l-95.5,99.6C304.4,317.4,299.2,318,296.2,315z"/>
		<path fill="#A3A3A3" d="M296.3,314.2l-5.6-5.6c-2.9-2.9-3.2-14-1.1-15.9l104.3-97.9c1.5-1.3,4.2-0.8,6.1,1.1l2.3,2.3
			c1.9,1.9,5.7,10.7,0.7,15.7l-95.1,99.1C304.3,316.4,299.2,317,296.3,314.2z"/>
		<path fill="#999999" d="M296.5,313.3l-5.4-5.4c-2.8-2.8-3.1-13.3-0.9-15.3l103.4-97.3c1.5-1.3,4.1-0.9,6,1l2.2,2.2
			c1.9,1.9,5.4,10.2,0.6,15L307.7,312C304.2,315.4,299.3,316.1,296.5,313.3z"/>
		<path fill="#8F8F8F" d="M296.6,312.4l-5.3-5.3c-2.7-2.7-3-12.7-0.8-14.7l102.6-96.7c1.4-1.3,4-0.9,5.8,0.9l2.2,2.2
			c1.8,1.8,5.1,9.7,0.5,14.2l-94.2,98.1C304.2,314.5,299.3,315.1,296.6,312.4z"/>
		<path fill="#858585" d="M296.8,311.5l-5.1-5.1c-2.6-2.6-2.8-12.1-0.7-14l101.8-96.1c1.4-1.3,3.9-0.9,5.7,0.8l2.1,2.1
			c1.8,1.8,4.8,9.2,0.4,13.5l-93.8,97.6C304.1,313.5,299.4,314.1,296.8,311.5z"/>
		<path fill="#7A7A7A" d="M296.9,310.6l-4.9-4.9c-2.5-2.5-2.7-11.5-0.6-13.4l101-95.5c1.4-1.3,3.9-1,5.6,0.7l2,2
			c1.7,1.7,4.4,8.7,0.4,12.8l-93.4,97.1C304,312.5,299.5,313.1,296.9,310.6z"/>
		<path fill="#707070" d="M297.1,309.7l-4.7-4.7c-2.4-2.4-2.5-10.9-0.4-12.8l100.2-94.9c1.4-1.3,3.8-1,5.4,0.6l1.9,1.9
			c1.6,1.6,4.1,8.2,0.3,12l-92.9,96.6C303.9,311.6,299.5,312.1,297.1,309.7z"/>
		<path fill="#666666" d="M297.2,308.8l-4.5-4.5c-2.3-2.3-2.4-10.2-0.3-12.2l99.3-94.3c1.4-1.3,3.7-1.1,5.3,0.5l1.9,1.9
			c1.6,1.6,3.8,7.7,0.2,11.3l-92.5,96.1C303.8,310.6,299.6,311.2,297.2,308.8z"/>
		<path fill="#5C5C5C" d="M297.4,307.9l-4.3-4.3c-2.2-2.2-2.2-9.6-0.2-11.5l98.5-93.6c1.4-1.3,3.7-1.1,5.2,0.4l1.8,1.8
			c1.5,1.5,3.5,7.2,0.2,10.6l-92,95.6C303.7,309.6,299.6,310.2,297.4,307.9z"/>
		<path fill="#525252" d="M297.5,307l-4.2-4.2c-2.1-2.1-2.1-9-0.1-10.9l97.7-93c1.4-1.3,3.6-1.1,5,0.3l1.7,1.7
			c1.4,1.4,3.2,6.7,0.1,9.8l-91.6,95.1C303.6,308.7,299.7,309.2,297.5,307z"/>
		<path fill="#474747" d="M297.7,306.2l-4-4c-2.1-2.1-2-8.4,0.1-10.3l96.9-92.4c1.4-1.3,3.5-1.2,4.9,0.2l1.6,1.6
			c1.4,1.4,2.9,6.2,0,9.1L306,305.1C303.5,307.7,299.8,308.2,297.7,306.2z"/>
		<path fill="#3D3D3D" d="M297.9,305.3l-3.8-3.8c-2-2-1.8-7.8,0.2-9.6l96.1-91.8c1.3-1.2,3.4-1.2,4.8,0.1l1.6,1.6
			c1.3,1.3,2.6,5.7,0,8.4l-90.7,94.1C303.4,306.7,299.8,307.2,297.9,305.3z"/>
		<path fill="#333333" d="M298,304.4l-3.6-3.6c-1.9-1.9-1.7-7.1,0.3-9l95.3-91.2c1.3-1.2,3.4-1.2,4.6,0l1.5,1.5
			c1.3,1.3,2.3,5.2-0.1,7.6l-90.3,93.6C303.3,305.8,299.9,306.2,298,304.4z"/>
		<path fill="#292929" d="M298.2,303.5l-3.4-3.4c-1.8-1.8-1.5-6.5,0.4-8.4l94.4-90.6c1.3-1.2,3.3-1.3,4.5-0.1l1.4,1.4
			c1.2,1.2,2,4.7-0.2,6.9l-89.9,93.1C303.2,304.8,299.9,305.3,298.2,303.5z"/>
		<path fill="#1F1F1F" d="M298.3,302.6l-3.3-3.3c-1.7-1.7-1.4-5.9,0.5-7.7l93.6-90c1.3-1.2,3.2-1.3,4.4-0.2l1.3,1.3
			c1.1,1.1,1.7,4.2-0.3,6.2l-89.4,92.6C303.1,303.8,300,304.3,298.3,302.6z"/>
		<path fill="#141414" d="M298.5,301.7l-3.1-3.1c-1.6-1.6-1.3-5.3,0.7-7.1l92.8-89.3c1.3-1.2,3.2-1.3,4.2-0.3l1.3,1.3
			c1.1,1.1,1.3,3.7-0.3,5.4l-89,92.1C303,302.9,300.1,303.3,298.5,301.7z"/>
		<path fill="#0A0A0A" d="M298.6,300.8l-2.9-2.9c-1.5-1.5-1.1-4.7,0.8-6.5l92-88.7c1.3-1.2,3.1-1.4,4.1-0.4l1.2,1.2
			c1,1,1,3.2-0.4,4.7l-88.5,91.7C302.9,301.9,300.1,302.3,298.6,300.8z"/>
		<path d="M298.8,299.9l-2.7-2.7c-1.4-1.4-1-4,0.9-5.8l91.2-88.1c1.3-1.2,3-1.4,4-0.5l1.1,1.1c0.9,0.9,0.7,2.7-0.5,4L304.6,299
			C302.8,300.9,300.2,301.3,298.8,299.9z"/>
	</g>
	<path fill="#334249" d="M312.2,298.2l-3.4,5.1c-1.8,2.6-5.3,3.3-7.9,1.5l-78.8-56.4c-1.7-1.2-2.2-3.6-1-5.4l1.4-2.1
		c1.2-1.8,3.5-2.3,5.3-1.2l82.6,50.7C313.2,292,314,295.6,312.2,298.2z"/>
	
		<linearGradient id="SVGID_1_" gradientUnits="userSpaceOnUse" x1="179.8747" y1="285.1577" x2="189.8518" y2="489.9231" gradientTransform="matrix(0.7779 -0.6283 0.716 0.8865 -80.8298 116.3856)">
		<stop  offset="0.4578" style="stop-color:#FF6400"/>
		<stop  offset="1" style="stop-color:#D45300"/>
	</linearGradient>
	<path fill="url(#SVGID_1_)" d="M384.9,396c0.5,0.6,0.2,1.6-0.6,2.3l0,0c-0.8,0.7-1.9,0.7-2.3,0.1l-90.2-111.7
		c-0.5-0.6-0.2-1.6,0.6-2.3l0,0c0.8-0.7,1.9-0.7,2.3-0.1L384.9,396z"/>
	<path fill="#334249" d="M293.9,305.2l-4.3-4.3c-2.2-2.2-2.2-5.9,0.1-8l111.2-106.3c1.6-1.4,4-1.4,5.5,0.1l1.8,1.8
		c1.5,1.5,1.5,3.9,0.1,5.5L301.9,305.1C299.8,307.4,296.1,307.4,293.9,305.2z"/>
	<g>
		<radialGradient id="SVGID_2_" cx="300.0013" cy="293.4474" r="13.6033" gradientUnits="userSpaceOnUse">
			<stop  offset="0" style="stop-color:#000000"/>
			<stop  offset="7.148641e-02" style="stop-color:#2B2B2B"/>
			<stop  offset="0.1643" style="stop-color:#5C5C5C"/>
			<stop  offset="0.2621" style="stop-color:#888888"/>
			<stop  offset="0.3632" style="stop-color:#ADADAD"/>
			<stop  offset="0.4682" style="stop-color:#CBCBCB"/>
			<stop  offset="0.5787" style="stop-color:#E2E2E2"/>
			<stop  offset="0.697" style="stop-color:#F2F2F2"/>
			<stop  offset="0.8285" style="stop-color:#FCFCFC"/>
			<stop  offset="1" style="stop-color:#FFFFFF"/>
		</radialGradient>
		<circle fill="url(#SVGID_2_)" cx="300" cy="293.4" r="13.6"/>
		<g opacity="0.3">
			<path fill="#FFFFFF" d="M307.8,294.5c0,4.8-3.5,8.6-7.8,8.6c-4.3,0-7.8-3.9-7.8-8.6c0-5.2,3.5-8.6,7.8-8.6
				C304.3,285.9,307.8,289,307.8,294.5z"/>
			<path fill="#F5F5F5" d="M307.8,294.5c0,4.7-3.5,8.6-7.8,8.6s-7.8-3.8-7.8-8.6c0-5.2,3.5-8.6,7.8-8.6S307.8,289,307.8,294.5z"/>
			<path fill="#EBEBEB" d="M307.7,294.4c0,4.7-3.5,8.5-7.8,8.5c-4.3,0-7.8-3.8-7.8-8.5c0-5.1,3.5-8.5,7.8-8.5
				C304.3,285.9,307.7,289,307.7,294.4z"/>
			<path fill="#E0E0E0" d="M307.7,294.4c0,4.7-3.5,8.5-7.7,8.5s-7.7-3.8-7.7-8.5c0-5.1,3.5-8.5,7.7-8.5S307.7,289,307.7,294.4z"/>
			<path fill="#D6D6D6" d="M307.7,294.3c0,4.7-3.5,8.4-7.7,8.4c-4.3,0-7.7-3.8-7.7-8.4c0-5.1,3.5-8.4,7.7-8.4
				C304.2,285.9,307.7,289.1,307.7,294.3z"/>
			<path fill="#CCCCCC" d="M307.7,294.3c0,4.6-3.5,8.4-7.7,8.4c-4.3,0-7.7-3.8-7.7-8.4c0-5,3.5-8.4,7.7-8.4
				C304.2,285.9,307.7,289.1,307.7,294.3z"/>
			<path fill="#C2C2C2" d="M307.7,294.2c0,4.6-3.4,8.3-7.7,8.3c-4.2,0-7.7-3.7-7.7-8.3c0-5,3.4-8.3,7.7-8.3
				C304.2,285.9,307.7,289.1,307.7,294.2z"/>
			<path fill="#B8B8B8" d="M307.7,294.2c0,4.6-3.4,8.3-7.7,8.3c-4.2,0-7.7-3.7-7.7-8.3c0-4.9,3.4-8.3,7.7-8.3
				C304.2,285.9,307.7,289.1,307.7,294.2z"/>
			<path fill="#ADADAD" d="M307.6,294.2c0,4.6-3.4,8.2-7.7,8.2c-4.2,0-7.7-3.7-7.7-8.2c0-4.9,3.4-8.2,7.7-8.2
				C304.2,285.9,307.6,289.1,307.6,294.2z"/>
			<path fill="#A3A3A3" d="M307.6,294.1c0,4.5-3.4,8.2-7.6,8.2c-4.2,0-7.6-3.7-7.6-8.2c0-4.8,3.4-8.2,7.6-8.2
				C304.2,285.9,307.6,289.1,307.6,294.1z"/>
			<path fill="#999999" d="M307.6,294.1c0,4.5-3.4,8.1-7.6,8.1c-4.2,0-7.6-3.6-7.6-8.1c0-4.8,3.4-8.1,7.6-8.1
				C304.2,285.9,307.6,289.1,307.6,294.1z"/>
			<path fill="#8F8F8F" d="M307.6,294c0,4.5-3.4,8.1-7.6,8.1c-4.2,0-7.6-3.6-7.6-8.1c0-4.7,3.4-8.1,7.6-8.1
				C304.2,285.9,307.6,289.2,307.6,294z"/>
			<path fill="#858585" d="M307.6,294c0,4.4-3.4,8-7.6,8c-4.2,0-7.6-3.6-7.6-8c0-4.7,3.4-8,7.6-8C304.2,286,307.6,289.2,307.6,294z"
				/>
			<path fill="#7A7A7A" d="M307.6,294c0,4.4-3.4,8-7.6,8c-4.2,0-7.6-3.6-7.6-8c0-4.6,3.4-8,7.6-8C304.2,286,307.6,289.2,307.6,294z"
				/>
			<path fill="#707070" d="M307.6,293.9c0,4.4-3.4,7.9-7.6,7.9c-4.2,0-7.6-3.6-7.6-7.9c0-4.6,3.4-7.9,7.6-7.9
				C304.2,286,307.6,289.2,307.6,293.9z"/>
			<path fill="#666666" d="M307.5,293.9c0,4.4-3.4,7.9-7.6,7.9s-7.6-3.5-7.6-7.9c0-4.5,3.4-7.9,7.6-7.9S307.5,289.2,307.5,293.9z"/>
			<path fill="#5C5C5C" d="M307.5,293.8c0,4.3-3.4,7.8-7.5,7.8s-7.5-3.5-7.5-7.8c0-4.5,3.4-7.8,7.5-7.8S307.5,289.2,307.5,293.8z"/>
			<path fill="#525252" d="M307.5,293.8c0,4.3-3.4,7.8-7.5,7.8c-4.2,0-7.5-3.5-7.5-7.8c0-4.5,3.4-7.8,7.5-7.8
				C304.1,286,307.5,289.2,307.5,293.8z"/>
			<path fill="#474747" d="M307.5,293.7c0,4.3-3.4,7.7-7.5,7.7c-4.1,0-7.5-3.5-7.5-7.7c0-4.4,3.4-7.7,7.5-7.7
				C304.1,286,307.5,289.3,307.5,293.7z"/>
			<path fill="#3D3D3D" d="M307.5,293.7c0,4.2-3.4,7.7-7.5,7.7c-4.1,0-7.5-3.4-7.5-7.7c0-4.4,3.4-7.7,7.5-7.7
				C304.1,286,307.5,289.3,307.5,293.7z"/>
			<path fill="#333333" d="M307.5,293.7c0,4.2-3.3,7.6-7.5,7.6c-4.1,0-7.5-3.4-7.5-7.6c0-4.3,3.3-7.6,7.5-7.6
				C304.1,286,307.5,289.3,307.5,293.7z"/>
			<path fill="#292929" d="M307.5,293.6c0,4.2-3.3,7.6-7.5,7.6c-4.1,0-7.5-3.4-7.5-7.6c0-4.3,3.3-7.6,7.5-7.6
				C304.1,286,307.5,289.3,307.5,293.6z"/>
			<path fill="#1F1F1F" d="M307.4,293.6c0,4.2-3.3,7.5-7.4,7.5c-4.1,0-7.4-3.4-7.4-7.5c0-4.2,3.3-7.5,7.4-7.5
				C304.1,286,307.4,289.3,307.4,293.6z"/>
			<path fill="#141414" d="M307.4,293.5c0,4.1-3.3,7.5-7.4,7.5c-4.1,0-7.4-3.4-7.4-7.5c0-4.2,3.3-7.5,7.4-7.5
				C304.1,286,307.4,289.3,307.4,293.5z"/>
			<path fill="#0A0A0A" d="M307.4,293.5c0,4.1-3.3,7.4-7.4,7.4c-4.1,0-7.4-3.3-7.4-7.4c0-4.1,3.3-7.4,7.4-7.4
				C304.1,286,307.4,289.4,307.4,293.5z"/>
			<circle cx="300" cy="293.4" r="7.4"/>
		</g>
		<radialGradient id="SVGID_3_" cx="298.4149" cy="291.1561" r="12.8377" gradientUnits="userSpaceOnUse">
			<stop  offset="0" style="stop-color:#FFFFFF"/>
			<stop  offset="7.049190e-02" style="stop-color:#F9FCF7"/>
			<stop  offset="0.1887" style="stop-color:#DDE0D9"/>
			<stop  offset="0.4443" style="stop-color:#959B8E"/>
			<stop  offset="0.5298" style="stop-color:#7C8274"/>
			<stop  offset="0.7211" style="stop-color:#B9BEB3"/>
			<stop  offset="0.854" style="stop-color:#E5EAE1"/>
			<stop  offset="1" style="stop-color:#FFFFFF"/>
		</radialGradient>
		<circle fill="url(#SVGID_3_)" cx="300" cy="293.4" r="7.4"/>
	</g>
	<g>
		<path fill="#334249" d="M301.7,495.6c1.2,0,2.3,0.1,3.4,0.3c1,0.2,2.1,0.6,3.1,1l-1.1,4.7c-0.9-0.3-1.8-0.6-2.6-0.7
			c-0.8-0.2-1.7-0.3-2.7-0.3c-1.9,0-3.5,0.7-4.6,2.1c-1.2,1.4-1.8,3.5-1.8,6.2l0.1,0.1c0.7-0.8,1.7-1.4,2.8-1.8
			c1.1-0.4,2.4-0.6,3.8-0.6c2.9,0,5.2,1,6.8,3.1c1.6,2.1,2.5,4.7,2.5,7.9c0,3.3-1,6-3.1,8.1c-2,2.1-4.7,3.2-7.9,3.2
			c-3.4,0-6.2-1.2-8.4-3.5c-2.2-2.3-3.2-5.5-3.2-9.7v-5.7c0-4.6,1.2-8.2,3.6-10.7C294.8,496.8,297.9,495.6,301.7,495.6z
			 M300.3,511.6c-1.2,0-2.2,0.2-3.1,0.6c-0.8,0.4-1.5,0.9-2,1.6v2.2c0,2.6,0.5,4.5,1.4,5.9c0.9,1.4,2.2,2.1,3.7,2.1
			c1.3,0,2.4-0.6,3.2-1.8s1.2-2.7,1.2-4.4c0-1.8-0.4-3.3-1.2-4.4C302.7,512.2,301.6,511.6,300.3,511.6z"/>
	</g>
	<g opacity="0.4">
		<g>
			<path d="M277.8,87.1l5.5-0.7v-22h-5.5v-3.7l12-2.2v27.9l5.5,0.7V91h-17.4V87.1z"/>
			<path d="M298.1,91v-4.3l10.5-11.2c1.5-1.7,2.6-3.2,3.2-4.4c0.6-1.2,1-2.3,1-3.3c0-1.4-0.4-2.5-1.1-3.4c-0.7-0.9-1.8-1.3-3.1-1.3
				c-1.5,0-2.6,0.5-3.4,1.5c-0.8,1-1.2,2.4-1.2,4.1h-6.3l0-0.1c-0.1-2.9,0.9-5.4,2.9-7.4c2-2,4.7-3,8.1-3c3.3,0,6,0.9,7.9,2.6
				c1.9,1.7,2.9,4.1,2.9,6.9c0,2-0.5,3.8-1.6,5.4c-1.1,1.7-2.9,3.8-5.4,6.5l-5.8,6.3l0,0.1h8.4l0.3-3.2h4.9V91H298.1z"/>
		</g>
	</g>
	<g>
		<path fill="#334249" d="M277.8,87.1l5.5-0.7v-22h-5.5v-3.7l12-2.2v27.9l5.5,0.7V91h-17.4V87.1z"/>
		<path fill="#334249" d="M298.1,91v-4.3l10.5-11.2c1.5-1.7,2.6-3.2,3.2-4.4c0.6-1.2,1-2.3,1-3.3c0-1.4-0.4-2.5-1.1-3.4
			c-0.7-0.9-1.8-1.3-3.1-1.3c-1.5,0-2.6,0.5-3.4,1.5c-0.8,1-1.2,2.4-1.2,4.1h-6.3l0-0.1c-0.1-2.9,0.9-5.4,2.9-7.4c2-2,4.7-3,8.1-3
			c3.3,0,6,0.9,7.9,2.6c1.9,1.7,2.9,4.1,2.9,6.9c0,2-0.5,3.8-1.6,5.4c-1.1,1.7-2.9,3.8-5.4,6.5l-5.8,6.3l0,0.1h8.4l0.3-3.2h4.9V91
			H298.1z"/>
	</g>
	<g>
		<path fill="#334249" d="M79.1,305.2c1.7,0,3.1-0.7,4.2-2c1.1-1.3,1.6-3.3,1.6-6v-0.5c-0.7,0.9-1.6,1.6-2.6,2.1
			c-1,0.5-2.1,0.7-3.3,0.7c-3,0-5.4-1-7.1-3c-1.7-2-2.6-4.7-2.6-8.2c0-3.3,1-6,3.1-8.3c2.1-2.2,4.7-3.3,7.8-3.3c3.3,0,6,1.1,8.1,3.4
			s3.1,5.5,3.1,9.6v7c0,4.2-1.1,7.5-3.4,9.8c-2.3,2.3-5.2,3.5-8.9,3.5c-1.1,0-2.3-0.1-3.5-0.3c-1.2-0.2-2.3-0.6-3.3-1l0.7-4.7
			c1,0.4,2,0.6,2.9,0.8C76.9,305.1,78,305.2,79.1,305.2z M80.2,294.8c1.1,0,2-0.2,2.8-0.6c0.8-0.4,1.5-1,1.9-1.6v-3.5
			c0-2.4-0.4-4.2-1.2-5.4c-0.8-1.2-2-1.8-3.4-1.8c-1.3,0-2.4,0.6-3.2,1.9c-0.8,1.3-1.2,2.8-1.2,4.6c0,2,0.4,3.5,1.1,4.7
			C77.7,294.3,78.8,294.8,80.2,294.8z"/>
	</g>
	<g>
		<path fill="#334249" d="M515.8,290.8h3.7c1.5,0,2.7-0.4,3.4-1.2c0.7-0.8,1.1-1.9,1.1-3.4c0-1.3-0.4-2.4-1.1-3.1
			c-0.7-0.8-1.8-1.2-3.2-1.2c-1.2,0-2.2,0.4-3.1,1.1c-0.8,0.7-1.2,1.6-1.2,2.8H509l0-0.1c-0.1-2.5,0.9-4.6,2.9-6.3
			c2-1.6,4.6-2.5,7.6-2.5c3.4,0,6,0.8,8,2.4c2,1.6,3,3.9,3,6.9c0,1.4-0.4,2.8-1.3,4c-0.9,1.3-2.1,2.3-3.7,3c1.8,0.6,3.2,1.6,4.1,2.9
			c0.9,1.3,1.4,2.9,1.4,4.6c0,3-1.1,5.3-3.2,7s-4.9,2.5-8.3,2.5c-3,0-5.6-0.8-7.8-2.4c-2.2-1.6-3.2-3.8-3.1-6.8l0-0.1h6.3
			c0,1.2,0.4,2.3,1.3,3.1c0.9,0.8,2,1.2,3.4,1.2c1.5,0,2.7-0.4,3.6-1.2c0.9-0.8,1.3-2,1.3-3.4c0-1.7-0.4-3-1.3-3.8
			c-0.9-0.8-2.1-1.2-3.8-1.2h-3.7V290.8z"/>
	</g>
</g>
</svg>
