<?xml version="1.0" encoding="utf-8"?>
<!-- Generator: Adobe Illustrator 18.0.0, SVG Export Plug-In . SVG Version: 6.00 Build 0)  -->
<!DOCTYPE svg PUBLIC "-//W3C//DTD SVG 1.1//EN" "http://www.w3.org/Graphics/SVG/1.1/DTD/svg11.dtd">
<svg version="1.1" id="Layer_1" xmlns="http://www.w3.org/2000/svg" xmlns:xlink="http://www.w3.org/1999/xlink" x="0px" y="0px"
	 viewBox="0 0 333.3 333.3" enable-background="new 0 0 333.3 333.3" xml:space="preserve">
<path fill="#242D3C" d="M135.2,264.2c-14.1,0-27.9-7.3-35.5-20.5c-7.6-13.1-7.1-28.7,0-40.9l66.9-115.9l66.9,115.9
	c7.1,12.2,7.6,27.8,0,40.9c-7.6,13.1-21.3,20.5-35.5,20.5H135.2z"/>
<g>
	<polygon fill="#242D3C" points="166.6,127.9 209.3,85.2 124,85.2 	"/>
	<g>
		<path fill="#242D3C" d="M143.6,77.1c0,6.4-5.2,11.5-11.5,11.5c-6.4,0-11.5-5.2-11.5-11.5c0-6.4,5.2-11.5,11.5-11.5
			C138.5,65.6,143.6,70.7,143.6,77.1z"/>
		<path fill="#242D3C" d="M166.7,77.1c0,6.4-5.2,11.5-11.5,11.5c-6.4,0-11.5-5.2-11.5-11.5c0-6.4,5.2-11.5,11.5-11.5
			C161.5,65.6,166.7,70.7,166.7,77.1z"/>
		<path fill="#242D3C" d="M189.7,77.1c0,6.4-5.2,11.5-11.5,11.5c-6.4,0-11.5-5.2-11.5-11.5c0-6.4,5.2-11.5,11.5-11.5
			C184.5,65.6,189.7,70.7,189.7,77.1z"/>
		<path fill="#242D3C" d="M212.7,77.1c0,6.4-5.2,11.5-11.5,11.5c-6.4,0-11.5-5.2-11.5-11.5c0-6.4,5.2-11.5,11.5-11.5
			C207.6,65.6,212.7,70.7,212.7,77.1z"/>
	</g>
	<rect x="132.1" y="77.1" fill="#242D3C" width="69.1" height="14.9"/>
</g>
<rect x="144.1" y="105.4" fill="#F15424" width="45" height="20.5"/>
<g>
	<g>
		<path fill="#D9D8D7" d="M192,199.1c0,7-2.8,13.3-7.4,17.9l7.4,7.5c6.5-6.5,10.5-15.4,10.5-25.3H192z"/>
		<path fill="#FFFFFF" d="M166.7,173.8c14,0,25.3,11.3,25.3,25.3c0,0,0,0,0,0h10.5c0-19.8-16-35.8-35.8-35.8L166.7,173.8
			L166.7,173.8z"/>
		<path fill="#D9D8D7" d="M166.7,173.8v-10.5c-4.8,0-9.5,1-13.7,2.7l4,9.7C160,174.5,163.2,173.8,166.7,173.8z"/>
		<path fill="#F15424" d="M184.5,217c-4.6,4.6-10.9,7.4-17.9,7.4c-14,0-25.3-11.3-25.3-25.3c0-10.5,6.5-19.6,15.6-23.4l-4-9.7
			c-13,5.4-22.1,18.2-22.1,33.1c0,19.8,16,35.8,35.8,35.8c9.9,0,18.9-4,25.3-10.5L184.5,217z"/>
	</g>
	<g>
		<path fill="#FFFFFF" d="M168.6,213.5h-3.8c-2.3,0-4.4-0.9-6.1-2.5c-1.6-1.6-2.5-3.9-2.5-6.1h5.6c0,0.8,0.3,1.6,0.9,2.1
			c0.5,0.5,1.3,0.8,2.1,0.8h3.8c0.8,0,1.5-0.3,2.1-0.9c0.5-0.5,0.8-1.3,0.8-2.1c0-0.8-0.3-1.5-0.9-2.1c-0.6-0.6-1.3-0.9-2.1-0.9
			h-3.8c-2.3,0-4.4-0.9-6.1-2.5c-1.6-1.6-2.5-3.8-2.5-6c0-2.2,0.9-4.4,2.5-6c1.7-1.7,3.8-2.5,6.1-2.5h3.8c2.3,0,4.4,0.9,6.1,2.5
			c1.6,1.7,2.5,3.8,2.5,6.1h-5.6c0-0.6-0.2-1.4-0.9-2.1c-0.5-0.5-1.3-0.8-2.1-0.8h-3.8c-0.8,0-1.5,0.3-2.1,0.9
			c-0.5,0.5-0.8,1.3-0.8,2.1c0,0.8,0.3,1.5,0.8,2.1c0.6,0.6,1.3,0.9,2.1,0.9h3.8c2.3,0,4.4,0.9,6.1,2.5c1.6,1.6,2.5,3.8,2.5,6.1
			c0,2.3-0.9,4.5-2.5,6.1C173,212.6,170.9,213.5,168.6,213.5z"/>
		<rect x="163.8" y="182.2" fill="#FFFFFF" width="5.6" height="5.4"/>
		<rect x="163.8" y="210.6" fill="#FFFFFF" width="5.6" height="5.4"/>
	</g>
</g>
<g>
	<path fill="#F15424" d="M228.2,114.1c0,4.6-3.8,8.4-8.4,8.4c-4.6,0-8.4-3.8-8.4-8.4c0-4.6,3.8-8.4,8.4-8.4
		C224.4,105.7,228.2,109.4,228.2,114.1z"/>
</g>
<g>
	<path fill="#F15424" d="M153.7,44.2c0,5.6-4.5,10.1-10.1,10.1c-5.6,0-10.1-4.5-10.1-10.1c0-5.6,4.5-10.1,10.1-10.1
		C149.2,34.2,153.7,38.7,153.7,44.2z"/>
</g>
<path fill="#CCCBCA" d="M170.4,141.2c0,2.7-2.2,4.9-4.9,4.9c-2.7,0-4.9-2.2-4.9-4.9c0-2.7,2.2-4.9,4.9-4.9
	C168.2,136.2,170.4,138.4,170.4,141.2z"/>
<path fill="#242D3C" d="M120.3,120.9c0,3.7-3,6.7-6.7,6.7c-3.7,0-6.7-3-6.7-6.7c0-3.7,3-6.7,6.7-6.7
	C117.3,114.2,120.3,117.2,120.3,120.9z"/>
<g>
	<path fill="#FFFFFF" d="M140.6,159.5c0,1.9-1.5,3.4-3.4,3.4c-1.9,0-3.4-1.5-3.4-3.4c0-1.9,1.5-3.4,3.4-3.4
		C139.1,156.1,140.6,157.6,140.6,159.5z"/>
</g>
<path fill="#242D3C" d="M243.2,72c0,1.4-1.1,2.5-2.5,2.5c-1.4,0-2.5-1.1-2.5-2.5c0-1.4,1.1-2.5,2.5-2.5
	C242.1,69.4,243.2,70.6,243.2,72z"/>
<circle fill="#242D3C" cx="229.7" cy="149.7" r="4.9"/>
<g>
	<circle fill="#FFFFFF" cx="215.6" cy="223.2" r="3.4"/>
</g>
</svg>
