<?xml version="1.0" encoding="utf-8"?>
<!-- Generator: Adobe Illustrator 22.0.1, SVG Export Plug-In . SVG Version: 6.00 Build 0)  -->
<svg version="1.1" id="Layer_1" xmlns="http://www.w3.org/2000/svg" xmlns:xlink="http://www.w3.org/1999/xlink" x="0px" y="0px"
	 viewBox="0 0 288 230" style="enable-background:new 0 0 288 230;" xml:space="preserve">
<style type="text/css">
	.st0{opacity:0.2;}
	.st1{opacity:0.8;clip-path:url(#SVGID_2_);}
	.st2{fill:#EAEAEA;}
	.st3{clip-path:url(#SVGID_2_);}
	.st4{opacity:0.3;}
</style>
<g class="st0">
	<g>
		<defs>
			<rect id="SVGID_1_" y="1" width="288" height="229"/>
		</defs>
		<clipPath id="SVGID_2_">
			<use xlink:href="#SVGID_1_"  style="overflow:visible;"/>
		</clipPath>
		<g class="st1">
			<g id="triangle36_604_">
				<path class="st2" d="M71,178.1c-0.1,0-0.1,0-0.2,0L53,168.2c-0.1-0.1-0.2-0.2-0.2-0.4c0-0.1,0.1-0.3,0.2-0.3l22.6-9.2
					c0.1-0.1,0.3,0,0.4,0.1c0.1,0.1,0.2,0.2,0.1,0.4l-4.8,19.1c0,0.1-0.1,0.2-0.2,0.3C71.1,178.1,71,178.1,71,178.1z M54,167.9
					l16.7,9.3l4.5-17.9L54,167.9z"/>
			</g>
			<g id="triangle36_603_">
				<path class="st2" d="M53.1,168.3c-0.1,0-0.2-0.1-0.3-0.2c-0.1-0.1-0.1-0.3,0-0.5l27.3-29.7c0.1-0.1,0.3-0.2,0.5-0.1
					c0.2,0.1,0.2,0.2,0.2,0.4l-4.7,20.5c0,0.1-0.1,0.2-0.2,0.3l-22.6,9.2C53.2,168.2,53.2,168.3,53.1,168.3z M79.8,139.5l-25.2,27.4
					l20.9-8.5L79.8,139.5z"/>
			</g>
			<g id="triangle36_602_">
				<path class="st2" d="M75.7,159c0,0-0.1,0-0.1,0c-0.2-0.1-0.3-0.3-0.2-0.4l4.7-20.5c0-0.1,0.1-0.1,0.1-0.2l24.2-23.5
					c0.1-0.1,0.4-0.1,0.5,0c0.1,0.1,0.2,0.3,0.1,0.5l-28.9,44C76,159,75.9,159,75.7,159z M80.8,138.4l-4.2,18.3l25.9-39.3
					L80.8,138.4z"/>
			</g>
			<g id="triangle36_601_">
				<path class="st2" d="M75.7,159c-0.1,0-0.2,0-0.3-0.1c-0.1-0.1-0.1-0.3,0-0.4l28.9-44c0.1-0.1,0.2-0.2,0.4-0.2l59.6,9.1
					c0.2,0,0.3,0.2,0.3,0.3c0,0.2-0.1,0.3-0.2,0.4L75.9,159C75.8,159,75.8,159,75.7,159z M104.8,115.1l-28.1,42.8l86.1-33.9
					L104.8,115.1z"/>
			</g>
			<g id="triangle36_600_">
				<path class="st2" d="M164.2,124.2C164.2,124.2,164.2,124.2,164.2,124.2l-59.6-9.1c-0.1,0-0.2-0.1-0.3-0.2
					c-0.1-0.1-0.1-0.2,0-0.3l6.1-20.5c0-0.1,0.1-0.2,0.2-0.2c0.1,0,0.2,0,0.3,0l53.5,29.6c0.2,0,0.3,0.2,0.3,0.4
					C164.6,124,164.5,124.2,164.2,124.2L164.2,124.2z M105.1,114.4l57.1,8.7L111,94.7L105.1,114.4z"/>
			</g>
			<g id="triangle36_599_">
				<path class="st2" d="M25.6,212.1c-0.1,0-0.2,0-0.3-0.1c-0.1-0.1-0.2-0.3-0.1-0.5l27.6-43.9c0.1-0.2,0.3-0.2,0.5-0.1l17.8,9.9
					c0.1,0.1,0.2,0.2,0.2,0.3c0,0.1,0,0.2-0.1,0.3l-45.4,34C25.7,212.1,25.6,212.1,25.6,212.1z M53.3,168.4L27,210.3l43.3-32.4
					L53.3,168.4z"/>
			</g>
			<g id="triangle36_598_">
				<path class="st2" d="M53.9,255.2c-0.1,0-0.2-0.1-0.3-0.2L25.3,212c-0.1-0.2-0.1-0.4,0.1-0.5l45.4-34c0.1-0.1,0.3-0.1,0.4,0
					c0.1,0.1,0.2,0.2,0.2,0.4l-17.1,77.1C54.2,255.1,54.1,255.2,53.9,255.2C54,255.2,53.9,255.2,53.9,255.2z M26.1,211.9l27.7,42
					l16.7-75.2L26.1,211.9z"/>
			</g>
			<g id="triangle36_597_">
				<path class="st2" d="M53.9,255.2c-0.1,0-0.2,0-0.2-0.1c-0.1-0.1-0.2-0.2-0.1-0.4l17.1-77.1c0-0.2,0.2-0.3,0.4-0.3l112,3.8
					c0.2,0,0.3,0.1,0.4,0.3c0,0.2,0,0.3-0.2,0.4l-129,73.3C54,255.2,54,255.2,53.9,255.2z M71.3,178.2l-16.8,75.9l127.2-72.2
					L71.3,178.2z"/>
			</g>
			<g id="triangle36_596_">
				<path class="st2" d="M183,181.9C183,181.9,183,181.9,183,181.9C182.9,181.9,182.9,181.9,183,181.9l-112-3.8
					c-0.1,0-0.2-0.1-0.3-0.1c-0.1-0.1-0.1-0.2-0.1-0.3l4.8-19.1c0-0.2,0.2-0.3,0.4-0.3L183,181.1c0.2,0,0.4,0.2,0.4,0.4
					C183.3,181.7,183.2,181.9,183,181.9z M71.4,177.4l107.3,3.6L76,159.1L71.4,177.4z"/>
			</g>
			<g id="triangle36_595_">
				<path class="st2" d="M182.9,181.9C182.9,181.9,182.9,181.9,182.9,181.9L75.7,159c-0.2,0-0.3-0.2-0.3-0.3c0-0.2,0.1-0.3,0.2-0.4
					l88.5-34.8c0.1,0,0.2,0,0.3,0c0.1,0,0.2,0.1,0.2,0.2l18.7,57.6c0,0.1,0.1,0.1,0.1,0.2C183.3,181.7,183.2,181.9,182.9,181.9
					C183,181.9,182.9,181.9,182.9,181.9z M77,158.5L182.4,181L164,124.3L77,158.5z"/>
			</g>
			<g id="triangle36_594_">
				<path class="st2" d="M182.9,181.9c-0.1,0-0.2-0.1-0.3-0.2c-0.1-0.1-0.1-0.2,0-0.4l25-62c0.1-0.2,0.2-0.2,0.4-0.2
					c0.2,0,0.3,0.1,0.3,0.3l14.1,60c0,0.1,0,0.2-0.1,0.3c-0.1,0.1-0.2,0.1-0.3,0.1L182.9,181.9C183,181.9,183,181.9,182.9,181.9z
					 M207.8,120.8l-24.3,60.3l38-1.9L207.8,120.8z"/>
			</g>
			<g id="triangle36_593_">
				<path class="st2" d="M182.9,181.9C182.9,181.9,182.9,181.9,182.9,181.9c-0.2,0-0.3-0.1-0.4-0.3l-18.7-57.7c0-0.1,0-0.2,0-0.3
					c0.1-0.1,0.2-0.2,0.3-0.2l43.7-4.2c0.1,0,0.3,0,0.3,0.1c0.1,0.1,0.1,0.2,0,0.4l-25,62C183.2,181.8,183.1,181.9,182.9,181.9z
					 M164.8,124.1l18.2,56.3l24.3-60.4L164.8,124.1z"/>
			</g>
			<g id="triangle36_592_">
				<path class="st2" d="M53.9,255.2c-0.2,0-0.3-0.1-0.4-0.3c-0.1-0.2,0-0.4,0.2-0.4l129-73.3c0.1-0.1,0.3-0.1,0.4,0l61.6,51.5
					c0.1,0.1,0.2,0.3,0.1,0.4c0,0.1-0.2,0.2-0.3,0.3L53.9,255.2C53.9,255.2,53.9,255.2,53.9,255.2z M182.9,182L55.7,254.3l188-21.5
					L182.9,182z"/>
			</g>
			<g id="triangle36_591_">
				<path class="st2" d="M244.6,233.4c-0.1,0-0.2,0-0.2-0.1l-61.6-51.5c-0.1-0.1-0.2-0.3-0.1-0.4c0-0.1,0.2-0.2,0.3-0.3l39-2
					c0.1,0,0.3,0.1,0.4,0.2l22.6,53.4c0.1,0.1,0.1,0.2,0.1,0.2C245,233.2,244.8,233.4,244.6,233.4L244.6,233.4z M183.9,181.8
					l59.7,49.9l-21.9-51.8L183.9,181.8z"/>
			</g>
			<g id="triangle36_590_">
				<path class="st2" d="M268.2,234.2C268.2,234.2,268.2,234.2,268.2,234.2l-23.6-0.8c-0.1,0-0.3-0.1-0.3-0.2l-22.6-53.5
					c-0.1-0.2,0-0.4,0.1-0.5c0.2-0.1,0.4-0.1,0.5,0.1l46.2,54.3c0.1,0.1,0.1,0.3,0.1,0.4C268.5,234.1,268.3,234.2,268.2,234.2z
					 M244.8,232.6l22.5,0.8l-44.1-51.8L244.8,232.6z"/>
			</g>
			<g id="triangle36_589_">
				<path class="st2" d="M53.1,168.3c-0.1,0-0.1,0-0.2-0.1c-0.2-0.1-0.2-0.3-0.1-0.5l18.8-45.5c0.1-0.1,0.2-0.2,0.3-0.2
					c0.1,0,0.3,0.1,0.3,0.2l8.6,15.7c0.1,0.1,0.1,0.3-0.1,0.4l-27.3,29.7C53.3,168.2,53.2,168.3,53.1,168.3z M71.9,123.3l-17.7,42.8
					l25.7-28L71.9,123.3z"/>
			</g>
			<g id="triangle36_588_">
				<path class="st2" d="M80.5,138.5C80.5,138.5,80.4,138.5,80.5,138.5c-0.2,0-0.3-0.1-0.3-0.2l-8.6-15.7c-0.1-0.1-0.1-0.2,0-0.3
					c0-0.1,0.1-0.2,0.3-0.2l32.8-7.7c0.2,0,0.3,0,0.4,0.2c0.1,0.1,0.1,0.3-0.1,0.4l-24.2,23.5C80.7,138.5,80.6,138.5,80.5,138.5z
					 M72.5,122.7l8.1,14.9l22.8-22.2L72.5,122.7z"/>
			</g>
			<g id="triangle36_587_">
				<path class="st2" d="M71.9,122.8c-0.1,0-0.3-0.1-0.3-0.2c-0.1-0.2,0-0.4,0.1-0.5l38.8-28.3c0.1-0.1,0.3-0.1,0.4,0
					c0.1,0.1,0.2,0.3,0.1,0.4l-6.1,20.5c0,0.1-0.1,0.2-0.3,0.3L71.9,122.8C71.9,122.8,71.9,122.8,71.9,122.8z M110.1,95.1
					l-36.4,26.5l30.7-7.3L110.1,95.1z"/>
			</g>
			<g id="triangle36_586_">
				<path class="st2" d="M164.2,124.2c-0.1,0-0.1,0-0.2,0l-53.5-29.6c-0.1-0.1-0.2-0.2-0.2-0.3c0-0.1,0.1-0.3,0.2-0.3l51.7-25.6
					c0.1-0.1,0.2-0.1,0.4,0c0.1,0.1,0.2,0.2,0.2,0.3l1.8,55.2c0,0.1-0.1,0.3-0.2,0.3C164.4,124.2,164.3,124.2,164.2,124.2z
					 M111.5,94.2l52.3,29l-1.7-54L111.5,94.2z"/>
			</g>
			<g id="triangle36_585_">
				<path class="st2" d="M110.7,94.5c-0.1,0-0.2,0-0.2-0.1c-0.1-0.1-0.2-0.2-0.1-0.4l6.4-32c0-0.2,0.2-0.3,0.4-0.3l45.4,6.5
					c0.2,0,0.3,0.1,0.3,0.3c0,0.2-0.1,0.3-0.2,0.4l-51.7,25.6C110.9,94.5,110.8,94.5,110.7,94.5z M117.4,62.6l-6.2,30.9l50-24.7
					L117.4,62.6z"/>
			</g>
			<g id="triangle36_584_">
				<path class="st2" d="M164.2,124.2c-0.1,0-0.2,0-0.2-0.1c-0.1-0.1-0.1-0.2-0.1-0.3l-1.8-55.2c0-0.2,0.1-0.3,0.2-0.4
					c0.1-0.1,0.3,0,0.4,0.1l45.4,51c0.1,0.1,0.1,0.3,0.1,0.4c-0.1,0.1-0.2,0.2-0.3,0.2L164.2,124.2
					C164.3,124.2,164.3,124.2,164.2,124.2z M162.9,69.6l1.7,53.8l42.5-4.1L162.9,69.6z"/>
			</g>
			<g id="triangle36_583_">
				<path class="st2" d="M162.5,69C162.5,69,162.4,69,162.5,69l-45.4-6.5c-0.2,0-0.3-0.2-0.3-0.4l0.4-8.8c0-0.1,0.1-0.2,0.2-0.3
					c0.1-0.1,0.2-0.1,0.3,0l44.9,15.2c0.2,0,0.3,0.2,0.3,0.4C162.9,68.8,162.7,69,162.5,69C162.5,69,162.5,69,162.5,69z M117.5,61.8
					l41,5.8l-40.7-13.8L117.5,61.8z"/>
			</g>
			<g id="triangle36_582_">
				<path class="st2" d="M162.5,69c0,0-0.1,0-0.1,0l-45-15.3c-0.1,0-0.2-0.2-0.3-0.3c0-0.2,0.1-0.3,0.2-0.4l34.5-16.6
					c0.1,0,0.2,0,0.3,0c0.1,0,0.2,0.1,0.2,0.2l10.4,31.7c0,0.1,0.1,0.1,0.1,0.2C162.9,68.8,162.7,69,162.5,69
					C162.5,69,162.5,69,162.5,69z M118.5,53.3L161.9,68l-10.1-30.7L118.5,53.3z"/>
			</g>
			<g id="triangle36_581_">
				<path class="st2" d="M207.9,119.9c-0.1,0-0.2,0-0.3-0.1l-45.4-51c-0.1-0.1-0.1-0.2-0.1-0.3c0-0.1,0.1-0.2,0.1-0.3l72.9-59.7
					c0.1-0.1,0.3-0.1,0.4,0c0.1,0.1,0.2,0.3,0.2,0.4l-27.4,110.6C208.2,119.8,208.1,119.9,207.9,119.9
					C208,119.9,207.9,119.9,207.9,119.9z M163,68.6l44.7,50.1l27-108.9L163,68.6z"/>
			</g>
			<g id="triangle36_580_">
				<path class="st2" d="M162.5,69c0,0-0.1,0-0.1,0c-0.1,0-0.2-0.1-0.3-0.2l-10.5-31.8c-0.1-0.2,0-0.4,0.2-0.5l83.3-27.8
					c0.2-0.1,0.4,0,0.4,0.2c0.1,0.2,0,0.4-0.1,0.5l-72.9,59.7C162.6,68.9,162.6,69,162.5,69z M152.5,37l10.2,31l70.9-58L152.5,37z"
					/>
			</g>
			<g id="triangle36_579_">
				<path class="st2" d="M243.9,340c-0.1,0-0.1,0-0.2,0l-190-84.8c-0.2-0.1-0.2-0.2-0.2-0.4c0-0.2,0.2-0.3,0.3-0.3l190.7-21.8
					c0.1,0,0.2,0,0.3,0.1c0.1,0.1,0.1,0.2,0.1,0.3l-0.6,106.6c0,0.1-0.1,0.2-0.2,0.3C244.1,339.9,244,340,243.9,340z M55.3,255
					l188.3,84l0.6-105.6L55.3,255z"/>
			</g>
			<g id="triangle36_578_">
				<path class="st2" d="M53.9,255.2C53.9,255.2,53.8,255.2,53.9,255.2l-11.6-2.8c-0.1,0-0.2-0.1-0.3-0.2l-16.8-40.3
					c-0.1-0.2,0-0.4,0.2-0.5c0.2-0.1,0.4,0,0.5,0.1l28.3,43.1c0.1,0.1,0.1,0.3,0,0.4C54.1,255.2,54,255.2,53.9,255.2z M42.6,251.7
					l10.4,2.5l-25.6-38.9L42.6,251.7z"/>
			</g>
			<g id="triangle36_577_">
				<path class="st2" d="M314.2,115.9c-0.1,0-0.2-0.1-0.3-0.2L235.1,9.2c-0.1-0.1-0.1-0.3,0-0.5c0.1-0.1,0.3-0.2,0.5-0.1l103.7,61.5
					c0.2,0.1,0.2,0.3,0.1,0.5l-24.8,45.1C314.5,115.8,314.4,115.9,314.2,115.9C314.3,115.9,314.3,115.9,314.2,115.9z M236.8,10.2
					l77.4,104.6l24.4-44.3L236.8,10.2z"/>
			</g>
			<g id="triangle36_576_">
				<path class="st2" d="M207.9,119.9c-0.1,0-0.2-0.1-0.3-0.1c-0.1-0.1-0.1-0.2-0.1-0.3L235,8.8c0-0.1,0.1-0.2,0.3-0.3
					c0.1,0,0.3,0,0.4,0.1l78.9,106.6c0.1,0.1,0.1,0.3,0,0.4c-0.1,0.1-0.2,0.2-0.3,0.2L207.9,119.9
					C207.9,119.9,207.9,119.9,207.9,119.9z M235.5,9.8l-27.1,109.4l105.1-4L235.5,9.8z"/>
			</g>
			<g id="triangle36_575_">
				<path class="st2" d="M254.5,354.9c-0.1,0-0.2-0.1-0.3-0.2l-10.6-15c-0.1-0.1-0.1-0.3,0-0.4c0.1-0.1,0.3-0.2,0.4-0.1l10.9,3.5
					c0.2,0.1,0.3,0.2,0.3,0.4l-0.3,11.5c0,0.2-0.1,0.3-0.3,0.3C254.6,354.9,254.6,354.9,254.5,354.9z M244.9,340.3l9.3,13.1
					l0.3-10.1L244.9,340.3z"/>
			</g>
			<g id="triangle36_574_">
				<path class="st2" d="M254.8,343.5c0,0-0.1,0-0.1,0l-10.9-3.5c-0.2-0.1-0.3-0.2-0.3-0.4l14.9-83c0-0.2,0.2-0.3,0.4-0.3
					c0.2,0,0.3,0.2,0.3,0.4l-4,86.5c0,0.1-0.1,0.2-0.2,0.3C255,343.4,254.9,343.5,254.8,343.5z M244.4,339.3l10.1,3.2l3.7-80.3
					L244.4,339.3z"/>
			</g>
			<g id="triangle36_573_">
				<path class="st2" d="M243.9,340C243.9,340,243.9,340,243.9,340c-0.2,0-0.4-0.2-0.4-0.4l0.6-106.6c0-0.2,0.1-0.3,0.3-0.4
					c0.2,0,0.3,0,0.4,0.2l14.2,23.6c0,0.1,0.1,0.2,0,0.3l-14.9,83C244.3,339.8,244.1,340,243.9,340z M244.9,234.3l-0.6,100.9
					l14.1-78.6L244.9,234.3z"/>
			</g>
			<g id="triangle36_572_">
				<path class="st2" d="M258.8,256.9c-0.1,0-0.3-0.1-0.3-0.2l-14.2-23.6c-0.1-0.1-0.1-0.3,0-0.4c0.1-0.1,0.2-0.2,0.3-0.2l23.6,0.8
					c0.1,0,0.2,0.1,0.3,0.2c0.1,0.1,0.1,0.2,0,0.3l-9.4,22.7C259.1,256.8,259,256.9,258.8,256.9
					C258.8,256.9,258.8,256.9,258.8,256.9z M245.2,233.4l13.5,22.3l8.9-21.5L245.2,233.4z"/>
			</g>
			<g id="triangle36_571_">
				<path class="st2" d="M337.4,143.7c-0.1,0-0.2,0-0.3-0.1L314,115.8c-0.1-0.1-0.1-0.2-0.1-0.3c0-0.1,0.1-0.2,0.2-0.3l54.2-33.8
					c0.1-0.1,0.3-0.1,0.5,0c0.1,0.1,0.2,0.3,0.1,0.4l-31,61.6C337.7,143.6,337.5,143.7,337.4,143.7
					C337.4,143.7,337.4,143.7,337.4,143.7z M314.8,115.6l22.5,27.1l30.2-59.9L314.8,115.6z"/>
			</g>
			<g id="triangle36_570_">
				<path class="st2" d="M314.2,115.9c-0.1,0-0.2,0-0.3-0.1c-0.1-0.1-0.2-0.3-0.1-0.5l24.8-45.1c0.1-0.2,0.3-0.2,0.5-0.2l29.3,11.3
					c0.1,0.1,0.2,0.2,0.2,0.3c0,0.1-0.1,0.3-0.2,0.4l-54.2,33.8C314.4,115.9,314.3,115.9,314.2,115.9z M339.2,70.9l-24,43.5
					l52.3-32.6L339.2,70.9z"/>
			</g>
			<g id="triangle36_569_">
				<path class="st2" d="M283.8,153.2c-0.1,0-0.3-0.1-0.3-0.2c-0.1-0.1-0.1-0.3,0-0.4l30.5-37.3c0.1-0.1,0.2-0.1,0.3-0.1h0
					c0.1,0,0.2,0,0.3,0.1l23.1,27.8c0.1,0.1,0.1,0.2,0.1,0.4c0,0.1-0.2,0.2-0.3,0.2L283.8,153.2
					C283.8,153.2,283.8,153.2,283.8,153.2z M314.2,116.1l-29.5,36.2l52-9.2L314.2,116.1z"/>
			</g>
			<g id="triangle36_568_">
				<path class="st2" d="M268.2,234.2c-0.1,0-0.2,0-0.3-0.1l-46.2-54.3c-0.1-0.1-0.1-0.2-0.1-0.3c0-0.1,0.1-0.2,0.2-0.3l61.8-26.7
					c0.1-0.1,0.3,0,0.4,0.1c0.1,0.1,0.2,0.2,0.1,0.4l-15.6,81C268.5,234,268.4,234.2,268.2,234.2
					C268.2,234.2,268.2,234.2,268.2,234.2z M222.6,179.7L268,233l15.3-79.6L222.6,179.7z"/>
			</g>
			<g id="triangle36_567_">
				<path class="st2" d="M222,179.9c-0.1,0-0.1,0-0.2,0c-0.1,0-0.2-0.1-0.2-0.2l-14.1-60c0-0.1,0-0.3,0.1-0.4
					c0.1-0.1,0.3-0.1,0.4-0.1l75.9,33.2c0.1,0.1,0.2,0.2,0.2,0.3c0,0.1-0.1,0.3-0.2,0.3l-61.8,26.7C222.1,179.9,222,179.9,222,179.9
					z M208.4,120.2l13.8,58.8l60.6-26.2L208.4,120.2z"/>
			</g>
			<g id="triangle36_566_">
				<path class="st2" d="M283.8,153.2c-0.1,0-0.1,0-0.2,0l-75.9-33.2c-0.2-0.1-0.2-0.2-0.2-0.4c0-0.2,0.2-0.3,0.4-0.3l106.3-4.1
					c0.2,0,0.3,0.1,0.3,0.2c0.1,0.1,0,0.3,0,0.4L284.1,153C284,153.1,283.9,153.2,283.8,153.2z M209.6,119.9l74.1,32.5l29.8-36.4
					L209.6,119.9z"/>
			</g>
		</g>
		<g class="st3">
			<g id="triangle36_565_" class="st4">
				<path class="st2" d="M229.4,436.3c-0.1,0-0.2,0-0.3-0.1l-22-24.8c-0.1-0.1-0.1-0.3-0.1-0.4c0.1-0.1,0.2-0.2,0.3-0.2l26.6-2.5
					c0.1,0,0.2,0,0.3,0.1c0.1,0.1,0.1,0.2,0.1,0.3l-4.6,27.3c0,0.1-0.1,0.3-0.3,0.3C229.5,436.3,229.4,436.3,229.4,436.3z
					 M208.2,411.4l21,23.7l4.4-26L208.2,411.4z"/>
			</g>
			<g id="triangle36_564_" class="st4">
				<path class="st2" d="M229.4,436.3c0,0-0.1,0-0.1,0l-50.3-21.6c-0.2-0.1-0.2-0.2-0.2-0.4c0-0.2,0.2-0.3,0.3-0.3l28.3-3.1
					c0.1,0,0.2,0,0.3,0.1l22,24.8c0.1,0.1,0.1,0.3,0,0.5C229.6,436.2,229.5,436.3,229.4,436.3z M180.5,414.5l47.5,20.4l-20.8-23.4
					L180.5,414.5z"/>
			</g>
			<g id="triangle36_563_" class="st4">
				<path class="st2" d="M179.1,414.6c-0.1,0-0.1,0-0.2,0L138,394.2c-0.2-0.1-0.3-0.3-0.2-0.5c0.1-0.2,0.3-0.3,0.4-0.2l69.3,17.2
					c0.2,0,0.3,0.2,0.3,0.4c0,0.2-0.2,0.3-0.3,0.3L179.1,414.6C179.1,414.6,179.1,414.6,179.1,414.6z M141.4,395l37.8,18.8l26.1-2.9
					L141.4,395z"/>
			</g>
			<g id="triangle36_562_" class="st4">
				<path class="st2" d="M207.4,411.5C207.4,411.5,207.4,411.5,207.4,411.5l-69.4-17.3c-0.1,0-0.3-0.2-0.3-0.3l-15.1-80.4
					c0-0.2,0.1-0.3,0.2-0.4c0.2-0.1,0.3,0,0.4,0.1l84.4,97.6c0.1,0.1,0.1,0.3,0,0.4C207.7,411.4,207.5,411.5,207.4,411.5z
					 M138.5,393.6l67.9,16.9l-82.7-95.7L138.5,393.6z"/>
			</g>
			<g id="triangle36_561_" class="st4">
				<path class="st2" d="M109.1,395.7c-0.1,0-0.2,0-0.3-0.1c-0.1-0.1-0.1-0.2-0.1-0.3l13.9-81.8c0-0.2,0.2-0.3,0.4-0.3
					c0.2,0,0.3,0.1,0.4,0.3l15.1,80.4c0,0.1,0,0.2-0.1,0.3c-0.1,0.1-0.2,0.1-0.3,0.1L109.1,395.7
					C109.1,395.7,109.1,395.7,109.1,395.7z M123,315.6l-13.5,79.3l28.1-1.4L123,315.6z"/>
			</g>
			<g id="triangle36_560_" class="st4">
				<path class="st2" d="M298,451.8C298,451.8,297.9,451.8,298,451.8l-68.7-15.6c-0.2,0-0.3-0.2-0.3-0.4l4.6-27.3
					c0-0.1,0.1-0.2,0.2-0.3c0.1,0,0.3,0,0.4,0l63.9,42.8c0.1,0.1,0.2,0.2,0.2,0.4C298.4,451.6,298.2,451.8,298,451.8
					C298,451.8,298,451.8,298,451.8z M229.8,435.6l66.3,15l-61.8-41.4L229.8,435.6z"/>
			</g>
			<g id="triangle36_559_" class="st4">
				<path class="st2" d="M298,451.8c-0.1,0-0.1,0-0.2-0.1l-63.9-42.8c-0.1-0.1-0.2-0.2-0.2-0.4c0-0.2,0.2-0.3,0.3-0.3l106.3-12.8
					c0.2,0,0.3,0.1,0.4,0.2c0.1,0.1,0.1,0.3,0,0.4l-42.4,55.6C298.2,451.8,298.1,451.8,298,451.8z M235.1,408.9l62.8,42.1l41.6-54.7
					L235.1,408.9z"/>
			</g>
			<g id="triangle36_558_" class="st4">
				<path class="st2" d="M234,409c-0.2,0-0.3-0.1-0.4-0.3l-45.6-145c0-0.2,0-0.3,0.2-0.4c0.1-0.1,0.3-0.1,0.5,0l151.9,132.2
					c0.1,0.1,0.2,0.3,0.1,0.4c0,0.1-0.2,0.2-0.3,0.3L234,409C234.1,409,234.1,409,234,409z M189.2,264.7l45.1,143.5l105.2-12.7
					L189.2,264.7z"/>
			</g>
			<g id="triangle36_557_" class="st4">
				<path class="st2" d="M207.4,411.5c-0.2,0-0.3-0.1-0.4-0.3l-18.9-147.5c0-0.2,0.1-0.4,0.3-0.4c0.2,0,0.4,0.1,0.4,0.3l45.6,145
					c0,0.1,0,0.2,0,0.3c-0.1,0.1-0.2,0.2-0.3,0.2L207.4,411.5C207.4,411.5,207.4,411.5,207.4,411.5z M189.4,267.7l18.3,143l25.8-2.4
					L189.4,267.7z"/>
			</g>
			<g id="triangle36_556_" class="st4">
				<path class="st2" d="M207.4,411.5c-0.1,0-0.2,0-0.3-0.1l-84.4-97.6c-0.1-0.1-0.1-0.2-0.1-0.3c0-0.1,0.1-0.2,0.1-0.3l65.5-49.9
					c0.1-0.1,0.2-0.1,0.4,0c0.1,0.1,0.2,0.2,0.2,0.3l18.9,147.4c0,0,0,0.1,0,0.2C207.8,411.3,207.6,411.5,207.4,411.5
					C207.4,411.5,207.4,411.5,207.4,411.5z M123.6,313.5l83.3,96.4l-18.7-145.6L123.6,313.5z"/>
			</g>
			<g id="triangle36_555_" class="st4">
				<path class="st2" d="M188.5,264C188.5,264,188.5,264,188.5,264l-90.6-4.1c-0.2,0-0.3-0.1-0.3-0.3c0-0.2,0-0.3,0.2-0.4l70.5-45
					c0.1-0.1,0.2-0.1,0.3,0c0.1,0,0.2,0.1,0.2,0.2l20.1,49.1c0,0.1,0,0.3,0,0.4C188.7,263.9,188.6,264,188.5,264z M99.1,259.2
					l88.8,4l-19.7-48.1L99.1,259.2z"/>
			</g>
			<g id="triangle36_554_" class="st4">
				<path class="st2" d="M123,313.9C123,313.9,123,313.9,123,313.9c-0.2,0-0.3-0.1-0.3-0.2l-25.1-54c-0.1-0.1,0-0.3,0-0.4
					c0.1-0.1,0.2-0.2,0.3-0.2l90.5,4.1c0.2,0,0.3,0.1,0.3,0.3c0,0.2,0,0.3-0.1,0.4l-65.5,49.9C123.2,313.8,123.1,313.9,123,313.9z
					 M98.5,259.9l24.6,53l64.3-49L98.5,259.9z"/>
			</g>
			<g id="triangle36_553_" class="st4">
				<path class="st2" d="M340.4,396.2C340.4,396.2,340.4,396.2,340.4,396.2c-0.1,0-0.2,0-0.3-0.1L188.2,263.9
					c-0.1-0.1-0.2-0.3-0.1-0.4l38.2-102c0.1-0.1,0.2-0.2,0.3-0.2c0.1,0,0.3,0.1,0.4,0.2l113.6,234.2c0.1,0.1,0.1,0.2,0.1,0.3
					C340.8,396,340.6,396.2,340.4,396.2z M188.9,263.5l150.3,130.8L226.7,162.5L188.9,263.5z"/>
			</g>
			<g id="triangle36_552_" class="st4">
				<path class="st2" d="M188.5,264c-0.2,0-0.3-0.1-0.3-0.2l-20.1-49.1c-0.1-0.1,0-0.3,0.1-0.4l58.3-53c0.1-0.1,0.3-0.1,0.5,0
					c0.1,0.1,0.2,0.3,0.1,0.4l-38.2,102C188.8,263.9,188.7,264,188.5,264L188.5,264z M168.8,214.6l19.6,47.9l37.3-99.7L168.8,214.6z
					"/>
			</g>
			<g id="triangle36_551_" class="st4">
				<path class="st2" d="M168.4,214.9c-0.1,0-0.2,0-0.2-0.1c-0.1-0.1-0.2-0.3-0.1-0.5l48.7-83.6c0.1-0.1,0.2-0.2,0.4-0.2
					c0.1,0,0.3,0.1,0.3,0.3l9.6,30.6c0,0.1,0,0.3-0.1,0.4l-58.3,53C168.6,214.9,168.5,214.9,168.4,214.9z M217,131.9L170,212.6
					l56.3-51.2L217,131.9z"/>
			</g>
			<g id="triangle36_550_" class="st4">
				<path class="st2" d="M229.4,436.3C229.4,436.3,229.4,436.3,229.4,436.3l-66.6-3.6c-0.1,0-0.3-0.1-0.3-0.2
					c-0.1-0.1,0-0.3,0.1-0.4l16.3-18.1c0.1-0.1,0.3-0.2,0.4-0.1l50.3,21.6c0.2,0.1,0.3,0.3,0.2,0.4
					C229.7,436.1,229.6,436.3,229.4,436.3z M163.6,432l63.7,3.4l-48.2-20.7L163.6,432z"/>
			</g>
			<g id="triangle36_549_" class="st4">
				<path class="st2" d="M162.8,432.7C162.8,432.7,162.8,432.7,162.8,432.7c-0.1,0-0.3-0.1-0.3-0.2l-24.6-38.5
					c-0.1-0.1-0.1-0.3,0-0.5c0.1-0.1,0.3-0.2,0.4-0.1l40.9,20.4c0.1,0.1,0.2,0.2,0.2,0.3c0,0.1,0,0.2-0.1,0.3l-16.3,18.1
					C163,432.7,162.9,432.7,162.8,432.7z M139.2,394.8l23.6,36.9l15.6-17.3L139.2,394.8z"/>
			</g>
			<g id="triangle36_548_" class="st4">
				<path class="st2" d="M162.8,432.7c-0.1,0-0.1,0-0.2-0.1l-53.7-37c-0.1-0.1-0.2-0.3-0.1-0.4c0-0.2,0.2-0.3,0.3-0.3l29-1.5
					c0.1,0,0.3,0.1,0.3,0.2l24.6,38.5c0.1,0.2,0.1,0.3-0.1,0.5C163,432.7,162.9,432.7,162.8,432.7z M110.2,395.6l51.2,35.3
					l-23.5-36.7L110.2,395.6z"/>
			</g>
			<g id="triangle36_547_" class="st4">
				<path class="st2" d="M109.1,395.7c-0.1,0-0.2,0-0.3-0.1l-56-54.7c-0.1-0.1-0.1-0.2-0.1-0.3c0-0.1,0.1-0.2,0.2-0.3l69.9-27.1
					c0.1,0,0.3,0,0.4,0.1c0.1,0.1,0.2,0.2,0.1,0.4l-13.9,81.8c0,0.1-0.1,0.3-0.3,0.3C109.2,395.7,109.2,395.7,109.1,395.7z
					 M53.8,340.7l55.1,53.8l13.7-80.5L53.8,340.7z"/>
			</g>
			<g id="triangle36_546_" class="st4">
				<path class="st2" d="M65.3,401.9c-0.2,0-0.3-0.1-0.4-0.3l-12.1-61c0-0.2,0-0.3,0.2-0.4c0.1-0.1,0.3-0.1,0.4,0.1l56,54.7
					c0.1,0.1,0.1,0.2,0.1,0.4c0,0.1-0.2,0.2-0.3,0.3L65.3,401.9C65.3,401.9,65.3,401.9,65.3,401.9z M53.7,341.7l11.8,59.4l42.8-6.1
					L53.7,341.7z"/>
			</g>
			<g id="triangle36_545_" class="st4">
				<path class="st2" d="M53.1,341c-0.1,0-0.2,0-0.3-0.1c-0.1-0.1-0.1-0.3,0-0.4l44.8-81.1c0.1-0.1,0.2-0.2,0.3-0.2
					c0.1,0,0.3,0.1,0.3,0.2l25.1,54c0,0.1,0,0.2,0,0.3c0,0.1-0.1,0.2-0.2,0.2l-69.9,27.1C53.2,340.9,53.2,341,53.1,341z M97.9,260.3
					L54,339.9l68.5-26.6L97.9,260.3z"/>
			</g>
			<g id="triangle36_544_" class="st4">
				<path class="st2" d="M53.8,405.4c-0.1,0-0.2,0-0.2-0.1c-0.1-0.1-0.2-0.2-0.2-0.3l-0.7-64.4c0-0.2,0.1-0.4,0.3-0.4
					c0.2,0,0.4,0.1,0.4,0.3l12.1,61c0,0.2-0.1,0.4-0.3,0.4l-11.4,3.4C53.9,405.4,53.9,405.4,53.8,405.4z M53.6,344.6l0.6,59.9
					l10.6-3.2L53.6,344.6z"/>
			</g>
			<g id="triangle36_543_" class="st4">
				<path class="st2" d="M53.8,405.4c-0.1,0-0.2,0-0.3-0.1l-36.8-36.7c-0.1-0.1-0.1-0.2-0.1-0.3c0-0.1,0.1-0.2,0.1-0.3l36.1-27.7
					c0.1-0.1,0.3-0.1,0.4,0c0.1,0.1,0.2,0.2,0.2,0.3l0.7,64.3c0,0,0,0.1,0,0.1C54.2,405.2,54.1,405.4,53.8,405.4
					C53.8,405.4,53.8,405.4,53.8,405.4z M17.7,368.3l35.8,35.8l-0.7-62.7L17.7,368.3z"/>
			</g>
			<g id="triangle36_542_" class="st4">
				<path class="st2" d="M53.1,341c-0.1,0-0.1,0-0.2-0.1l-109.2-66.5c-0.1-0.1-0.2-0.2-0.2-0.4c0-0.2,0.2-0.3,0.3-0.3l154-14.6
					c0.1,0,0.3,0.1,0.3,0.2c0.1,0.1,0.1,0.3,0,0.4l-44.8,81.1C53.4,340.8,53.3,340.9,53.1,341C53.2,340.9,53.2,341,53.1,341z
					 M-54.9,274.4L53,340.1l44.3-80.1L-54.9,274.4z"/>
			</g>
			<g id="triangle36_541_" class="st4">
				<path class="st2" d="M17.1,368.7c-0.1,0-0.2,0-0.3-0.1l-73.1-94.2c-0.1-0.1-0.1-0.3,0-0.5c0.1-0.1,0.3-0.2,0.5-0.1l109.2,66.5
					c0.1,0.1,0.2,0.2,0.2,0.3c0,0.1,0,0.2-0.1,0.3l-36.1,27.7C17.2,368.6,17.2,368.7,17.1,368.7z M-54.5,275.5l71.6,92.3l35.3-27.1
					L-54.5,275.5z"/>
			</g>
			<g id="triangle36_540_" class="st4">
				<path class="st2" d="M340.4,396.2c-0.1,0-0.3-0.1-0.3-0.2L226.3,161.7c0-0.1,0-0.2,0-0.3s0.1-0.2,0.2-0.2l136.7-47.1
					c0.1,0,0.3,0,0.4,0.1c0.1,0.1,0.2,0.2,0.1,0.3l-23,281.4C340.7,396,340.6,396.1,340.4,396.2
					C340.4,396.2,340.4,396.2,340.4,396.2z M227.2,161.8l112.9,232.6L363,115L227.2,161.8z"/>
			</g>
			<g id="triangle36_539_" class="st4">
				<path class="st2" d="M298,451.8c-0.1,0-0.2,0-0.3-0.1c-0.1-0.1-0.2-0.3,0-0.5l42.4-55.6c0.1-0.1,0.3-0.2,0.4-0.1
					c0.1,0,0.3,0.2,0.3,0.3l1.6,16c0,0.1,0,0.2-0.1,0.3l-44,39.6C298.2,451.8,298.1,451.8,298,451.8z M340.1,396.8l-39.4,51.7
					l40.9-36.8L340.1,396.8z"/>
			</g>
			<g id="triangle36_538_" class="st4">
				<path class="st2" d="M-56,274.5c0,0-0.1,0-0.1,0c-0.2-0.1-0.3-0.2-0.2-0.4l32.1-160.4c0-0.2,0.2-0.3,0.4-0.3L45,124.8
					c0.1,0,0.2,0.1,0.3,0.2c0.1,0.1,0,0.3,0,0.4l-101,148.9C-55.8,274.4-55.9,274.5-56,274.5z M-23.7,114.1l-31.6,158.2l99.6-146.9
					L-23.7,114.1z"/>
			</g>
			<g id="triangle36_537_" class="st4">
				<path class="st2" d="M-56,274.5c-0.1,0-0.3-0.1-0.3-0.2c-0.1-0.1-0.1-0.3,0-0.4L44.6,125c0.1-0.1,0.2-0.2,0.4-0.2
					c0.1,0,0.3,0.1,0.3,0.2l53,134.3c0,0.1,0,0.2,0,0.3c-0.1,0.1-0.2,0.2-0.3,0.2L-56,274.5C-56,274.5-56,274.5-56,274.5z M44.8,126
					L-55.3,273.7l152.7-14.5L44.8,126z"/>
			</g>
			<g id="triangle36_536_" class="st4">
				<path class="st2" d="M363.4,114.8c0,0-0.1,0-0.1,0c-0.2,0-0.3-0.2-0.3-0.3l-0.4-15.5c0-0.2,0.1-0.3,0.3-0.4l14.8-4.8
					c0.2,0,0.3,0,0.4,0.1c0.1,0.1,0.1,0.3,0,0.4l-14.4,20.3C363.6,114.7,363.5,114.8,363.4,114.8z M363.4,99.2l0.4,14.1l13.1-18.5
					L363.4,99.2z"/>
			</g>
			<g id="triangle36_535_" class="st4">
				<path class="st2" d="M250.4,133.1c-0.2,0-0.3-0.1-0.4-0.3c0-0.2,0.1-0.4,0.3-0.4l112.5-33.8c0.1,0,0.2,0,0.3,0.1
					c0.1,0.1,0.2,0.2,0.2,0.3l0.4,15.5c0,0.2-0.1,0.4-0.3,0.4L250.4,133.1C250.5,133.1,250.5,133.1,250.4,133.1z M362.6,99.4
					L256,131.5l107-17.4L362.6,99.4z"/>
			</g>
			<g id="triangle36_534_" class="st4">
				<path class="st2" d="M226.7,161.9c-0.1,0-0.2-0.1-0.3-0.2c-0.1-0.1-0.1-0.3,0-0.5l23.8-28.8c0.1-0.1,0.1-0.1,0.2-0.1l113-18.3
					c0.2,0,0.4,0.1,0.4,0.3c0,0.2-0.1,0.4-0.2,0.4l-136.7,47.1C226.8,161.9,226.7,161.9,226.7,161.9z M250.6,133.1l-22.8,27.7
					l131.3-45.3L250.6,133.1z"/>
			</g>
			<g id="triangle36_533_" class="st4">
				<path class="st2" d="M226.7,161.9C226.7,161.9,226.6,161.9,226.7,161.9c-0.2,0-0.3-0.1-0.4-0.3l-9.6-30.6c0-0.1,0-0.2,0.1-0.3
					c0.1-0.1,0.2-0.2,0.3-0.1l33.3,1.8c0.1,0,0.3,0.1,0.3,0.2c0.1,0.1,0,0.3-0.1,0.4L227,161.8C226.9,161.9,226.8,161.9,226.7,161.9
					z M217.6,131.4l9.2,29.4l22.8-27.7L217.6,131.4z"/>
			</g>
			<g id="triangle36_532_" class="st4">
				<path class="st2" d="M44.9,125.6c-0.1,0-0.2,0-0.2-0.1l-67.6-54.2c-0.1-0.1-0.2-0.3-0.1-0.4c0.1-0.2,0.2-0.2,0.4-0.2l92.8,12
					c0.1,0,0.2,0.1,0.3,0.2c0.1,0.1,0,0.2,0,0.4l-25.2,42.1C45.2,125.5,45.1,125.6,44.9,125.6C45,125.6,45,125.6,44.9,125.6z
					 M-21.4,71.6l66.2,53l24.7-41.3L-21.4,71.6z"/>
			</g>
			<g id="triangle36_531_" class="st4">
				<path class="st2" d="M44.9,125.6C44.9,125.6,44.9,125.6,44.9,125.6l-69-11.5c-0.2,0-0.3-0.2-0.3-0.4L-23,71
					c0-0.1,0.1-0.3,0.2-0.3c0.1-0.1,0.3,0,0.4,0l67.5,54.1c0.1,0.1,0.2,0.2,0.2,0.3C45.3,125.4,45.2,125.6,44.9,125.6
					C44.9,125.6,44.9,125.6,44.9,125.6z M-23.6,113.4l67.1,11.2l-65.9-52.8L-23.6,113.4z"/>
			</g>
			<g id="triangle36_530_" class="st4">
				<path class="st2" d="M106.4,147.8c0,0-0.1,0-0.1,0l-61.4-22.2c-0.1,0-0.2-0.1-0.2-0.2c0-0.1,0-0.2,0-0.3l25.2-42.1
					c0.1-0.1,0.2-0.2,0.3-0.2c0.1,0,0.3,0.1,0.3,0.2l36.2,64.4c0.1,0.1,0.1,0.3,0,0.4C106.6,147.8,106.5,147.8,106.4,147.8z
					 M45.5,125l60.1,21.7L70.1,83.8L45.5,125z"/>
			</g>
			<g id="triangle36_529_" class="st4">
				<path class="st2" d="M168.4,214.9c-0.1,0-0.2,0-0.3-0.1l-62-67.1c-0.1-0.1-0.1-0.2-0.1-0.4c0-0.1,0.2-0.2,0.3-0.2l110.7-16.5
					c0.1,0,0.3,0,0.4,0.2c0.1,0.1,0.1,0.3,0,0.4l-48.7,83.6C168.7,214.8,168.6,214.9,168.4,214.9
					C168.4,214.9,168.4,214.9,168.4,214.9z M107.1,147.7l61.2,66.2l48.1-82.5L107.1,147.7z"/>
			</g>
			<g id="triangle36_528_" class="st4">
				<path class="st2" d="M97.9,259.9c-0.1,0-0.1,0-0.2-0.1c-0.1-0.1-0.2-0.2-0.2-0.4l8.4-112.1c0-0.1,0.1-0.3,0.3-0.3
					c0.1,0,0.3,0,0.4,0.1l62,67.1c0.1,0.1,0.1,0.2,0.1,0.3c0,0.1-0.1,0.2-0.2,0.3l-70.5,45C98.1,259.9,98,259.9,97.9,259.9z
					 M106.7,148.3l-8.3,110.5l69.4-44.3L106.7,148.3z"/>
			</g>
			<g id="triangle36_527_" class="st4">
				<path class="st2" d="M97.9,259.9c-0.2,0-0.3-0.1-0.3-0.2l-53-134.3c-0.1-0.1,0-0.3,0.1-0.4c0.1-0.1,0.3-0.1,0.4-0.1l61.4,22.2
					c0.2,0.1,0.3,0.2,0.2,0.4l-8.4,112.1C98.3,259.7,98.2,259.8,97.9,259.9C98,259.9,98,259.9,97.9,259.9z M45.6,125.8l52.1,132
					l8.3-110.1L45.6,125.8z"/>
			</g>
		</g>
	</g>
</g>
</svg>
