<?xml version="1.0" encoding="utf-8"?>
<!-- Generator: Adobe Illustrator 22.0.1, SVG Export Plug-In . SVG Version: 6.00 Build 0)  -->
<svg version="1.1" xmlns="http://www.w3.org/2000/svg" xmlns:xlink="http://www.w3.org/1999/xlink" x="0px" y="0px"
	 viewBox="0 0 1200 1200" style="enable-background:new 0 0 1200 1200;" xml:space="preserve">
<style type="text/css">
	.st0{opacity:0.9;clip-path:url(#SVGID_2_);fill:#073A5C;enable-background:new    ;}
	.st1{opacity:0.95;clip-path:url(#SVGID_4_);fill:#073A5C;enable-background:new    ;}
	.st2{opacity:0.85;clip-path:url(#SVGID_6_);fill:#073A5C;enable-background:new    ;}
	.st3{opacity:0.9;clip-path:url(#SVGID_8_);fill:#073A5C;enable-background:new    ;}
	.st4{opacity:0.92;clip-path:url(#SVGID_10_);fill:#073A5C;enable-background:new    ;}
	.st5{opacity:0.95;clip-path:url(#SVGID_12_);fill:#073A5C;enable-background:new    ;}
	.st6{opacity:0.9;clip-path:url(#SVGID_14_);fill:#073A5C;enable-background:new    ;}
	.st7{opacity:0.85;clip-path:url(#SVGID_16_);fill:#073A5C;enable-background:new    ;}
	.st8{opacity:0.9;clip-path:url(#SVGID_18_);fill:#073A5C;enable-background:new    ;}
	.st9{opacity:0.65;clip-path:url(#SVGID_20_);fill:#083E64;enable-background:new    ;}
	.st10{opacity:0.65;clip-path:url(#SVGID_22_);fill:#083E64;enable-background:new    ;}
	.st11{opacity:0.63;clip-path:url(#SVGID_24_);fill:#083E64;enable-background:new    ;}
	.st12{opacity:0.65;clip-path:url(#SVGID_26_);fill:#083E64;enable-background:new    ;}
	.st13{opacity:0.6;clip-path:url(#SVGID_28_);fill:#083E64;enable-background:new    ;}
	.st14{opacity:0.65;clip-path:url(#SVGID_30_);fill:#083E64;enable-background:new    ;}
	.st15{opacity:0.6;clip-path:url(#SVGID_32_);fill:#083E64;enable-background:new    ;}
	.st16{opacity:0.6;clip-path:url(#SVGID_34_);fill:#083E64;enable-background:new    ;}
	.st17{opacity:0.6;clip-path:url(#SVGID_36_);fill:#083E64;enable-background:new    ;}
	.st18{opacity:0.34;clip-path:url(#SVGID_38_);fill:#083E64;enable-background:new    ;}
	.st19{opacity:0.4;clip-path:url(#SVGID_40_);fill:#083E64;enable-background:new    ;}
	.st20{opacity:0.4;clip-path:url(#SVGID_42_);fill:#083E64;enable-background:new    ;}
	.st21{opacity:0.42;clip-path:url(#SVGID_44_);fill:#083E64;enable-background:new    ;}
	.st22{opacity:0.35;clip-path:url(#SVGID_46_);fill:#083E64;enable-background:new    ;}
	.st23{opacity:0.4;clip-path:url(#SVGID_48_);fill:#083E64;enable-background:new    ;}
	.st24{opacity:0.37;clip-path:url(#SVGID_50_);fill:#083E64;enable-background:new    ;}
	.st25{opacity:0.4;clip-path:url(#SVGID_52_);fill:#083E64;enable-background:new    ;}
	.st26{opacity:0.35;clip-path:url(#SVGID_54_);fill:#083E64;enable-background:new    ;}
	.st27{opacity:0.2;clip-path:url(#SVGID_56_);fill:#083E64;enable-background:new    ;}
	.st28{opacity:0.2;clip-path:url(#SVGID_58_);fill:#083E64;enable-background:new    ;}
	.st29{opacity:0.24;clip-path:url(#SVGID_60_);fill:#083E64;enable-background:new    ;}
	.st30{opacity:0.15;clip-path:url(#SVGID_62_);fill:#083E64;enable-background:new    ;}
	.st31{opacity:0.25;clip-path:url(#SVGID_64_);fill:#083E64;enable-background:new    ;}
	.st32{opacity:0.22;clip-path:url(#SVGID_66_);fill:#083E64;enable-background:new    ;}
	.st33{opacity:0.25;clip-path:url(#SVGID_68_);fill:#083E64;enable-background:new    ;}
	.st34{opacity:0.2;clip-path:url(#SVGID_70_);fill:#083E64;enable-background:new    ;}
	.st35{opacity:0.23;clip-path:url(#SVGID_72_);fill:#083E64;enable-background:new    ;}
	.st36{opacity:3.000000e-02;clip-path:url(#SVGID_74_);fill:#083E64;enable-background:new    ;}
	.st37{opacity:2.000000e-02;clip-path:url(#SVGID_76_);fill:#083E64;enable-background:new    ;}
	.st38{opacity:0.1;clip-path:url(#SVGID_78_);fill:#083E64;enable-background:new    ;}
	.st39{opacity:7.000000e-02;clip-path:url(#SVGID_80_);fill:#083E64;enable-background:new    ;}
	.st40{opacity:0.1;clip-path:url(#SVGID_82_);fill:#083E64;enable-background:new    ;}
	.st41{opacity:4.000000e-02;clip-path:url(#SVGID_84_);fill:#083E64;enable-background:new    ;}
	.st42{opacity:0.1;clip-path:url(#SVGID_86_);fill:#083E64;enable-background:new    ;}
	.st43{opacity:5.000000e-02;clip-path:url(#SVGID_88_);fill:#083E64;enable-background:new    ;}
	.st44{opacity:0.1;clip-path:url(#SVGID_90_);fill:#083E64;enable-background:new    ;}
	.st45{fill:none;}
	.st46{clip-path:url(#SVGID_92_);}
	.st47{opacity:0.9;fill:#073A5C;enable-background:new    ;}
	.st48{opacity:0.95;fill:#073A5C;enable-background:new    ;}
	.st49{opacity:0.85;fill:#073A5C;enable-background:new    ;}
	.st50{opacity:0.92;fill:#073A5C;enable-background:new    ;}
	.st51{opacity:0.65;fill:#083E64;enable-background:new    ;}
	.st52{opacity:0.63;fill:#083E64;enable-background:new    ;}
	.st53{opacity:0.6;fill:#083E64;enable-background:new    ;}
	.st54{display:none;opacity:0.34;fill:#083E64;enable-background:new    ;}
	.st55{opacity:0.4;fill:#083E64;enable-background:new    ;}
	.st56{opacity:0.42;fill:#083E64;enable-background:new    ;}
	.st57{opacity:0.35;fill:#083E64;enable-background:new    ;}
	.st58{opacity:0.37;fill:#083E64;enable-background:new    ;}
	.st59{opacity:0.2;fill:#083E64;enable-background:new    ;}
	.st60{opacity:0.24;fill:#083E64;enable-background:new    ;}
	.st61{opacity:0.15;fill:#083E64;enable-background:new    ;}
	.st62{opacity:0.25;fill:#083E64;enable-background:new    ;}
	.st63{opacity:0.22;fill:#083E64;enable-background:new    ;}
	.st64{opacity:0.23;fill:#083E64;enable-background:new    ;}
	.st65{opacity:3.000000e-02;fill:#083E64;enable-background:new    ;}
	.st66{opacity:2.000000e-02;fill:#083E64;enable-background:new    ;}
	.st67{opacity:0.1;fill:#083E64;enable-background:new    ;}
	.st68{opacity:7.000000e-02;fill:#083E64;enable-background:new    ;}
	.st69{opacity:4.000000e-02;fill:#083E64;enable-background:new    ;}
	.st70{opacity:5.000000e-02;fill:#083E64;enable-background:new    ;}
	.st71{clip-path:url(#SVGID_94_);}
	.st72{opacity:0.34;fill:#083E64;enable-background:new    ;}
</style>
<g id="Layer_1">
	<g>
		<defs>
			<rect id="SVGID_1_" width="1200" height="1200"/>
		</defs>
		<clipPath id="SVGID_2_">
			<use xlink:href="#SVGID_1_"  style="overflow:visible;"/>
		</clipPath>
		<polygon class="st0" points="225,981.4 0,1200 -147.5,1024.8 		"/>
	</g>
	<g>
		<defs>
			<rect id="SVGID_3_" width="1200" height="1200"/>
		</defs>
		<clipPath id="SVGID_4_">
			<use xlink:href="#SVGID_3_"  style="overflow:visible;"/>
		</clipPath>
		<polygon class="st1" points="1365,942.4 1200,1200 1005,1086.4 		"/>
	</g>
	<g>
		<defs>
			<rect id="SVGID_5_" width="1200" height="1200"/>
		</defs>
		<clipPath id="SVGID_6_">
			<use xlink:href="#SVGID_5_"  style="overflow:visible;"/>
		</clipPath>
		<polygon class="st2" points="0,1200 225,981.4 300,1200 		"/>
	</g>
	<g>
		<defs>
			<rect id="SVGID_7_" width="1200" height="1200"/>
		</defs>
		<clipPath id="SVGID_8_">
			<use xlink:href="#SVGID_7_"  style="overflow:visible;"/>
		</clipPath>
		<polygon class="st3" points="450,1071.4 300,1200 225,981.4 		"/>
	</g>
	<g>
		<defs>
			<rect id="SVGID_9_" width="1200" height="1200"/>
		</defs>
		<clipPath id="SVGID_10_">
			<use xlink:href="#SVGID_9_"  style="overflow:visible;"/>
		</clipPath>
		<polygon class="st4" points="300,1200 450,1071.4 600,1200 		"/>
	</g>
	<g>
		<defs>
			<rect id="SVGID_11_" width="1200" height="1200"/>
		</defs>
		<clipPath id="SVGID_12_">
			<use xlink:href="#SVGID_11_"  style="overflow:visible;"/>
		</clipPath>
		<polygon class="st5" points="645,966.4 600,1200 450,1071.4 		"/>
	</g>
	<g>
		<defs>
			<rect id="SVGID_13_" width="1200" height="1200"/>
		</defs>
		<clipPath id="SVGID_14_">
			<use xlink:href="#SVGID_13_"  style="overflow:visible;"/>
		</clipPath>
		<polygon class="st6" points="600,1200 645,966.4 900,1200 		"/>
	</g>
	<g>
		<defs>
			<rect id="SVGID_15_" width="1200" height="1200"/>
		</defs>
		<clipPath id="SVGID_16_">
			<use xlink:href="#SVGID_15_"  style="overflow:visible;"/>
		</clipPath>
		<polygon class="st7" points="1005,1086.4 900,1200 645,966.4 		"/>
	</g>
	<g>
		<defs>
			<rect id="SVGID_17_" width="1200" height="1200"/>
		</defs>
		<clipPath id="SVGID_18_">
			<use xlink:href="#SVGID_17_"  style="overflow:visible;"/>
		</clipPath>
		<polygon class="st8" points="900,1200 1005,1086.4 1200,1200 		"/>
	</g>
	<g>
		<defs>
			<rect id="SVGID_19_" width="1200" height="1200"/>
		</defs>
		<clipPath id="SVGID_20_">
			<use xlink:href="#SVGID_19_"  style="overflow:visible;"/>
		</clipPath>
		<polygon class="st9" points="1005,1086.4 1200,803 1365,951.4 		"/>
	</g>
	<g>
		<defs>
			<rect id="SVGID_21_" width="1200" height="1200"/>
		</defs>
		<clipPath id="SVGID_22_">
			<use xlink:href="#SVGID_21_"  style="overflow:visible;"/>
		</clipPath>
		<polygon class="st10" points="-150,1025.4 0,801 225,981.4 		"/>
	</g>
	<g>
		<defs>
			<rect id="SVGID_23_" width="1200" height="1200"/>
		</defs>
		<clipPath id="SVGID_24_">
			<use xlink:href="#SVGID_23_"  style="overflow:visible;"/>
		</clipPath>
		<polygon class="st11" points="1200,803 1005,1086.4 900,897.8 		"/>
	</g>
	<g>
		<defs>
			<rect id="SVGID_25_" width="1200" height="1200"/>
		</defs>
		<clipPath id="SVGID_26_">
			<use xlink:href="#SVGID_25_"  style="overflow:visible;"/>
		</clipPath>
		<polygon class="st12" points="645,966.4 900,897.8 1005,1086.4 		"/>
	</g>
	<g>
		<defs>
			<rect id="SVGID_27_" width="1200" height="1200"/>
		</defs>
		<clipPath id="SVGID_28_">
			<use xlink:href="#SVGID_27_"  style="overflow:visible;"/>
		</clipPath>
		<polygon class="st13" points="900,897.8 645,966.4 540,777.8 		"/>
	</g>
	<g>
		<defs>
			<rect id="SVGID_29_" width="1200" height="1200"/>
		</defs>
		<clipPath id="SVGID_30_">
			<use xlink:href="#SVGID_29_"  style="overflow:visible;"/>
		</clipPath>
		<polygon class="st14" points="450,1071.4 540,777.8 645,966.4 		"/>
	</g>
	<g>
		<defs>
			<rect id="SVGID_31_" width="1200" height="1200"/>
		</defs>
		<clipPath id="SVGID_32_">
			<use xlink:href="#SVGID_31_"  style="overflow:visible;"/>
		</clipPath>
		<polygon class="st15" points="540,777.8 450,1071.4 300,867.8 		"/>
	</g>
	<g>
		<defs>
			<rect id="SVGID_33_" width="1200" height="1200"/>
		</defs>
		<clipPath id="SVGID_34_">
			<use xlink:href="#SVGID_33_"  style="overflow:visible;"/>
		</clipPath>
		<polygon class="st16" points="225,981.4 300,867.8 450,1071.4 		"/>
	</g>
	<g>
		<defs>
			<rect id="SVGID_35_" width="1200" height="1200"/>
		</defs>
		<clipPath id="SVGID_36_">
			<use xlink:href="#SVGID_35_"  style="overflow:visible;"/>
		</clipPath>
		<polygon class="st17" points="300,867.8 225,981.4 0,801 		"/>
	</g>
	<g>
		<defs>
			<rect id="SVGID_37_" width="1200" height="1200"/>
		</defs>
		<clipPath id="SVGID_38_">
			<use xlink:href="#SVGID_37_"  style="overflow:visible;"/>
		</clipPath>
		<polygon class="st18" points="180,694.3 0,801 -150,634.3 		"/>
	</g>
	<g>
		<defs>
			<rect id="SVGID_39_" width="1200" height="1200"/>
		</defs>
		<clipPath id="SVGID_40_">
			<use xlink:href="#SVGID_39_"  style="overflow:visible;"/>
		</clipPath>
		<polygon class="st19" points="1350,634.3 1200,762.8 1020,589.3 		"/>
	</g>
	<g>
		<defs>
			<rect id="SVGID_41_" width="1200" height="1200"/>
		</defs>
		<clipPath id="SVGID_42_">
			<use xlink:href="#SVGID_41_"  style="overflow:visible;"/>
		</clipPath>
		<polygon class="st20" points="0,801 180,694.3 300,867.8 		"/>
	</g>
	<g>
		<defs>
			<rect id="SVGID_43_" width="1200" height="1200"/>
		</defs>
		<clipPath id="SVGID_44_">
			<use xlink:href="#SVGID_43_"  style="overflow:visible;"/>
		</clipPath>
		<polygon class="st21" points="450,634.3 300,867.8 180,694.3 		"/>
	</g>
	<g>
		<defs>
			<rect id="SVGID_45_" width="1200" height="1200"/>
		</defs>
		<clipPath id="SVGID_46_">
			<use xlink:href="#SVGID_45_"  style="overflow:visible;"/>
		</clipPath>
		<polygon class="st22" points="300,867.8 450,634.3 540,777.8 		"/>
	</g>
	<g>
		<defs>
			<rect id="SVGID_47_" width="1200" height="1200"/>
		</defs>
		<clipPath id="SVGID_48_">
			<use xlink:href="#SVGID_47_"  style="overflow:visible;"/>
		</clipPath>
		<polygon class="st23" points="750,634.3 540,777.8 450,634.3 		"/>
	</g>
	<g>
		<defs>
			<rect id="SVGID_49_" width="1200" height="1200"/>
		</defs>
		<clipPath id="SVGID_50_">
			<use xlink:href="#SVGID_49_"  style="overflow:visible;"/>
		</clipPath>
		<polygon class="st24" points="540,777.8 750,634.3 900,897.8 		"/>
	</g>
	<g>
		<defs>
			<rect id="SVGID_51_" width="1200" height="1200"/>
		</defs>
		<clipPath id="SVGID_52_">
			<use xlink:href="#SVGID_51_"  style="overflow:visible;"/>
		</clipPath>
		<polygon class="st25" points="1020,589.3 900,897.8 750,634.3 		"/>
	</g>
	<g>
		<defs>
			<rect id="SVGID_53_" width="1200" height="1200"/>
		</defs>
		<clipPath id="SVGID_54_">
			<use xlink:href="#SVGID_53_"  style="overflow:visible;"/>
		</clipPath>
		<polygon class="st26" points="900,897.8 1020,589.3 1233.7,795.3 		"/>
	</g>
	<g>
		<defs>
			<rect id="SVGID_55_" width="1200" height="1200"/>
		</defs>
		<clipPath id="SVGID_56_">
			<use xlink:href="#SVGID_55_"  style="overflow:visible;"/>
		</clipPath>
		<polygon class="st27" points="1020,589.3 1200,445.7 1350,634.3 		"/>
	</g>
	<g>
		<defs>
			<rect id="SVGID_57_" width="1200" height="1200"/>
		</defs>
		<clipPath id="SVGID_58_">
			<use xlink:href="#SVGID_57_"  style="overflow:visible;"/>
		</clipPath>
		<polygon class="st28" points="-150,634.3 0,490.7 180,694.3 		"/>
	</g>
	<g>
		<defs>
			<rect id="SVGID_59_" width="1200" height="1200"/>
		</defs>
		<clipPath id="SVGID_60_">
			<use xlink:href="#SVGID_59_"  style="overflow:visible;"/>
		</clipPath>
		<polygon class="st29" points="1200,445.7 1020,589.3 870,475.7 		"/>
	</g>
	<g>
		<defs>
			<rect id="SVGID_61_" width="1200" height="1200"/>
		</defs>
		<clipPath id="SVGID_62_">
			<use xlink:href="#SVGID_61_"  style="overflow:visible;"/>
		</clipPath>
		<polygon class="st30" points="750,634.3 870,475.7 1020,589.3 		"/>
	</g>
	<g>
		<defs>
			<rect id="SVGID_63_" width="1200" height="1200"/>
		</defs>
		<clipPath id="SVGID_64_">
			<use xlink:href="#SVGID_63_"  style="overflow:visible;"/>
		</clipPath>
		<polygon class="st31" points="870,475.7 750,634.3 600,445.7 		"/>
	</g>
	<g>
		<defs>
			<rect id="SVGID_65_" width="1200" height="1200"/>
		</defs>
		<clipPath id="SVGID_66_">
			<use xlink:href="#SVGID_65_"  style="overflow:visible;"/>
		</clipPath>
		<polygon class="st32" points="450,634.3 600,445.7 750,634.3 		"/>
	</g>
	<g>
		<defs>
			<rect id="SVGID_67_" width="1200" height="1200"/>
		</defs>
		<clipPath id="SVGID_68_">
			<use xlink:href="#SVGID_67_"  style="overflow:visible;"/>
		</clipPath>
		<polygon class="st33" points="600,445.7 450,634.3 300,550.7 		"/>
	</g>
	<g>
		<defs>
			<rect id="SVGID_69_" width="1200" height="1200"/>
		</defs>
		<clipPath id="SVGID_70_">
			<use xlink:href="#SVGID_69_"  style="overflow:visible;"/>
		</clipPath>
		<polygon class="st34" points="180,694.3 300,550.7 450,634.3 		"/>
	</g>
	<g>
		<defs>
			<rect id="SVGID_71_" width="1200" height="1200"/>
		</defs>
		<clipPath id="SVGID_72_">
			<use xlink:href="#SVGID_71_"  style="overflow:visible;"/>
		</clipPath>
		<polygon class="st35" points="300,550.7 180,694.3 0,490.7 		"/>
	</g>
	<g>
		<defs>
			<rect id="SVGID_73_" width="1200" height="1200"/>
		</defs>
		<clipPath id="SVGID_74_">
			<use xlink:href="#SVGID_73_"  style="overflow:visible;"/>
		</clipPath>
		<polygon class="st36" points="1050,124.5 1200,445.7 1350,309.5 		"/>
	</g>
	<g>
		<defs>
			<rect id="SVGID_75_" width="1200" height="1200"/>
		</defs>
		<clipPath id="SVGID_76_">
			<use xlink:href="#SVGID_75_"  style="overflow:visible;"/>
		</clipPath>
		<polygon class="st37" points="-150,234.5 0,490.7 150,199.5 		"/>
	</g>
	<g>
		<defs>
			<rect id="SVGID_77_" width="1200" height="1200"/>
		</defs>
		<clipPath id="SVGID_78_">
			<use xlink:href="#SVGID_77_"  style="overflow:visible;"/>
		</clipPath>
		<polygon class="st38" points="1200,445.7 1050,124.5 870,475.7 		"/>
	</g>
	<g>
		<defs>
			<rect id="SVGID_79_" width="1200" height="1200"/>
		</defs>
		<clipPath id="SVGID_80_">
			<use xlink:href="#SVGID_79_"  style="overflow:visible;"/>
		</clipPath>
		<polygon class="st39" points="750,289.5 870,475.7 1050,124.5 		"/>
	</g>
	<g>
		<defs>
			<rect id="SVGID_81_" width="1200" height="1200"/>
		</defs>
		<clipPath id="SVGID_82_">
			<use xlink:href="#SVGID_81_"  style="overflow:visible;"/>
		</clipPath>
		<polygon class="st40" points="870,475.7 750,289.5 600,445.7 		"/>
	</g>
	<g>
		<defs>
			<rect id="SVGID_83_" width="1200" height="1200"/>
		</defs>
		<clipPath id="SVGID_84_">
			<use xlink:href="#SVGID_83_"  style="overflow:visible;"/>
		</clipPath>
		<polygon class="st41" points="450,334.5 600,445.7 750,289.5 		"/>
	</g>
	<g>
		<defs>
			<rect id="SVGID_85_" width="1200" height="1200"/>
		</defs>
		<clipPath id="SVGID_86_">
			<use xlink:href="#SVGID_85_"  style="overflow:visible;"/>
		</clipPath>
		<polygon class="st42" points="600,445.7 450,334.5 300,550.7 		"/>
	</g>
	<g>
		<defs>
			<rect id="SVGID_87_" width="1200" height="1200"/>
		</defs>
		<clipPath id="SVGID_88_">
			<use xlink:href="#SVGID_87_"  style="overflow:visible;"/>
		</clipPath>
		<polygon class="st43" points="150,199.5 300,550.7 450,334.5 		"/>
	</g>
	<g>
		<defs>
			<rect id="SVGID_89_" width="1200" height="1200"/>
		</defs>
		<clipPath id="SVGID_90_">
			<use xlink:href="#SVGID_89_"  style="overflow:visible;"/>
		</clipPath>
		<polygon class="st44" points="300,550.7 150,199.5 0,490.7 		"/>
	</g>
	<rect class="st45" width="1200" height="1200"/>
</g>
<g id="Layer_2">
	<g>
		<defs>
			<rect id="SVGID_91_" width="1200" height="1200"/>
		</defs>
		<clipPath id="SVGID_92_">
			<use xlink:href="#SVGID_91_"  style="overflow:visible;"/>
		</clipPath>
		<g class="st46">
			<polygon class="st47" points="1081.2,1305.8 1359.9,1576.5 1545.7,1342.9 			"/>
			<polygon class="st48" points="-330.7,1268.6 -126.3,1576.5 115.2,1435.8 			"/>
			<polygon class="st49" points="1359.9,1576.5 1081.2,1305.8 988.3,1576.5 			"/>
			<polygon class="st47" points="802.6,1417.3 988.3,1576.5 1081.2,1305.8 			"/>
			<polygon class="st50" points="988.3,1576.5 802.6,1417.3 616.8,1576.5 			"/>
			<polygon class="st48" points="561.1,1287.2 616.8,1576.5 802.6,1417.3 			"/>
			<polygon class="st47" points="616.8,1576.5 561.1,1287.2 245.2,1576.5 			"/>
			<polygon class="st49" points="115.2,1435.8 245.2,1576.5 561.1,1287.2 			"/>
			<polygon class="st47" points="245.2,1576.5 115.2,1435.8 -126.3,1576.5 			"/>
			<polygon class="st51" points="115.2,1435.8 -126.3,1035.1 -330.7,1268.6 			"/>
			<polygon class="st51" points="1545.7,1342.9 1359.9,1072.2 1081.2,1305.8 			"/>
			<polygon class="st52" points="-126.3,1035.1 115.2,1435.8 245.2,1202.3 			"/>
			<polygon class="st51" points="561.1,1287.2 245.2,1202.3 115.2,1435.8 			"/>
			<polygon class="st53" points="245.2,1202.3 561.1,1287.2 691.1,1053.7 			"/>
			<polygon class="st51" points="802.6,1417.3 691.1,1053.7 561.1,1287.2 			"/>
			<polygon class="st53" points="691.1,1053.7 802.6,1417.3 988.3,1165.1 			"/>
			<polygon class="st53" points="1081.2,1305.8 988.3,1165.1 802.6,1417.3 			"/>
			<polygon class="st53" points="988.3,1165.1 1081.2,1305.8 1359.9,1072.2 			"/>
			<polygon class="st54" points="1137,950.1 1359.9,1072.2 1545.7,875.8 			"/>
			<polygon class="st55" points="-312.1,875.8 -126.3,1035.1 96.6,820.1 			"/>
			<polygon class="st55" points="1359.9,1072.2 1137,950.1 988.3,1165.1 			"/>
			<polygon class="st56" points="802.6,875.8 988.3,1165.1 1137,950.1 			"/>
			<polygon class="st57" points="988.3,1165.1 802.6,875.8 691.1,1053.7 			"/>
			<polygon class="st55" points="431,875.8 691.1,1053.7 802.6,875.8 			"/>
			<polygon class="st58" points="691.1,1053.7 431,875.8 245.2,1202.3 			"/>
			<polygon class="st55" points="96.6,820.1 245.2,1202.3 431,875.8 			"/>
			<polygon class="st57" points="245.2,1202.3 96.6,820.1 -126.3,1035.1 			"/>
			<polygon class="st59" points="96.6,820.1 -126.3,642.3 -312.1,875.8 			"/>
			<polygon class="st59" points="1545.7,875.8 1359.9,698 1137,950.1 			"/>
			<polygon class="st60" points="-126.3,642.3 96.6,820.1 282.4,679.4 			"/>
			<polygon class="st61" points="431,875.8 282.4,679.4 96.6,820.1 			"/>
			<polygon class="st62" points="282.4,679.4 431,875.8 616.8,642.3 			"/>
			<polygon class="st63" points="802.6,875.8 616.8,642.3 431,875.8 			"/>
			<polygon class="st62" points="616.8,642.3 802.6,875.8 988.3,772.3 			"/>
			<polygon class="st59" points="1137,950.1 988.3,772.3 802.6,875.8 			"/>
			<polygon class="st64" points="988.3,772.3 1137,950.1 1359.9,698 			"/>
			<polygon class="st65" points="59.5,244.5 -126.3,642.3 -312.1,411.7 			"/>
			<polygon class="st66" points="1545.7,430.3 1359.9,698 1174.1,337.4 			"/>
			<polygon class="st67" points="-126.3,642.3 59.5,244.5 282.4,679.4 			"/>
			<polygon class="st68" points="431,448.9 282.4,679.4 59.5,244.5 			"/>
			<polygon class="st67" points="282.4,679.4 431,448.9 616.8,642.3 			"/>
			<polygon class="st69" points="802.6,504.6 616.8,642.3 431,448.9 			"/>
			<polygon class="st67" points="616.8,642.3 802.6,504.6 988.3,772.3 			"/>
			<polygon class="st70" points="1174.1,337.4 988.3,772.3 802.6,504.6 			"/>
			<polygon class="st67" points="988.3,772.3 1174.1,337.4 1359.9,698 			"/>
		</g>
	</g>
</g>
<g id="Layer_3">
	<g>
		<defs>
			<rect id="SVGID_93_" width="1200" height="1200"/>
		</defs>
		<clipPath id="SVGID_94_">
			<use xlink:href="#SVGID_93_"  style="overflow:visible;"/>
		</clipPath>
		<g class="st71">
			<polygon class="st47" points="43.8,1365.8 -234.9,1636.5 -420.7,1402.9 			"/>
			<polygon class="st48" points="1455.7,1328.6 1251.3,1636.5 1009.8,1495.8 			"/>
			<polygon class="st49" points="-234.9,1636.5 43.8,1365.8 136.7,1636.5 			"/>
			<polygon class="st47" points="322.4,1477.3 136.7,1636.5 43.8,1365.8 			"/>
			<polygon class="st50" points="136.7,1636.5 322.4,1477.3 508.2,1636.5 			"/>
			<polygon class="st48" points="563.9,1347.2 508.2,1636.5 322.4,1477.3 			"/>
			<polygon class="st47" points="508.2,1636.5 563.9,1347.2 879.8,1636.5 			"/>
			<polygon class="st49" points="1009.8,1495.8 879.8,1636.5 563.9,1347.2 			"/>
			<polygon class="st47" points="879.8,1636.5 1009.8,1495.8 1251.3,1636.5 			"/>
			<polygon class="st51" points="1009.8,1495.8 1251.3,1095.1 1455.7,1328.6 			"/>
			<polygon class="st51" points="-420.7,1402.9 -234.9,1132.2 43.8,1365.8 			"/>
			<polygon class="st52" points="1251.3,1095.1 1009.8,1495.8 879.8,1262.3 			"/>
			<polygon class="st51" points="563.9,1347.2 879.8,1262.3 1009.8,1495.8 			"/>
			<polygon class="st53" points="879.8,1262.3 563.9,1347.2 433.9,1113.7 			"/>
			<polygon class="st51" points="322.4,1477.3 433.9,1113.7 563.9,1347.2 			"/>
			<polygon class="st53" points="433.9,1113.7 322.4,1477.3 136.7,1225.1 			"/>
			<polygon class="st53" points="43.8,1365.8 136.7,1225.1 322.4,1477.3 			"/>
			<polygon class="st53" points="136.7,1225.1 43.8,1365.8 -234.9,1132.2 			"/>
			<polygon class="st72" points="-12,1010.1 -234.9,1132.2 -420.7,935.8 			"/>
			<polygon class="st55" points="1437.1,771.8 1251.3,1095.1 1028.4,880.1 			"/>
			<polygon class="st55" points="-234.9,1132.2 -12,1010.1 136.7,1225.1 			"/>
			<polygon class="st56" points="322.4,935.8 136.7,1225.1 -12,1010.1 			"/>
			<polygon class="st57" points="136.7,1225.1 322.4,935.8 433.9,1113.7 			"/>
			<polygon class="st55" points="694,935.8 433.9,1113.7 322.4,935.8 			"/>
			<polygon class="st58" points="433.9,1113.7 694,935.8 879.8,1262.3 			"/>
			<polygon class="st55" points="1028.4,880.1 879.8,1262.3 694,935.8 			"/>
			<polygon class="st57" points="879.8,1262.3 1028.4,880.1 1251.3,1095.1 			"/>
			<polygon class="st59" points="1028.4,880.1 1251.3,702.3 1437.1,785.8 			"/>
			<polygon class="st59" points="-420.7,935.8 -234.9,758 -12,1010.1 			"/>
			<polygon class="st60" points="1251.3,702.3 1028.4,880.1 842.6,739.4 			"/>
			<polygon class="st61" points="694,935.8 842.6,739.4 1028.4,880.1 			"/>
			<polygon class="st62" points="842.6,739.4 694,935.8 508.2,702.3 			"/>
			<polygon class="st63" points="322.4,935.8 508.2,702.3 694,935.8 			"/>
			<polygon class="st62" points="508.2,702.3 322.4,935.8 136.7,832.3 			"/>
			<polygon class="st59" points="-12,1010.1 136.7,832.3 322.4,935.8 			"/>
			<polygon class="st64" points="136.7,832.3 -12,1010.1 -234.9,758 			"/>
			<polygon class="st65" points="1065.5,304.5 1251.3,702.3 1437.1,471.7 			"/>
			<polygon class="st66" points="-420.7,490.3 -234.9,758 -49.1,397.4 			"/>
			<polygon class="st67" points="1251.3,702.3 1065.5,304.5 842.6,739.4 			"/>
			<polygon class="st68" points="694,508.9 842.6,739.4 1065.5,304.5 			"/>
			<polygon class="st67" points="842.6,739.4 694,508.9 508.2,702.3 			"/>
			<polygon class="st69" points="322.4,564.6 508.2,702.3 694,508.9 			"/>
			<polygon class="st67" points="508.2,702.3 322.4,564.6 136.7,832.3 			"/>
			<polygon class="st70" points="-49.1,397.4 136.7,832.3 322.4,564.6 			"/>
			<polygon class="st67" points="136.7,832.3 -49.1,397.4 -234.9,758 			"/>
		</g>
	</g>
</g>
</svg>
