<?xml version="1.0" encoding="utf-8"?>
<!-- Generator: Adobe Illustrator 22.0.1, SVG Export Plug-In . SVG Version: 6.00 Build 0)  -->
<svg version="1.1" xmlns="http://www.w3.org/2000/svg" xmlns:xlink="http://www.w3.org/1999/xlink" x="0px" y="0px"
	 viewBox="0 0 500 500" style="enable-background:new 0 0 500 500;" xml:space="preserve">
<style type="text/css">
	.st0{opacity:0.75;}
	.st1{fill:#B0BEC5;}
	.st2{fill:#455A64;}
	.st3{fill:#ECEFF1;}
	.st4{fill:#80CBC4;}
	.st5{fill:#E64A19;}
	.st6{fill:#FFFFFF;}
	.st7{fill:#26C6DA;}
	.st8{fill:#CFD8DC;}
	.st9{fill:none;stroke:#37474F;stroke-width:3;stroke-linecap:round;stroke-linejoin:round;stroke-miterlimit:10;}
	.st10{fill:#A5A5A5;}
	.st11{fill:#FDD835;}
	.st12{fill:#FFEE58;}
	.st13{fill:#FBC02D;}
	.st14{fill:none;stroke:#B0BEC5;stroke-width:2;stroke-linecap:round;stroke-linejoin:round;stroke-miterlimit:10;}
	.st15{fill:none;stroke:#CFD8DC;stroke-width:2;stroke-linecap:round;stroke-linejoin:round;stroke-miterlimit:10;}
	.st16{opacity:0.36;fill:#80DEEA;}
	.st17{fill:#78909C;}
</style>
<g id="BACKGROUND">
</g>
<g id="OBJECTS">
	<g>
		<g>
			<g>
				<g>
					<g>
						<g class="st0">
							<path class="st1" d="M400.3,346.3H105.7V158.8c0-6.8,5.5-12.3,12.3-12.3h270.2c6.8,0,12.3,5.5,12.3,12.3V346.3z"/>
							<path class="st1" d="M404.1,362.8H101.9c-7.3,0-13.2-5.9-13.2-13.2v-3.3h328.5v3.3C417.3,356.9,411.4,362.8,404.1,362.8z"/>
							<rect x="114.1" y="162" class="st1" width="272.2" height="168.8"/>
							<path class="st1" d="M286.3,354.6h-66.6c-4.1,0-7.3-3.3-7.3-7.3v-0.9h81.3v0.9C293.7,351.3,290.4,354.6,286.3,354.6z"/>
						</g>
						<g>
							<g>
								<path class="st2" d="M397.3,343.3H102.7V155.8c0-6.8,5.5-12.3,12.3-12.3h270.2c6.8,0,12.3,5.5,12.3,12.3V343.3z"/>
								<path class="st3" d="M401.1,359.8H98.9c-7.3,0-13.2-5.9-13.2-13.2v-3.3h328.5v3.3C414.3,353.9,408.4,359.8,401.1,359.8z"/>
								<rect x="111.1" y="159" class="st4" width="272.2" height="168.8"/>
								<path class="st1" d="M283.3,351.6h-66.6c-4.1,0-7.3-3.3-7.3-7.3v-0.9h81.3v0.9C290.7,348.3,287.4,351.6,283.3,351.6z"/>
							</g>
						</g>
					</g>
					<g>
						<path class="st5" d="M281.9,315.3h-63.8c-5,0-9-4-9-9v-10.8c0-5,4-9,9-9h63.8c5,0,9,4,9,9v10.8
							C290.9,311.3,286.9,315.3,281.9,315.3z"/>
						<g>
							<g>
								<path class="st6" d="M228,297.5h2.6l3.1,9.8h-2.3l-1.3-5c-0.3-1-0.5-2.1-0.8-3.2h-0.1c-0.2,1-0.5,2.2-0.8,3.2l-1.3,5h-2.3
									L228,297.5z M226.9,303.2h4.7v1.7h-4.7V303.2z"/>
								<path class="st6" d="M236.2,297.5h3.4c2.2,0,3.9,0.8,3.9,3.1c0,2.3-1.8,3.3-3.8,3.3h-1.2v3.3h-2.2V297.5z M239.5,302.2
									c1.2,0,1.8-0.5,1.8-1.6c0-1-0.7-1.4-1.9-1.4h-1v3H239.5z"/>
								<path class="st6" d="M246.7,297.5h3.4c2.2,0,3.9,0.8,3.9,3.1c0,2.3-1.8,3.3-3.8,3.3h-1.2v3.3h-2.2V297.5z M250,302.2
									c1.2,0,1.8-0.5,1.8-1.6c0-1-0.7-1.4-1.9-1.4h-1v3H250z"/>
								<path class="st6" d="M257.1,297.5h2.2v7.9h3.9v1.9h-6.1V297.5z"/>
								<path class="st6" d="M268.1,303.8l-2.9-6.3h2.4l0.9,2.2c0.3,0.7,0.5,1.4,0.8,2.2h0.1c0.3-0.8,0.6-1.4,0.8-2.2l0.9-2.2h2.3
									l-2.9,6.3v3.5h-2.2V303.8z"/>
							</g>
						</g>
					</g>
				</g>
				<g>
					<path class="st2" d="M297.6,265.8h-4.7c-1.6,0-2.9-1.3-2.9-2.9v-90.3c0-1.6,1.3-2.9,2.9-2.9h4.7c1.6,0,2.9,1.3,2.9,2.9v90.3
						C300.5,264.5,299.2,265.8,297.6,265.8z"/>
					<g>
						<g>
							<path class="st3" d="M410,255.7H296.3v-75.9H410c2.9,0,5.3,2.4,5.3,5.3v65.4C415.3,253.3,412.9,255.7,410,255.7z"/>
							<rect x="296.3" y="222" class="st1" width="119" height="18.2"/>
						</g>
						<g>
							<path class="st2" d="M309.3,202.8h-3.2c-0.5,0-0.8-0.1-1-0.3c-0.2-0.2-0.3-0.5-0.3-1v-7.9c0-0.5,0.1-0.8,0.3-1
								c0.2-0.2,0.5-0.3,1-0.3h3.4c0.5,0,0.9,0,1.3,0.1s0.7,0.2,1,0.4c0.2,0.1,0.5,0.3,0.7,0.6s0.3,0.5,0.4,0.8
								c0.1,0.3,0.2,0.6,0.2,0.9c0,1.1-0.5,1.8-1.6,2.3c1.4,0.4,2.1,1.3,2.1,2.6c0,0.6-0.2,1.1-0.5,1.6s-0.7,0.8-1.2,1
								c-0.3,0.1-0.7,0.2-1.1,0.3C310.4,202.8,309.9,202.8,309.3,202.8z M307,193.9v2.7h2c0.5,0,0.9-0.1,1.2-0.2s0.5-0.3,0.7-0.6
								c0.1-0.2,0.2-0.4,0.2-0.7c0-0.5-0.2-0.9-0.6-1.1c-0.4-0.2-1-0.3-1.7-0.3H307z M309.2,198.1H307v3.1h2.3
								c1.4,0,2.2-0.5,2.2-1.6c0-0.5-0.2-0.9-0.6-1.2C310.5,198.2,309.9,198.1,309.2,198.1z"/>
							<path class="st2" d="M321.7,201.6l-0.5-1.3h-4.3l-0.5,1.4c-0.2,0.5-0.4,0.9-0.5,1.1c-0.1,0.2-0.4,0.3-0.7,0.3
								c-0.3,0-0.5-0.1-0.7-0.3c-0.2-0.2-0.3-0.4-0.3-0.7c0-0.1,0-0.3,0.1-0.4c0-0.2,0.1-0.4,0.2-0.6l2.7-6.9
								c0.1-0.2,0.2-0.4,0.3-0.7c0.1-0.3,0.2-0.5,0.3-0.7c0.1-0.2,0.3-0.3,0.5-0.4c0.2-0.1,0.4-0.2,0.7-0.2c0.3,0,0.5,0.1,0.7,0.2
								c0.2,0.1,0.4,0.3,0.5,0.4c0.1,0.2,0.2,0.4,0.3,0.6c0.1,0.2,0.2,0.5,0.3,0.8l2.8,6.8c0.2,0.5,0.3,0.9,0.3,1.1
								c0,0.2-0.1,0.5-0.3,0.7c-0.2,0.2-0.5,0.3-0.7,0.3c-0.2,0-0.3,0-0.4-0.1c-0.1-0.1-0.2-0.1-0.3-0.2c-0.1-0.1-0.2-0.3-0.3-0.5
								S321.7,201.8,321.7,201.6z M317.4,198.7h3.2l-1.6-4.4L317.4,198.7z"/>
							<path class="st2" d="M328.3,193.4l4.1,6.2v-6.3c0-0.4,0.1-0.7,0.3-0.9c0.2-0.2,0.4-0.3,0.7-0.3c0.3,0,0.6,0.1,0.7,0.3
								c0.2,0.2,0.3,0.5,0.3,0.9v8.3c0,0.9-0.4,1.4-1.2,1.4c-0.2,0-0.4,0-0.5-0.1c-0.2-0.1-0.3-0.1-0.4-0.3
								c-0.1-0.1-0.3-0.3-0.4-0.4c-0.1-0.2-0.2-0.3-0.3-0.5l-4-6.2v6.2c0,0.4-0.1,0.7-0.3,0.9s-0.4,0.3-0.7,0.3
								c-0.3,0-0.5-0.1-0.7-0.3c-0.2-0.2-0.3-0.5-0.3-0.9v-8.2c0-0.3,0-0.6,0.1-0.8c0.1-0.2,0.2-0.4,0.5-0.5
								c0.2-0.1,0.4-0.2,0.7-0.2c0.2,0,0.4,0,0.5,0.1s0.3,0.1,0.4,0.3c0.1,0.1,0.2,0.2,0.3,0.4C328.1,193,328.2,193.2,328.3,193.4z"
								/>
							<path class="st2" d="M338.9,193.4v3.7l4.2-4.4c0.2-0.2,0.4-0.4,0.5-0.5s0.3-0.2,0.6-0.2c0.3,0,0.6,0.1,0.7,0.3
								c0.2,0.2,0.3,0.4,0.3,0.7c0,0.3-0.2,0.6-0.5,0.9l-2.6,2.5l3,4.3c0.2,0.3,0.4,0.6,0.5,0.8c0.1,0.2,0.2,0.4,0.2,0.7
								c0,0.2-0.1,0.4-0.3,0.6c-0.2,0.2-0.4,0.3-0.8,0.3c-0.3,0-0.5-0.1-0.7-0.2s-0.3-0.3-0.5-0.5c-0.1-0.2-0.2-0.4-0.3-0.6
								l-2.5-3.9l-1.8,1.7v2.2c0,0.4-0.1,0.8-0.3,1c-0.2,0.2-0.5,0.3-0.8,0.3c-0.2,0-0.4,0-0.5-0.1c-0.2-0.1-0.3-0.2-0.4-0.4
								c-0.1-0.1-0.1-0.3-0.1-0.5c0-0.2,0-0.4,0-0.8v-7.9c0-0.4,0.1-0.8,0.3-1c0.2-0.2,0.4-0.3,0.8-0.3c0.3,0,0.6,0.1,0.8,0.3
								S338.9,192.9,338.9,193.4z"/>
						</g>
						<g>
							<path class="st6" d="M310.4,234.2H309V229l-1.6,0.5v-1.1l2.8-1h0.1V234.2z"/>
							<path class="st6" d="M317.3,234.2h-4.7v-0.9l2.2-2.4c0.2-0.2,0.3-0.3,0.4-0.5c0.1-0.2,0.2-0.3,0.3-0.4
								c0.1-0.1,0.1-0.2,0.2-0.4c0-0.1,0-0.2,0-0.3c0-0.3-0.1-0.5-0.2-0.7c-0.2-0.2-0.4-0.3-0.7-0.3c-0.2,0-0.3,0-0.4,0.1
								c-0.1,0.1-0.2,0.1-0.3,0.2c-0.1,0.1-0.1,0.2-0.2,0.4c0,0.1-0.1,0.3-0.1,0.5h-1.4c0-0.3,0.1-0.6,0.2-0.9s0.3-0.5,0.5-0.7
								s0.5-0.4,0.8-0.5c0.3-0.1,0.6-0.2,1-0.2c0.4,0,0.7,0,1,0.1c0.3,0.1,0.5,0.2,0.7,0.4c0.2,0.2,0.3,0.4,0.4,0.6
								c0.1,0.2,0.1,0.5,0.1,0.8c0,0.2,0,0.5-0.1,0.7c-0.1,0.2-0.2,0.4-0.3,0.6c-0.1,0.2-0.3,0.4-0.5,0.6c-0.2,0.2-0.4,0.4-0.6,0.7
								l-1.2,1.3h3V234.2z"/>
							<path class="st6" d="M319.5,230.2h0.7c0.3,0,0.6-0.1,0.8-0.3c0.2-0.2,0.2-0.4,0.2-0.7c0-0.1,0-0.2-0.1-0.4
								c0-0.1-0.1-0.2-0.2-0.3s-0.2-0.1-0.3-0.2c-0.1,0-0.3-0.1-0.4-0.1c-0.1,0-0.2,0-0.4,0.1c-0.1,0-0.2,0.1-0.3,0.2
								c-0.1,0.1-0.1,0.1-0.2,0.2c0,0.1-0.1,0.2-0.1,0.3h-1.4c0-0.3,0.1-0.5,0.2-0.8s0.3-0.4,0.5-0.6s0.4-0.3,0.7-0.4
								c0.3-0.1,0.6-0.1,0.9-0.1c0.3,0,0.7,0,0.9,0.1c0.3,0.1,0.5,0.2,0.7,0.4c0.2,0.2,0.4,0.4,0.5,0.6c0.1,0.2,0.2,0.5,0.2,0.8
								c0,0.1,0,0.3-0.1,0.4c0,0.1-0.1,0.3-0.2,0.4s-0.2,0.2-0.3,0.4c-0.1,0.1-0.3,0.2-0.4,0.3c0.4,0.1,0.7,0.3,0.9,0.6
								c0.2,0.3,0.3,0.6,0.3,1c0,0.3-0.1,0.6-0.2,0.9c-0.1,0.3-0.3,0.5-0.5,0.6c-0.2,0.2-0.5,0.3-0.8,0.4s-0.6,0.1-1,0.1
								c-0.3,0-0.6,0-0.9-0.1s-0.5-0.2-0.7-0.4c-0.2-0.2-0.4-0.4-0.5-0.6s-0.2-0.5-0.2-0.9h1.4c0,0.1,0,0.2,0.1,0.4
								c0.1,0.1,0.1,0.2,0.2,0.3c0.1,0.1,0.2,0.1,0.3,0.2c0.1,0,0.3,0.1,0.4,0.1c0.2,0,0.3,0,0.4-0.1c0.1,0,0.2-0.1,0.3-0.2
								s0.2-0.2,0.2-0.3c0-0.1,0.1-0.2,0.1-0.4c0-0.2,0-0.3-0.1-0.5c-0.1-0.1-0.1-0.2-0.2-0.3c-0.1-0.1-0.2-0.1-0.4-0.2
								c-0.1,0-0.3-0.1-0.5-0.1h-0.7V230.2z"/>
							<path class="st6" d="M327.7,231.6h0.8v1.1h-0.8v1.5h-1.4v-1.5h-2.8l-0.1-0.9l2.9-4.5h1.4V231.6z M324.8,231.6h1.5v-2.4
								l-0.1,0.2L324.8,231.6z"/>
							<path class="st6" d="M331.9,230.8l0.4-3.5h3.9v1.1h-2.7l-0.2,1.5c0,0,0.1-0.1,0.2-0.1c0.1,0,0.1-0.1,0.2-0.1
								c0.1,0,0.2,0,0.3-0.1c0.1,0,0.2,0,0.3,0c0.3,0,0.6,0.1,0.9,0.2s0.5,0.3,0.7,0.5s0.3,0.4,0.4,0.7c0.1,0.3,0.1,0.6,0.1,1
								c0,0.3,0,0.6-0.1,0.9c-0.1,0.3-0.2,0.5-0.4,0.7c-0.2,0.2-0.4,0.4-0.7,0.5c-0.3,0.1-0.6,0.2-1,0.2c-0.3,0-0.6,0-0.9-0.1
								c-0.3-0.1-0.5-0.2-0.7-0.4c-0.2-0.2-0.4-0.4-0.5-0.6c-0.1-0.2-0.2-0.5-0.2-0.9h1.4c0,0.3,0.1,0.5,0.3,0.7
								c0.2,0.2,0.4,0.2,0.7,0.2c0.2,0,0.3,0,0.4-0.1s0.2-0.2,0.3-0.3s0.1-0.2,0.2-0.4s0.1-0.3,0.1-0.5c0-0.2,0-0.3-0.1-0.5
								c0-0.1-0.1-0.3-0.2-0.4c-0.1-0.1-0.2-0.2-0.3-0.2c-0.1-0.1-0.3-0.1-0.5-0.1c-0.1,0-0.2,0-0.3,0s-0.2,0.1-0.2,0.1
								s-0.1,0.1-0.2,0.1c-0.1,0-0.1,0.1-0.2,0.1L331.9,230.8z"/>
							<path class="st6" d="M340.9,227.3v1.1h-0.1c-0.3,0-0.6,0-0.9,0.1s-0.5,0.2-0.7,0.4s-0.3,0.3-0.5,0.6
								c-0.1,0.2-0.2,0.5-0.2,0.7c0.2-0.2,0.4-0.3,0.6-0.4c0.2-0.1,0.5-0.2,0.8-0.2c0.3,0,0.6,0.1,0.9,0.2c0.2,0.1,0.4,0.3,0.6,0.5
								c0.2,0.2,0.3,0.5,0.4,0.7s0.1,0.6,0.1,0.9c0,0.3-0.1,0.6-0.2,0.9s-0.3,0.5-0.5,0.7c-0.2,0.2-0.4,0.4-0.7,0.5
								c-0.3,0.1-0.6,0.2-1,0.2c-0.4,0-0.7-0.1-1-0.2s-0.6-0.3-0.8-0.6c-0.2-0.2-0.4-0.5-0.5-0.9c-0.1-0.3-0.2-0.7-0.2-1.1V231
								c0-0.6,0.1-1.1,0.2-1.5s0.4-0.9,0.7-1.2c0.3-0.3,0.7-0.6,1.1-0.8c0.4-0.2,0.9-0.3,1.5-0.3H340.9z M339.6,230.7
								c-0.1,0-0.2,0-0.3,0c-0.1,0-0.2,0.1-0.3,0.1s-0.2,0.1-0.2,0.2s-0.1,0.2-0.2,0.2v0.4c0,0.2,0,0.5,0.1,0.6
								c0.1,0.2,0.1,0.3,0.2,0.5c0.1,0.1,0.2,0.2,0.3,0.3c0.1,0.1,0.3,0.1,0.4,0.1c0.1,0,0.3,0,0.4-0.1c0.1-0.1,0.2-0.1,0.3-0.3
								s0.2-0.2,0.2-0.4c0-0.2,0.1-0.3,0.1-0.5c0-0.2,0-0.4-0.1-0.5s-0.1-0.3-0.2-0.4c-0.1-0.1-0.2-0.2-0.3-0.3
								C339.9,230.7,339.7,230.7,339.6,230.7z"/>
							<path class="st6" d="M347.4,228.1l-2.7,6.1h-1.4l2.7-5.8h-3.4v-1.1h4.9V228.1z"/>
							<path class="st6" d="M352.8,229.2c0,0.3-0.1,0.6-0.3,0.9s-0.4,0.5-0.7,0.6c0.3,0.2,0.6,0.4,0.8,0.7s0.3,0.6,0.3,1
								c0,0.3-0.1,0.6-0.2,0.9c-0.1,0.2-0.3,0.5-0.5,0.6c-0.2,0.2-0.5,0.3-0.7,0.4s-0.6,0.1-0.9,0.1c-0.3,0-0.6,0-0.9-0.1
								s-0.5-0.2-0.7-0.4c-0.2-0.2-0.4-0.4-0.5-0.6s-0.2-0.5-0.2-0.9c0-0.4,0.1-0.7,0.3-1c0.2-0.3,0.5-0.5,0.8-0.7
								c-0.3-0.2-0.5-0.4-0.7-0.6s-0.2-0.6-0.2-0.9c0-0.3,0.1-0.6,0.2-0.8s0.3-0.4,0.5-0.6c0.2-0.2,0.4-0.3,0.7-0.4
								c0.3-0.1,0.6-0.1,0.9-0.1c0.3,0,0.6,0,0.9,0.1c0.3,0.1,0.5,0.2,0.7,0.4c0.2,0.2,0.3,0.4,0.5,0.6
								C352.7,228.6,352.8,228.9,352.8,229.2z M351.5,232.2c0-0.2,0-0.3-0.1-0.4c0-0.1-0.1-0.2-0.2-0.3c-0.1-0.1-0.2-0.1-0.3-0.2
								c-0.1,0-0.2-0.1-0.4-0.1c-0.1,0-0.3,0-0.4,0.1c-0.1,0-0.2,0.1-0.3,0.2c-0.1,0.1-0.1,0.2-0.2,0.3c0,0.1-0.1,0.3-0.1,0.4
								c0,0.2,0,0.3,0.1,0.4s0.1,0.2,0.2,0.3c0.1,0.1,0.2,0.1,0.3,0.2c0.1,0,0.3,0.1,0.4,0.1c0.3,0,0.5-0.1,0.7-0.3
								C351.5,232.8,351.5,232.5,351.5,232.2z M351.4,229.2c0-0.3-0.1-0.5-0.2-0.6c-0.1-0.2-0.3-0.2-0.6-0.2c-0.3,0-0.5,0.1-0.6,0.2
								c-0.1,0.2-0.2,0.4-0.2,0.7c0,0.3,0.1,0.5,0.2,0.7s0.3,0.3,0.6,0.3c0.3,0,0.5-0.1,0.6-0.3
								C351.3,229.7,351.4,229.5,351.4,229.2z"/>
							<path class="st6" d="M359.6,234.2h-1.4V229l-1.6,0.5v-1.1l2.8-1h0.1V234.2z"/>
							<path class="st6" d="M366.5,234.2h-4.7v-0.9l2.2-2.4c0.2-0.2,0.3-0.3,0.4-0.5c0.1-0.2,0.2-0.3,0.3-0.4
								c0.1-0.1,0.1-0.2,0.2-0.4c0-0.1,0-0.2,0-0.3c0-0.3-0.1-0.5-0.2-0.7c-0.2-0.2-0.4-0.3-0.7-0.3c-0.2,0-0.3,0-0.4,0.1
								c-0.1,0.1-0.2,0.1-0.3,0.2c-0.1,0.1-0.1,0.2-0.2,0.4c0,0.1-0.1,0.3-0.1,0.5h-1.4c0-0.3,0.1-0.6,0.2-0.9s0.3-0.5,0.5-0.7
								s0.5-0.4,0.8-0.5c0.3-0.1,0.6-0.2,1-0.2c0.4,0,0.7,0,1,0.1c0.3,0.1,0.5,0.2,0.7,0.4c0.2,0.2,0.3,0.4,0.4,0.6
								c0.1,0.2,0.1,0.5,0.1,0.8c0,0.2,0,0.5-0.1,0.7c-0.1,0.2-0.2,0.4-0.3,0.6c-0.1,0.2-0.3,0.4-0.5,0.6c-0.2,0.2-0.4,0.4-0.6,0.7
								l-1.2,1.3h3V234.2z"/>
							<path class="st6" d="M368.7,230.2h0.7c0.3,0,0.6-0.1,0.8-0.3c0.2-0.2,0.2-0.4,0.2-0.7c0-0.1,0-0.2-0.1-0.4
								c0-0.1-0.1-0.2-0.2-0.3s-0.2-0.1-0.3-0.2c-0.1,0-0.3-0.1-0.4-0.1c-0.1,0-0.2,0-0.4,0.1c-0.1,0-0.2,0.1-0.3,0.2
								c-0.1,0.1-0.1,0.1-0.2,0.2c0,0.1-0.1,0.2-0.1,0.3h-1.4c0-0.3,0.1-0.5,0.2-0.8s0.3-0.4,0.5-0.6s0.4-0.3,0.7-0.4
								c0.3-0.1,0.6-0.1,0.9-0.1c0.3,0,0.7,0,0.9,0.1c0.3,0.1,0.5,0.2,0.7,0.4c0.2,0.2,0.4,0.4,0.5,0.6c0.1,0.2,0.2,0.5,0.2,0.8
								c0,0.1,0,0.3-0.1,0.4c0,0.1-0.1,0.3-0.2,0.4s-0.2,0.2-0.3,0.4c-0.1,0.1-0.3,0.2-0.4,0.3c0.4,0.1,0.7,0.3,0.9,0.6
								c0.2,0.3,0.3,0.6,0.3,1c0,0.3-0.1,0.6-0.2,0.9c-0.1,0.3-0.3,0.5-0.5,0.6c-0.2,0.2-0.5,0.3-0.8,0.4s-0.6,0.1-1,0.1
								c-0.3,0-0.6,0-0.9-0.1s-0.5-0.2-0.7-0.4c-0.2-0.2-0.4-0.4-0.5-0.6s-0.2-0.5-0.2-0.9h1.4c0,0.1,0,0.2,0.1,0.4
								c0.1,0.1,0.1,0.2,0.2,0.3c0.1,0.1,0.2,0.1,0.3,0.2c0.1,0,0.3,0.1,0.4,0.1c0.2,0,0.3,0,0.4-0.1c0.1,0,0.2-0.1,0.3-0.2
								s0.2-0.2,0.2-0.3c0-0.1,0.1-0.2,0.1-0.4c0-0.2,0-0.3-0.1-0.5c-0.1-0.1-0.1-0.2-0.2-0.3c-0.1-0.1-0.2-0.1-0.4-0.2
								c-0.1,0-0.3-0.1-0.5-0.1h-0.7V230.2z"/>
							<path class="st6" d="M376.9,231.6h0.8v1.1h-0.8v1.5h-1.4v-1.5h-2.8l-0.1-0.9l2.9-4.5h1.4V231.6z M374,231.6h1.5v-2.4
								l-0.1,0.2L374,231.6z"/>
							<path class="st6" d="M381.1,230.8l0.4-3.5h3.9v1.1h-2.7l-0.2,1.5c0,0,0.1-0.1,0.2-0.1c0.1,0,0.1-0.1,0.2-0.1
								c0.1,0,0.2,0,0.3-0.1c0.1,0,0.2,0,0.3,0c0.3,0,0.6,0.1,0.9,0.2s0.5,0.3,0.7,0.5s0.3,0.4,0.4,0.7c0.1,0.3,0.1,0.6,0.1,1
								c0,0.3,0,0.6-0.1,0.9c-0.1,0.3-0.2,0.5-0.4,0.7c-0.2,0.2-0.4,0.4-0.7,0.5c-0.3,0.1-0.6,0.2-1,0.2c-0.3,0-0.6,0-0.9-0.1
								c-0.3-0.1-0.5-0.2-0.7-0.4c-0.2-0.2-0.4-0.4-0.5-0.6c-0.1-0.2-0.2-0.5-0.2-0.9h1.4c0,0.3,0.1,0.5,0.3,0.7
								c0.2,0.2,0.4,0.2,0.7,0.2c0.2,0,0.3,0,0.4-0.1s0.2-0.2,0.3-0.3s0.1-0.2,0.2-0.4s0.1-0.3,0.1-0.5c0-0.2,0-0.3-0.1-0.5
								c0-0.1-0.1-0.3-0.2-0.4c-0.1-0.1-0.2-0.2-0.3-0.2c-0.1-0.1-0.3-0.1-0.5-0.1c-0.1,0-0.2,0-0.3,0s-0.2,0.1-0.2,0.1
								s-0.1,0.1-0.2,0.1c-0.1,0-0.1,0.1-0.2,0.1L381.1,230.8z"/>
							<path class="st6" d="M390.1,227.3v1.1H390c-0.3,0-0.6,0-0.9,0.1s-0.5,0.2-0.7,0.4s-0.3,0.3-0.5,0.6c-0.1,0.2-0.2,0.5-0.2,0.7
								c0.2-0.2,0.4-0.3,0.6-0.4c0.2-0.1,0.5-0.2,0.8-0.2c0.3,0,0.6,0.1,0.9,0.2c0.2,0.1,0.4,0.3,0.6,0.5c0.2,0.2,0.3,0.5,0.4,0.7
								s0.1,0.6,0.1,0.9c0,0.3-0.1,0.6-0.2,0.9s-0.3,0.5-0.5,0.7c-0.2,0.2-0.4,0.4-0.7,0.5c-0.3,0.1-0.6,0.2-1,0.2
								c-0.4,0-0.7-0.1-1-0.2s-0.6-0.3-0.8-0.6c-0.2-0.2-0.4-0.5-0.5-0.9c-0.1-0.3-0.2-0.7-0.2-1.1V231c0-0.6,0.1-1.1,0.2-1.5
								s0.4-0.9,0.7-1.2c0.3-0.3,0.7-0.6,1.1-0.8c0.4-0.2,0.9-0.3,1.5-0.3H390.1z M388.8,230.7c-0.1,0-0.2,0-0.3,0
								c-0.1,0-0.2,0.1-0.3,0.1s-0.2,0.1-0.2,0.2s-0.1,0.2-0.2,0.2v0.4c0,0.2,0,0.5,0.1,0.6c0.1,0.2,0.1,0.3,0.2,0.5
								c0.1,0.1,0.2,0.2,0.3,0.3c0.1,0.1,0.3,0.1,0.4,0.1c0.1,0,0.3,0,0.4-0.1c0.1-0.1,0.2-0.1,0.3-0.3s0.2-0.2,0.2-0.4
								c0-0.2,0.1-0.3,0.1-0.5c0-0.2,0-0.4-0.1-0.5s-0.1-0.3-0.2-0.4c-0.1-0.1-0.2-0.2-0.3-0.3C389.1,230.7,388.9,230.7,388.8,230.7
								z"/>
							<path class="st6" d="M396.6,228.1l-2.7,6.1h-1.4l2.7-5.8h-3.4v-1.1h4.9V228.1z"/>
							<path class="st6" d="M402,229.2c0,0.3-0.1,0.6-0.3,0.9s-0.4,0.5-0.7,0.6c0.3,0.2,0.6,0.4,0.8,0.7s0.3,0.6,0.3,1
								c0,0.3-0.1,0.6-0.2,0.9c-0.1,0.2-0.3,0.5-0.5,0.6c-0.2,0.2-0.5,0.3-0.7,0.4s-0.6,0.1-0.9,0.1c-0.3,0-0.6,0-0.9-0.1
								s-0.5-0.2-0.7-0.4c-0.2-0.2-0.4-0.4-0.5-0.6s-0.2-0.5-0.2-0.9c0-0.4,0.1-0.7,0.3-1c0.2-0.3,0.5-0.5,0.8-0.7
								c-0.3-0.2-0.5-0.4-0.7-0.6s-0.2-0.6-0.2-0.9c0-0.3,0.1-0.6,0.2-0.8s0.3-0.4,0.5-0.6c0.2-0.2,0.4-0.3,0.7-0.4
								c0.3-0.1,0.6-0.1,0.9-0.1c0.3,0,0.6,0,0.9,0.1c0.3,0.1,0.5,0.2,0.7,0.4c0.2,0.2,0.3,0.4,0.5,0.6
								C401.9,228.6,402,228.9,402,229.2z M400.8,232.2c0-0.2,0-0.3-0.1-0.4c0-0.1-0.1-0.2-0.2-0.3c-0.1-0.1-0.2-0.1-0.3-0.2
								c-0.1,0-0.2-0.1-0.4-0.1c-0.1,0-0.3,0-0.4,0.1c-0.1,0-0.2,0.1-0.3,0.2c-0.1,0.1-0.1,0.2-0.2,0.3c0,0.1-0.1,0.3-0.1,0.4
								c0,0.2,0,0.3,0.1,0.4s0.1,0.2,0.2,0.3c0.1,0.1,0.2,0.1,0.3,0.2c0.1,0,0.3,0.1,0.4,0.1c0.3,0,0.5-0.1,0.7-0.3
								C400.7,232.8,400.8,232.5,400.8,232.2z M400.6,229.2c0-0.3-0.1-0.5-0.2-0.6c-0.1-0.2-0.3-0.2-0.6-0.2c-0.3,0-0.5,0.1-0.6,0.2
								c-0.1,0.2-0.2,0.4-0.2,0.7c0,0.3,0.1,0.5,0.2,0.7s0.3,0.3,0.6,0.3c0.3,0,0.5-0.1,0.6-0.3
								C400.5,229.7,400.6,229.5,400.6,229.2z"/>
						</g>
						<g>
							
								<ellipse transform="matrix(0.5547 -0.8321 0.8321 0.5547 10.3963 418.7333)" class="st5" cx="396.4" cy="199.7" rx="10.5" ry="10.5"/>
							
								<ellipse transform="matrix(0.9443 -0.3292 0.3292 0.9443 -44.2172 138.1289)" class="st7" cx="385.8" cy="199.7" rx="10.5" ry="10.5"/>
						</g>
					</g>
					<rect x="296.3" y="179.8" class="st8" width="5.2" height="75.9"/>
					<line class="st9" x1="295.3" y1="177.1" x2="295.3" y2="258"/>
				</g>
				<g>
					<g>
						<g class="st0">
							<circle class="st10" cx="280.2" cy="144.1" r="22.4"/>
							
								<ellipse transform="matrix(0.151 -0.9885 0.9885 0.151 95.4768 399.3752)" class="st10" cx="280.2" cy="144.1" rx="18.7" ry="18.7"/>
							<path class="st10" d="M282.9,149.3c0-0.4,0-0.7-0.1-1c-0.1-0.3-0.3-0.5-0.5-0.8c-0.2-0.2-0.5-0.4-0.9-0.6
								c-0.3-0.2-0.8-0.4-1.3-0.6c-0.9-0.3-1.7-0.7-2.4-1c-0.7-0.4-1.3-0.8-1.8-1.2s-0.9-1-1.2-1.6s-0.4-1.4-0.4-2.2
								c0-0.8,0.1-1.4,0.4-2.1c0.2-0.6,0.6-1.2,1.1-1.6c0.5-0.5,1-0.8,1.7-1.1c0.6-0.3,1.4-0.5,2.2-0.6V132h2.1v2.9
								c0.8,0.1,1.5,0.3,2.1,0.6c0.6,0.3,1.1,0.8,1.6,1.3c0.4,0.5,0.8,1.1,1,1.9c0.2,0.7,0.4,1.5,0.4,2.4h-3.8
								c0-1.1-0.2-1.9-0.7-2.4c-0.4-0.5-1-0.8-1.8-0.8c-0.4,0-0.7,0.1-1,0.2c-0.3,0.1-0.5,0.3-0.7,0.5c-0.2,0.2-0.3,0.5-0.4,0.7
								c-0.1,0.3-0.1,0.6-0.1,0.9s0,0.6,0.1,0.9c0.1,0.3,0.2,0.5,0.5,0.7c0.2,0.2,0.5,0.4,0.9,0.6c0.4,0.2,0.8,0.4,1.3,0.6
								c0.9,0.3,1.6,0.7,2.3,1.1c0.7,0.4,1.3,0.8,1.8,1.3s0.9,1,1.2,1.7c0.3,0.6,0.4,1.4,0.4,2.2c0,0.8-0.1,1.5-0.4,2.1
								c-0.3,0.6-0.6,1.2-1.1,1.6c-0.5,0.5-1,0.8-1.7,1.1c-0.6,0.3-1.4,0.5-2.2,0.5v2.6h-2.1v-2.6c-0.7-0.1-1.4-0.3-2.1-0.5
								c-0.7-0.3-1.3-0.6-1.8-1.1s-1-1.1-1.3-1.9c-0.3-0.8-0.5-1.7-0.5-2.7h3.8c0,0.6,0.1,1.2,0.2,1.6c0.2,0.4,0.4,0.8,0.7,1
								c0.3,0.3,0.6,0.4,0.9,0.5c0.3,0.1,0.7,0.2,1.1,0.2c0.4,0,0.8-0.1,1.1-0.2s0.6-0.3,0.8-0.5s0.4-0.4,0.5-0.7
								C282.9,149.9,282.9,149.6,282.9,149.3z"/>
						</g>
						<g>
							<g>
								<circle class="st11" cx="276.2" cy="140.1" r="22.4"/>
								
									<ellipse transform="matrix(0.151 -0.9885 0.9885 0.151 96.035 392.0251)" class="st12" cx="276.2" cy="140.1" rx="18.7" ry="18.7"/>
								<g>
									<path class="st13" d="M278.9,145.3c0-0.4,0-0.7-0.1-1c-0.1-0.3-0.3-0.5-0.5-0.8c-0.2-0.2-0.5-0.4-0.9-0.6
										c-0.3-0.2-0.8-0.4-1.3-0.6c-0.9-0.3-1.7-0.7-2.4-1c-0.7-0.4-1.3-0.8-1.8-1.2s-0.9-1-1.2-1.6s-0.4-1.4-0.4-2.2
										c0-0.8,0.1-1.4,0.4-2.1c0.2-0.6,0.6-1.2,1.1-1.6c0.5-0.5,1-0.8,1.7-1.1c0.6-0.3,1.4-0.5,2.2-0.6V128h2.1v2.9
										c0.8,0.1,1.5,0.3,2.1,0.6c0.6,0.3,1.1,0.8,1.6,1.3c0.4,0.5,0.8,1.1,1,1.9c0.2,0.7,0.4,1.5,0.4,2.4h-3.8
										c0-1.1-0.2-1.9-0.7-2.4c-0.4-0.5-1-0.8-1.8-0.8c-0.4,0-0.7,0.1-1,0.2c-0.3,0.1-0.5,0.3-0.7,0.5c-0.2,0.2-0.3,0.5-0.4,0.7
										c-0.1,0.3-0.1,0.6-0.1,0.9s0,0.6,0.1,0.9c0.1,0.3,0.2,0.5,0.5,0.7c0.2,0.2,0.5,0.4,0.9,0.6c0.4,0.2,0.8,0.4,1.3,0.6
										c0.9,0.3,1.6,0.7,2.3,1.1c0.7,0.4,1.3,0.8,1.8,1.3s0.9,1,1.2,1.7c0.3,0.6,0.4,1.4,0.4,2.2c0,0.8-0.1,1.5-0.4,2.1
										c-0.3,0.6-0.6,1.2-1.1,1.6c-0.5,0.5-1,0.8-1.7,1.1c-0.6,0.3-1.4,0.5-2.2,0.5v2.6h-2.1v-2.6c-0.7-0.1-1.4-0.3-2.1-0.5
										c-0.7-0.3-1.3-0.6-1.8-1.1s-1-1.1-1.3-1.9c-0.3-0.8-0.5-1.7-0.5-2.7h3.8c0,0.6,0.1,1.2,0.2,1.6c0.2,0.4,0.4,0.8,0.7,1
										c0.3,0.3,0.6,0.4,0.9,0.5c0.3,0.1,0.7,0.2,1.1,0.2c0.4,0,0.8-0.1,1.1-0.2s0.6-0.3,0.8-0.5s0.4-0.4,0.5-0.7
										C278.9,145.9,278.9,145.6,278.9,145.3z"/>
								</g>
							</g>
						</g>
					</g>
					<g>
						<g class="st0">
							<circle class="st1" cx="310.5" cy="112.6" r="31.2"/>
							
								<ellipse transform="matrix(0.1615 -0.9869 0.9869 0.1615 149.249 400.7936)" class="st1" cx="310.5" cy="112.6" rx="26.1" ry="26.1"/>
							<path class="st1" d="M314.2,119.8c0-0.5-0.1-1-0.2-1.4c-0.1-0.4-0.4-0.8-0.7-1.1s-0.7-0.6-1.2-0.9c-0.5-0.3-1.1-0.5-1.8-0.8
								c-1.2-0.5-2.3-0.9-3.3-1.4c-1-0.5-1.8-1.1-2.5-1.7c-0.7-0.7-1.2-1.4-1.6-2.3c-0.4-0.9-0.6-1.9-0.6-3.1c0-1,0.2-2,0.5-2.9
								c0.3-0.9,0.8-1.6,1.5-2.3s1.4-1.2,2.3-1.6c0.9-0.4,1.9-0.7,3-0.8v-3.9h3v4c1.1,0.1,2,0.4,2.9,0.9c0.9,0.5,1.6,1,2.2,1.8
								c0.6,0.7,1.1,1.6,1.4,2.6c0.3,1,0.5,2.1,0.5,3.3h-5.3c0-1.5-0.3-2.6-0.9-3.3c-0.6-0.7-1.4-1.1-2.4-1.1c-0.6,0-1,0.1-1.4,0.2
								s-0.7,0.4-1,0.7c-0.3,0.3-0.4,0.6-0.6,1c-0.1,0.4-0.2,0.8-0.2,1.3s0.1,0.9,0.2,1.2c0.1,0.4,0.3,0.7,0.6,1
								c0.3,0.3,0.7,0.6,1.2,0.9c0.5,0.3,1.1,0.6,1.9,0.9c1.2,0.5,2.3,1,3.3,1.5c1,0.5,1.8,1.1,2.5,1.7s1.2,1.4,1.6,2.3
								s0.6,1.9,0.6,3.1c0,1.1-0.2,2.1-0.5,2.9c-0.4,0.9-0.8,1.6-1.5,2.2c-0.6,0.6-1.4,1.1-2.3,1.5s-1.9,0.6-3,0.7v3.7h-2.9v-3.7
								c-1-0.1-2-0.4-3-0.7c-1-0.4-1.8-0.9-2.5-1.6c-0.7-0.7-1.3-1.6-1.8-2.6c-0.4-1.1-0.7-2.3-0.7-3.8h5.3c0,0.9,0.1,1.6,0.3,2.2
								c0.2,0.6,0.5,1.1,0.9,1.4c0.4,0.4,0.8,0.6,1.3,0.7c0.5,0.1,1,0.2,1.5,0.2c0.6,0,1.1-0.1,1.5-0.2c0.4-0.2,0.8-0.4,1.1-0.7
								c0.3-0.3,0.5-0.6,0.7-1C314.1,120.7,314.2,120.3,314.2,119.8z"/>
						</g>
						<g>
							<g>
								<circle class="st11" cx="307.5" cy="109.6" r="31.2"/>
								
									<ellipse transform="matrix(0.1615 -0.9869 0.9869 0.1615 149.6941 395.3175)" class="st12" cx="307.5" cy="109.6" rx="26.1" ry="26.1"/>
								<g>
									<path class="st13" d="M311.2,116.8c0-0.5-0.1-1-0.2-1.4c-0.1-0.4-0.4-0.8-0.7-1.1s-0.7-0.6-1.2-0.9
										c-0.5-0.3-1.1-0.5-1.8-0.8c-1.2-0.5-2.3-0.9-3.3-1.4c-1-0.5-1.8-1.1-2.5-1.7c-0.7-0.7-1.2-1.4-1.6-2.3
										c-0.4-0.9-0.6-1.9-0.6-3.1c0-1,0.2-2,0.5-2.9c0.3-0.9,0.8-1.6,1.5-2.3s1.4-1.2,2.3-1.6c0.9-0.4,1.9-0.7,3-0.8v-3.9h3v4
										c1.1,0.1,2,0.4,2.9,0.9c0.9,0.5,1.6,1,2.2,1.8c0.6,0.7,1.1,1.6,1.4,2.6c0.3,1,0.5,2.1,0.5,3.3h-5.3c0-1.5-0.3-2.6-0.9-3.3
										c-0.6-0.7-1.4-1.1-2.4-1.1c-0.6,0-1,0.1-1.4,0.2s-0.7,0.4-1,0.7c-0.3,0.3-0.4,0.6-0.6,1c-0.1,0.4-0.2,0.8-0.2,1.3
										s0.1,0.9,0.2,1.2c0.1,0.4,0.3,0.7,0.6,1c0.3,0.3,0.7,0.6,1.2,0.9c0.5,0.3,1.1,0.6,1.9,0.9c1.2,0.5,2.3,1,3.3,1.5
										c1,0.5,1.8,1.1,2.5,1.7s1.2,1.4,1.6,2.3s0.6,1.9,0.6,3.1c0,1.1-0.2,2.1-0.5,2.9c-0.4,0.9-0.8,1.6-1.5,2.2
										c-0.6,0.6-1.4,1.1-2.3,1.5s-1.9,0.6-3,0.7v3.7h-2.9v-3.7c-1-0.1-2-0.4-3-0.7c-1-0.4-1.8-0.9-2.5-1.6
										c-0.7-0.7-1.3-1.6-1.8-2.6c-0.4-1.1-0.7-2.3-0.7-3.8h5.3c0,0.9,0.1,1.6,0.3,2.2c0.2,0.6,0.5,1.1,0.9,1.4
										c0.4,0.4,0.8,0.6,1.3,0.7c0.5,0.1,1,0.2,1.5,0.2c0.6,0,1.1-0.1,1.5-0.2c0.4-0.2,0.8-0.4,1.1-0.7c0.3-0.3,0.5-0.6,0.7-1
										C311.1,117.7,311.2,117.3,311.2,116.8z"/>
								</g>
							</g>
						</g>
					</g>
				</g>
				<g>
					<g class="st0">
						<path class="st1" d="M233.2,246.8h-4.9h-4.9h-4.9h-4.9h-4.9h-4.9h-4.9h-4.9H189h-4.9h-4.9h-4.9h-4.9h-4.9h-4.9h-4.9v-9.3v-9.3
							v-9.3v-9.3v-9.3V191v-9.3v-9.3v-9.3v-9.3v-9.3v-9.3v-9.3v-9.3v-9.3v-7.5c0-0.6,0.8-0.9,1.1-0.4l3.8,4.6l4.1-5
							c0.4-0.5,1.2-0.5,1.6,0l4.1,5l4.1-5c0.4-0.5,1.2-0.5,1.6,0l4.1,5l4.1-5c0.4-0.5,1.2-0.5,1.6,0l4.1,5l4.1-5
							c0.4-0.5,1.2-0.5,1.6,0l4.1,5l4.1-5c0.4-0.5,1.2-0.5,1.6,0l4.1,5l4.1-5c0.4-0.5,1.2-0.5,1.6,0l4.1,5l4.1-5
							c0.4-0.5,1.2-0.5,1.6,0l4.1,5l3.8-4.6c0.4-0.5,1.1-0.2,1.1,0.4v7.5v9.3v9.3v9.3v9.3v9.3v9.3v9.3v9.3v9.3v9.3v9.3v9.3v9.3v9.3
							V246.8z"/>
						<rect x="154.7" y="236.3" class="st1" width="78.6" height="10.4"/>
						<path class="st1" d="M165.4,139.7c0.5,0.3,1.2,0.5,1.9,0.5c1.1,0,1.7-0.6,1.7-1.4c0-0.8-0.4-1.2-1.5-1.6
							c-1.3-0.5-2.1-1.2-2.1-2.3c0-1.3,1-2.2,2.6-2.2c0.8,0,1.4,0.2,1.8,0.4l-0.3,0.9c-0.3-0.1-0.8-0.4-1.5-0.4
							c-1.1,0-1.5,0.7-1.5,1.2c0,0.8,0.5,1.1,1.6,1.6c1.4,0.5,2.1,1.2,2.1,2.4c0,1.2-0.9,2.3-2.8,2.3c-0.8,0-1.6-0.2-2.1-0.5
							L165.4,139.7z"/>
						<path class="st1" d="M173,133.7h-2.5v-0.9h6v0.9H174v7.2H173V133.7z"/>
						<path class="st1" d="M177.8,138.4l-0.8,2.5h-1.1l2.7-8.1h1.3l2.8,8.1h-1.1l-0.9-2.5H177.8z M180.5,137.6l-0.8-2.3
							c-0.2-0.5-0.3-1-0.4-1.5h0c-0.1,0.5-0.3,1-0.4,1.5l-0.8,2.3H180.5z"/>
						<path class="st1" d="M184.5,133.7H182v-0.9h6v0.9h-2.5v7.2h-1.1V133.7z"/>
						<path class="st1" d="M193.1,137.1h-3.1v2.9h3.5v0.9h-4.5v-8.1h4.4v0.9h-3.3v2.6h3.1V137.1z"/>
						<path class="st1" d="M201.6,137.4c-0.1-1.1-0.1-2.5-0.1-3.5h0c-0.3,0.9-0.6,2-1,3.1l-1.4,3.9h-0.8l-1.3-3.9
							c-0.4-1.1-0.7-2.2-0.9-3.1h0c0,1-0.1,2.4-0.2,3.6l-0.2,3.5h-1l0.6-8.1h1.3l1.4,3.9c0.3,1,0.6,1.9,0.8,2.7h0
							c0.2-0.8,0.5-1.7,0.9-2.7l1.4-3.9h1.3l0.5,8.1h-1L201.6,137.4z"/>
						<path class="st1" d="M208.6,137.1h-3.1v2.9h3.5v0.9h-4.5v-8.1h4.4v0.9h-3.3v2.6h3.1V137.1z"/>
						<path class="st1" d="M210.3,140.9v-8.1h1.1l2.6,4.1c0.6,0.9,1.1,1.8,1.5,2.6l0,0c-0.1-1.1-0.1-2.1-0.1-3.3v-3.4h1v8.1h-1.1
							l-2.6-4.1c-0.6-0.9-1.1-1.8-1.5-2.7l0,0c0.1,1,0.1,2,0.1,3.3v3.5H210.3z"/>
						<path class="st1" d="M219.8,133.7h-2.5v-0.9h6v0.9h-2.5v7.2h-1.1V133.7z"/>
						<line class="st14" x1="165.5" y1="158.5" x2="222.4" y2="158.5"/>
						<line class="st14" x1="165.5" y1="167.5" x2="222.4" y2="167.5"/>
						<line class="st14" x1="165.5" y1="176.6" x2="222.4" y2="176.6"/>
						<line class="st14" x1="165.5" y1="185.7" x2="222.4" y2="185.7"/>
						<line class="st14" x1="165.5" y1="194.7" x2="222.4" y2="194.7"/>
						<line class="st14" x1="165.5" y1="203.8" x2="222.4" y2="203.8"/>
						<line class="st14" x1="165.5" y1="212.8" x2="188.5" y2="212.8"/>
					</g>
					<g>
						<g>
							<path class="st3" d="M230.2,243.8h-4.9h-4.9h-4.9h-4.9h-4.9h-4.9h-4.9h-4.9H186h-4.9h-4.9h-4.9h-4.9h-4.9h-4.9h-4.9v-9.3
								v-9.3v-9.3v-9.3v-9.3V188v-9.3v-9.3v-9.3v-9.3v-9.3v-9.3v-9.3v-9.3v-9.3v-7.5c0-0.6,0.8-0.9,1.1-0.4l3.8,4.6l4.1-5
								c0.4-0.5,1.2-0.5,1.6,0l4.1,5l4.1-5c0.4-0.5,1.2-0.5,1.6,0l4.1,5l4.1-5c0.4-0.5,1.2-0.5,1.6,0l4.1,5l4.1-5
								c0.4-0.5,1.2-0.5,1.6,0l4.1,5l4.1-5c0.4-0.5,1.2-0.5,1.6,0l4.1,5l4.1-5c0.4-0.5,1.2-0.5,1.6,0l4.1,5l4.1-5
								c0.4-0.5,1.2-0.5,1.6,0l4.1,5l3.8-4.6c0.4-0.5,1.1-0.2,1.1,0.4v7.5v9.3v9.3v9.3v9.3v9.3v9.3v9.3v9.3v9.3v9.3v9.3v9.3v9.3v9.3
								V243.8z"/>
							<rect x="151.7" y="233.3" class="st8" width="78.6" height="10.4"/>
							<g>
								<path class="st8" d="M162.4,136.7c0.5,0.3,1.2,0.5,1.9,0.5c1.1,0,1.7-0.6,1.7-1.4c0-0.8-0.4-1.2-1.5-1.6
									c-1.3-0.5-2.1-1.2-2.1-2.3c0-1.3,1-2.2,2.6-2.2c0.8,0,1.4,0.2,1.8,0.4l-0.3,0.9c-0.3-0.1-0.8-0.4-1.5-0.4
									c-1.1,0-1.5,0.7-1.5,1.2c0,0.8,0.5,1.1,1.6,1.6c1.4,0.5,2.1,1.2,2.1,2.4c0,1.2-0.9,2.3-2.8,2.3c-0.8,0-1.6-0.2-2.1-0.5
									L162.4,136.7z"/>
								<path class="st8" d="M170,130.7h-2.5v-0.9h6v0.9H171v7.2H170V130.7z"/>
								<path class="st8" d="M174.8,135.4l-0.8,2.5h-1.1l2.7-8.1h1.3l2.8,8.1h-1.1l-0.9-2.5H174.8z M177.5,134.6l-0.8-2.3
									c-0.2-0.5-0.3-1-0.4-1.5h0c-0.1,0.5-0.3,1-0.4,1.5l-0.8,2.3H177.5z"/>
								<path class="st8" d="M181.5,130.7H179v-0.9h6v0.9h-2.5v7.2h-1.1V130.7z"/>
								<path class="st8" d="M190.1,134.1h-3.1v2.9h3.5v0.9h-4.5v-8.1h4.4v0.9h-3.3v2.6h3.1V134.1z"/>
								<path class="st8" d="M198.6,134.4c-0.1-1.1-0.1-2.5-0.1-3.5h0c-0.3,0.9-0.6,2-1,3.1l-1.4,3.9h-0.8l-1.3-3.9
									c-0.4-1.1-0.7-2.2-0.9-3.1h0c0,1-0.1,2.4-0.2,3.6l-0.2,3.5h-1l0.6-8.1h1.3l1.4,3.9c0.3,1,0.6,1.9,0.8,2.7h0
									c0.2-0.8,0.5-1.7,0.9-2.7l1.4-3.9h1.3l0.5,8.1h-1L198.6,134.4z"/>
								<path class="st8" d="M205.6,134.1h-3.1v2.9h3.5v0.9h-4.5v-8.1h4.4v0.9h-3.3v2.6h3.1V134.1z"/>
								<path class="st8" d="M207.3,137.9v-8.1h1.1l2.6,4.1c0.6,0.9,1.1,1.8,1.5,2.6l0,0c-0.1-1.1-0.1-2.1-0.1-3.3v-3.4h1v8.1h-1.1
									l-2.6-4.1c-0.6-0.9-1.1-1.8-1.5-2.7l0,0c0.1,1,0.1,2,0.1,3.3v3.5H207.3z"/>
								<path class="st8" d="M216.8,130.7h-2.5v-0.9h6v0.9h-2.5v7.2h-1.1V130.7z"/>
							</g>
							<line class="st15" x1="162.5" y1="155.5" x2="219.4" y2="155.5"/>
							<line class="st15" x1="162.5" y1="164.5" x2="219.4" y2="164.5"/>
							<line class="st15" x1="162.5" y1="173.6" x2="219.4" y2="173.6"/>
							<line class="st15" x1="162.5" y1="182.7" x2="219.4" y2="182.7"/>
							<line class="st15" x1="162.5" y1="191.7" x2="219.4" y2="191.7"/>
							<line class="st15" x1="162.5" y1="200.8" x2="219.4" y2="200.8"/>
							<line class="st15" x1="162.5" y1="209.8" x2="185.5" y2="209.8"/>
						</g>
					</g>
				</g>
				<g>
					<circle class="st16" cx="167.7" cy="231.8" r="36.5"/>
					<path class="st2" d="M200.9,198.6c-18.3-18.3-48.1-18.3-66.4,0s-18.3,48.1,0,66.4c18.3,18.3,48.1,18.3,66.4,0
						C219.3,246.7,219.3,217,200.9,198.6z M141.9,257.6c-14.2-14.2-14.2-37.3,0-51.6c14.2-14.2,37.3-14.2,51.6,0
						c14.2,14.2,14.2,37.3,0,51.6C179.2,271.9,156.2,271.9,141.9,257.6z"/>
					<path class="st17" d="M196.2,203.4c-15.7-15.7-41.2-15.7-57,0s-15.7,41.2,0,57s41.2,15.7,57,0S211.9,219.1,196.2,203.4z
						 M141.9,257.6c-14.2-14.2-14.2-37.3,0-51.6c14.2-14.2,37.3-14.2,51.6,0c14.2,14.2,14.2,37.3,0,51.6
						C179.2,271.9,156.2,271.9,141.9,257.6z"/>
					
						<rect x="128.9" y="258.4" transform="matrix(0.7071 0.7071 -0.7071 0.7071 227.4862 -15.8489)" class="st2" width="8" height="16.5"/>
					<path class="st11" d="M83.2,316.3L83.2,316.3c-2.9-2.9-2.9-7.6,0-10.5l40.1-40.1l10.5,10.5l-40.1,40.1
						C90.8,319.2,86.1,319.2,83.2,316.3z"/>
				</g>
			</g>
		</g>
	</g>
</g>
<g id="DESIGNED_BY_FREEPIK">
</g>
</svg>
