<svg xmlns="http://www.w3.org/2000/svg" xmlns:xlink="http://www.w3.org/1999/xlink" viewBox="0 0 323.94 406.1">
  <defs>
    <style>
      .cls-1 {
        isolation: isolate;
      }

      .cls-2 {
        opacity: 0.6;
      }

      .cls-2, .cls-29, .cls-30, .cls-32, .cls-33 {
        mix-blend-mode: multiply;
      }

      .cls-3 {
        fill: #7fb59f;
      }

      .cls-4 {
        fill: #e0bfa2;
      }

      .cls-5 {
        fill: url(#linear-gradient);
      }

      .cls-6 {
        fill: #fe533c;
      }

      .cls-7 {
        fill: url(#linear-gradient-2);
      }

      .cls-10, .cls-11, .cls-12, .cls-13, .cls-14, .cls-15, .cls-16, .cls-17, .cls-18, .cls-19, .cls-20, .cls-21, .cls-22, .cls-23, .cls-24, .cls-25, .cls-8, .cls-9 {
        fill: #4c4c4c;
      }

      .cls-8 {
        opacity: 0.3;
      }

      .cls-9 {
        opacity: 0.28;
      }

      .cls-10 {
        opacity: 0.26;
      }

      .cls-11 {
        opacity: 0.25;
      }

      .cls-12 {
        opacity: 0.23;
      }

      .cls-13 {
        opacity: 0.21;
      }

      .cls-14 {
        opacity: 0.19;
      }

      .cls-15 {
        opacity: 0.18;
      }

      .cls-16 {
        opacity: 0.16;
      }

      .cls-17 {
        opacity: 0.14;
      }

      .cls-18 {
        opacity: 0.12;
      }

      .cls-19 {
        opacity: 0.11;
      }

      .cls-20 {
        opacity: 0.09;
      }

      .cls-21 {
        opacity: 0.07;
      }

      .cls-22 {
        opacity: 0.05;
      }

      .cls-23 {
        opacity: 0.04;
      }

      .cls-24 {
        opacity: 0.02;
      }

      .cls-25 {
        opacity: 0;
      }

      .cls-26 {
        fill: #60605b;
      }

      .cls-27 {
        fill: #705e65;
      }

      .Graphic-Style-16 {
        fill: url(#linear-gradient-3);
      }

      .cls-28 {
        fill: #fff;
      }

      .cls-29, .cls-30, .cls-32, .cls-33 {
        opacity: 0.2;
      }

      .cls-29 {
        fill: url(#linear-gradient-5);
      }

      .cls-30 {
        fill: url(#linear-gradient-6);
      }

      .cls-31 {
        fill: #ffe6c7;
        opacity: 0.4;
        mix-blend-mode: overlay;
      }

      .cls-32 {
        fill: url(#linear-gradient-7);
      }

      .cls-33 {
        fill: url(#linear-gradient-8);
      }

      .cls-34 {
        fill: #9dff23;
      }

      .cls-35 {
        fill: #ff6348;
      }

      .cls-36 {
        fill: #5d5d5d;
      }

      .cls-37 {
        fill: none;
        stroke: #5d5d5d;
        stroke-miterlimit: 10;
        stroke-width: 5px;
      }
    </style>
    <linearGradient id="linear-gradient" x1="141.86" y1="184.3" x2="141.86" y2="383.89" gradientUnits="userSpaceOnUse">
      <stop offset="0.11" stop-color="#fff"/>
      <stop offset="0.63" stop-color="#faf7f5"/>
      <stop offset="1" stop-color="#f5f0eb"/>
    </linearGradient>
    <linearGradient id="linear-gradient-2" x1="141.52" y1="-44.72" x2="141.52" y2="225.51" xlink:href="#linear-gradient"/>
    <linearGradient id="linear-gradient-3" x1="4.43" y1="225.33" x2="4.43" y2="135.48" gradientUnits="userSpaceOnUse">
      <stop offset="0.02" stop-color="#60605b"/>
      <stop offset="0.04" stop-color="#6a6a65"/>
      <stop offset="0.13" stop-color="#979794"/>
      <stop offset="0.22" stop-color="#bdbdba"/>
      <stop offset="0.32" stop-color="#dadad8"/>
      <stop offset="0.41" stop-color="#eee"/>
      <stop offset="0.5" stop-color="#fbfbfb"/>
      <stop offset="0.58" stop-color="#fff"/>
      <stop offset="0.7" stop-color="#edeeef"/>
      <stop offset="0.88" stop-color="#d9dadb"/>
      <stop offset="1" stop-color="#d1d3d4"/>
    </linearGradient>
    <linearGradient id="linear-gradient-5" x1="4.37" y1="172.65" x2="4.37" y2="197.99" gradientUnits="userSpaceOnUse">
      <stop offset="0.02" stop-color="#60605b"/>
      <stop offset="0.04" stop-color="#6a6a65"/>
      <stop offset="0.12" stop-color="#979794"/>
      <stop offset="0.2" stop-color="#bdbdba"/>
      <stop offset="0.28" stop-color="#dadad8"/>
      <stop offset="0.36" stop-color="#eee"/>
      <stop offset="0.44" stop-color="#fbfbfb"/>
      <stop offset="0.51" stop-color="#fff"/>
    </linearGradient>
    <linearGradient id="linear-gradient-6" x1="4.37" y1="162.3" x2="4.37" y2="168.74" gradientUnits="userSpaceOnUse">
      <stop offset="0.33" stop-color="#fff"/>
      <stop offset="0.4" stop-color="#fbfbfb"/>
      <stop offset="0.49" stop-color="#eee"/>
      <stop offset="0.57" stop-color="#dadad8"/>
      <stop offset="0.66" stop-color="#bdbdba"/>
      <stop offset="0.75" stop-color="#979794"/>
      <stop offset="0.83" stop-color="#6a6a65"/>
      <stop offset="0.85" stop-color="#60605b"/>
    </linearGradient>
    <linearGradient id="linear-gradient-7" x1="278.06" y1="172.65" x2="278.06" y2="197.99" xlink:href="#linear-gradient-5"/>
    <linearGradient id="linear-gradient-8" x1="278.06" y1="162.3" x2="278.06" y2="168.74" xlink:href="#linear-gradient-6"/>
  </defs>
  <title>ico-logo_2</title>
  <g class="cls-1">
    <g id="Layer_2" data-name="Layer 2">
      <g id="Layer_1-2" data-name="Layer 1">
        <g>
          <g class="cls-2">
            <path class="cls-3" d="M292.35,53a8.49,8.49,0,0,0-8.46-8.46H29.82A8.49,8.49,0,0,0,21.35,53V210.63l.19.91v186.1A8.49,8.49,0,0,0,30,406.1H292.51a8.49,8.49,0,0,0,8.47-8.46L292.5,233.56l-.07-45.21Z"/>
          </g>
          <g>
            <path class="cls-4" d="M19,201.42V372.7a8.49,8.49,0,0,0,8.46,8.47H253a8.48,8.48,0,0,0,8.46-8.47V201.42"/>
            <path class="cls-4" d="M10.87,195.25V366.53A8.49,8.49,0,0,0,19.34,375H264.08a8.49,8.49,0,0,0,8.46-8.47V195.25"/>
            <path class="cls-4" d="M5,192.29V363.57A8.49,8.49,0,0,0,13.41,372H270a8.49,8.49,0,0,0,8.47-8.47V192.29"/>
            <path class="cls-5" d="M2.88,189.32V360.61a8.48,8.48,0,0,0,8.46,8.46h261a8.49,8.49,0,0,0,8.47-8.46V189.32"/>
            <path class="cls-6" d="M262.68,193.1V342.42a8.76,8.76,0,0,1-8.65,8.64H29.38a8.75,8.75,0,0,1-8.64-8.64V193.1Z"/>
            <path class="cls-7" d="M280.5,188.42V44.14A8.49,8.49,0,0,0,272,35.68H11a8.49,8.49,0,0,0-8.47,8.46V188.42"/>
            <path class="cls-6" d="M20.65,186.9V62.74A8.17,8.17,0,0,1,28.8,54.6H254.32a8.17,8.17,0,0,1,8.15,8.14V186.9Z"/>
            <g>
              <rect class="cls-8" x="2.67" y="190.06" width="277.88" height="1.77"/>
              <rect class="cls-9" x="2.67" y="190.27" width="277.88" height="2.03"/>
              <rect class="cls-10" x="2.67" y="190.49" width="277.88" height="2.29"/>
              <rect class="cls-11" x="2.67" y="190.71" width="277.88" height="2.55"/>
              <rect class="cls-12" x="2.67" y="190.92" width="277.88" height="2.81"/>
              <rect class="cls-13" x="2.67" y="191.14" width="277.88" height="3.07"/>
              <rect class="cls-14" x="2.67" y="191.35" width="277.88" height="3.33"/>
              <rect class="cls-15" x="2.67" y="191.57" width="277.88" height="3.59"/>
              <rect class="cls-16" x="2.67" y="191.79" width="277.88" height="3.85"/>
              <rect class="cls-17" x="2.67" y="192" width="277.88" height="4.12"/>
              <rect class="cls-18" x="2.67" y="192.22" width="277.88" height="4.38"/>
              <rect class="cls-19" x="2.67" y="192.43" width="277.88" height="4.64"/>
              <rect class="cls-20" x="2.67" y="192.65" width="277.88" height="4.9"/>
              <rect class="cls-21" x="2.67" y="192.86" width="277.88" height="5.16"/>
              <rect class="cls-22" x="2.67" y="193.08" width="277.88" height="5.42"/>
              <rect class="cls-23" x="2.67" y="193.3" width="277.88" height="5.68"/>
              <rect class="cls-24" x="2.67" y="193.51" width="277.88" height="5.94"/>
              <rect class="cls-25" x="2.67" y="193.73" width="277.88" height="6.2"/>
            </g>
            <rect class="cls-26" x="0.97" y="186.95" width="280.93" height="2.84"/>
          </g>
          <rect class="cls-27" x="2.35" y="157.36" width="9.74" height="60.38"/>
          <rect class="Graphic-Style-16" y="162.57" width="8.86" height="50.2"/>
          <rect class="cls-27" x="270.46" y="157.36" width="10.38" height="60.38"/>
          <path class="cls-28" d="M165.6,127V113.45h27.73v49.39H165.6q-1.51-11.91-7.63-17.92t-15.65-6a17.83,17.83,0,0,0-11.48,3.79,11.69,11.69,0,0,0-4.77,9.53,14,14,0,0,0,5.25,10.94q5.27,4.54,15.44,9a250.92,250.92,0,0,1,24.15,11.48,77.18,77.18,0,0,1,17.33,12.78,43.76,43.76,0,0,1,9.86,14.73,51,51,0,0,1,3.25,19q0,22-12.78,35.14t-35.42,13.38v29.79H135.39V275a36.16,36.16,0,0,1-14.63-12.24v14H93V221.23h27.72q.87,14.4,7.42,21.93t17.71,7.53a17.27,17.27,0,0,0,12.62-5.09,16.74,16.74,0,0,0,5.15-12.35q0-7.37-5.91-13.49t-20.09-12.29q-24.15-10.62-35-22.85a41.12,41.12,0,0,1-10.88-28.17,46.09,46.09,0,0,1,5.63-22.52,42.14,42.14,0,0,1,15.76-16.31,42.87,42.87,0,0,1,22.26-6V83.45h17.76v32.39A36.69,36.69,0,0,1,165.6,127Z"/>
          <rect class="Graphic-Style-16" x="273.69" y="162.57" width="8.86" height="50.2"/>
          <rect class="cls-27" x="12.1" y="186.69" width="258.84" height="6.41"/>
          <rect class="cls-29" y="173.7" width="8.74" height="16.12"/>
          <rect class="cls-30" y="162.57" width="8.74" height="4.1"/>
          <rect class="cls-31" y="205.31" width="8.74" height="4.09"/>
          <rect class="cls-31" x="273.82" y="205.31" width="8.74" height="4.09"/>
          <rect class="cls-32" x="273.69" y="173.7" width="8.74" height="16.12"/>
          <rect class="cls-33" x="273.69" y="162.57" width="8.74" height="4.1"/>
          <path class="cls-34" d="M225.77,379a61.71,61.71,0,1,1,61.71-61.71A61.77,61.77,0,0,1,225.77,379Z"/>
          <polygon class="cls-35" points="317.8 246.53 222.91 328.22 200.94 307.33 193.18 307.33 217.16 361.15 323.94 254.91 317.8 246.53"/>
          <circle class="cls-36" cx="54.43" cy="68.93" r="17.62"/>
          <circle class="cls-36" cx="232.02" cy="68.93" r="17.62"/>
          <path class="cls-37" d="M67.31,55.37A12.88,12.88,0,0,1,54.43,68.25h0A12.88,12.88,0,0,1,41.55,55.37v-40A12.88,12.88,0,0,1,54.43,2.5h0A12.88,12.88,0,0,1,67.31,15.38Z"/>
          <path class="cls-37" d="M244.9,55.37A12.88,12.88,0,0,1,232,68.25h0a12.88,12.88,0,0,1-12.88-12.88v-40A12.88,12.88,0,0,1,232,2.5h0A12.88,12.88,0,0,1,244.9,15.38Z"/>
          <path class="cls-28" d="M67.31,55.37A12.88,12.88,0,0,1,54.43,68.25h0A12.88,12.88,0,0,1,41.55,55.37v-40A12.88,12.88,0,0,1,54.43,2.5h0A12.88,12.88,0,0,1,67.31,15.38Z"/>
          <path class="cls-28" d="M244.9,55.37A12.88,12.88,0,0,1,232,68.25h0a12.88,12.88,0,0,1-12.88-12.88v-40A12.88,12.88,0,0,1,232,2.5h0A12.88,12.88,0,0,1,244.9,15.38Z"/>
        </g>
      </g>
    </g>
  </g>
</svg>
