<?xml version="1.0" encoding="utf-8"?>
<!-- Generator: Adobe Illustrator 18.0.0, SVG Export Plug-In . SVG Version: 6.00 Build 0)  -->
<!DOCTYPE svg PUBLIC "-//W3C//DTD SVG 1.1//EN" "https://www.w3.org/Graphics/SVG/1.1/DTD/svg11.dtd">
<svg version="1.1" id="Layer_1" xmlns="https://www.w3.org/2000/svg" xmlns:xlink="https://www.w3.org/1999/xlink" x="0px" y="0px"
	 viewBox="0 0 220 220" enable-background="new 0 0 220 220" xml:space="preserve">
<g>
	<path fill="#ED1C24" d="M104.8,189.5l50.4-107.1c2.3-4.8,1.3-10.5-2.3-14.4c-3.7-3.9-9.3-5-14.3-3L29.3,110.4
		c-3.8,1.6-6.3,5.4-6.2,9.5c0.1,4.1,2.8,7.8,6.7,9.1l23.4,8.1l-38.9,37.1c-4,3.8-4.1,10.1-0.3,14.1l12.1,12.7
		c3.8,4,10.1,4.1,14.1,0.3l38.9-37.1l7,23.8c1.2,4,4.7,6.8,8.8,7.1C99.2,195.6,103.1,193.3,104.8,189.5z"/>
	<path fill="#ED1C24" d="M86.8,68.6c2.1-12.1,7.9-23.6,17.5-32.8c23.7-22.6,61.2-21.7,83.8,1.9s21.7,61.2-1.9,83.8
		c-10.9,10.4-24.8,15.9-38.8,16.4l-5,10.6c18.3,0.7,36.8-5.7,51.1-19.3c27.9-26.7,29-71,2.3-98.9c-26.7-27.9-71-29-98.9-2.3
		c-13,12.4-20.2,28.6-21.4,45.2L86.8,68.6z"/>
	<path fill="#ED1C24" d="M132.7,52.7c1.3-0.5,2.6-1,3.9-1.3c10.1-3.1,21.5-0.6,29.3,7.6c7.8,8.2,9.8,19.7,6.2,29.6
		c-0.4,1.3-0.9,2.6-1.5,3.8l-9.2,19.6c3.3-1.6,6.5-3.8,9.3-6.5c14.8-14.1,15.3-37.6,1.2-52.4c-14.1-14.8-37.6-15.3-52.4-1.2
		c-2.8,2.7-5.1,5.8-6.9,9L132.7,52.7z"/>
</g>
</svg>
