<?xml version="1.0" encoding="utf-8"?>
<!-- Generator: Adobe Illustrator 22.0.1, SVG Export Plug-In . SVG Version: 6.00 Build 0)  -->
<svg version="1.1" id="Layer_1" xmlns="http://www.w3.org/2000/svg" xmlns:xlink="http://www.w3.org/1999/xlink" x="0px" y="0px"
	 viewBox="0 0 220 220" style="enable-background:new 0 0 220 220;" xml:space="preserve">
<style type="text/css">
	.st0{fill:#ED8C00;}
	.st1{font-family:'Norwester-Regular';}
	.st2{font-size:68.2213px;}
	.st3{fill:#414042;}
</style>
<path class="st0" d="M204.2,28.1c-22.7-30.4-65.8-36.6-96.2-14c-4.6,3.4-8.6,7.3-12,11.5c3.4,1,8,2.5,12.9,3.9
	c2-1.9,4.1-3.9,6.4-5.6c25-18.6,60.3-13.5,79,11.5s13.5,60.3-11.5,79c-21.3,15.9-50,14.6-69.6-1.6c-0.7,2.4-2.3,7.5-4.6,12
	c23.7,17.3,56.8,18,81.6-0.5C220.7,101.7,227,58.6,204.2,28.1z"/>
<text transform="matrix(1 0 0 1 124.9775 100.8521)" class="st0 st1 st2">$</text>
<g>
	<path class="st3" d="M112.1,169c-0.9,0.2-1.9-0.1-2.4-0.8c-0.9-1-0.7-2.6,0.3-3.5c0-0.1,2.1-1.8,4.1-4.1c2.4-2.9,3.7-5.5,3.8-7.4
		c0-1.1-0.4-2.1-1.4-2.9c-1.5-1.4-2.6-1.4-3.3-1.4c-3.3,0.2-7.6,5.3-12.6,11.2c-1.6,1.8-3.2,3.7-4.9,5.7c-0.9,1-2.5,1.1-3.5,0.2
		c-1-0.9-1.1-2.5-0.2-3.5c1.7-2,3.3-3.8,4.8-5.6c6-7,10.7-12.6,16.1-13c2.4-0.1,4.7,0.7,6.9,2.7c2,1.8,3.1,4.1,3,6.7
		c-0.1,3.2-1.7,6.7-5,10.6c-2.3,2.7-4.5,4.6-4.6,4.7C112.8,168.7,112.5,168.9,112.1,169z"/>
	<path class="st3" d="M106.7,152.4c-0.8,0.2-1.7-0.1-2.3-0.7c-0.9-1-0.9-2.5,0.1-3.5l0,0c1.1-1.1,4.1-4.6,4-7.8c0-1.5-0.7-2.8-2-3.9
		c-0.7-0.6-1.4-0.9-2.4-0.8c-4.8,0.3-12.2,9.1-17.1,15c-1.3,1.5-2.5,3-3.6,4.2c-0.9,1-2.5,1.1-3.5,0.2c-1-0.9-1.1-2.5-0.2-3.5
		c1-1.2,2.2-2.6,3.5-4.1c6-7.2,13.5-16.2,20.5-16.7c2.2-0.2,4.3,0.6,6,2.1c2.4,2.1,3.7,4.7,3.6,7.6c0.1,6.1-5.4,11.2-5.7,11.4
		C107.6,152.1,107.2,152.3,106.7,152.4z"/>
	<path class="st3" d="M64.9,221.6c-0.1,0-0.2,0.1-0.4,0.1c-0.7,0-1.3-0.2-1.8-0.6l-33.3-29.6c-0.5-0.4-0.8-1.1-0.8-1.7
		s0.2-1.3,0.7-1.8c13.9-15.2,15.7-21.8,16.8-30.2c0.3-2.4,0-5.9-0.3-9.5c-0.4-4.5-0.8-9.2-0.2-13.1c0.9-5.2,3.5-8.2,7.7-9.1
		c2.6-0.5,5,0,7.1,1.6c4.1,3.1,6,9.8,6.9,14.7L95.2,111c6.1-6.8,12.7-8.6,17.2-4.6c2.4,2.1,3.6,4.9,3.5,7.9
		c-0.1,2.6-1.2,5.2-3.2,7.4l-17.2,19.4l-3.7-3.3l17.2-19.4c1.2-1.3,1.9-2.9,1.9-4.3c0.1-1.5-0.6-2.8-1.9-4
		c-3.5-3.1-9.5,3.4-10.1,4.2l-31.4,35.2c-0.7,0.7-1.7,1-2.7,0.7c-0.9-0.3-1.6-1.2-1.7-2.2c0-0.1-0.2-3.4-1.1-7.3
		c-1.1-4.7-2.7-8-4.6-9.4c-0.9-0.7-1.9-0.9-3.1-0.7l-0.1,0c-4.6,1-4.4,7.6-3.6,16.9c0.3,3.9,0.6,7.6,0.3,10.6
		c-0.6,5-1.6,9.2-4.1,14.1c-2.5,4.9-6.3,10.3-12.3,16.9l29.5,26.3c1.1-1.1,2.5-2.7,4.3-4.3c4.8-4.4,9-7,12.5-7.7
		c7.7-1.5,16-3.8,25.1-13.7c2-2.1,4.1-4.3,6.2-6.4c5.7-5.7,12.1-12.2,11.9-15.8c0-0.5-0.2-1.1-1.2-2c-4.2-3.2-7.5-0.6-13.9,6.9
		c-0.7,0.9-1.4,1.7-2.1,2.4c-0.9,1-2.5,1.1-3.5,0.2c-1-0.9-1.1-2.5-0.2-3.5c0.6-0.7,1.3-1.5,2-2.3c2.5-3,5.3-6.3,8.6-8.2
		c4.1-2.5,8.3-2.3,12.2,0.6c1.9,1.5,3,3.4,3.1,5.5c0.4,5.9-6,12.2-13.3,19.5c-2,2.1-4.2,4.2-6.1,6.3c-10.1,10.9-19.6,13.6-27.8,15.1
		c-5.4,1.1-13.1,9.1-15.7,12.2C65.9,221.1,65.4,221.4,64.9,221.6z"/>
</g>
<path class="st0" d="M167.2,30.7c-19.4-9.4-42.4-3.1-54.3,14.1c4.9-0.9,12.4-4.7,16.3-5.3c10.3-8.4,21.9-7.6,34.5-1.5
	c17.5,8.5,24.8,29.5,16.3,47c-7.4,15.2-24.2,22.7-39.9,18.7c-2.3,1.4-3.1,2-3.1,2s0.8,1.7,0.1,5.8c19.7,5.3,40.9-3.9,50.2-23
	C197.7,67.1,188.9,41.2,167.2,30.7z"/>
</svg>
