<?xml version="1.0" encoding="utf-8"?>
<!-- Generator: Adobe Illustrator 22.0.1, SVG Export Plug-In . SVG Version: 6.00 Build 0)  -->
<svg version="1.1" id="Layer_1" xmlns="http://www.w3.org/2000/svg" xmlns:xlink="http://www.w3.org/1999/xlink" x="0px" y="0px"
	 viewBox="0 0 500 500" style="enable-background:new 0 0 500 500;" xml:space="preserve">
<style type="text/css">
	.st0{fill:#DEDEDE;}
	.st1{fill:url(#SVGID_1_);}
	.st2{fill:#EDA8B0;}
	.st3{fill:#E66B38;}
	.st4{opacity:0.7;fill:#FF814A;enable-background:new    ;}
	.st5{fill:#FFFFFF;}
	.st6{opacity:0.6;fill:#DEDEDE;enable-background:new    ;}
	.st7{fill:#F3723A;}
	.st8{fill:#F56C71;}
	.st9{fill:#FF814A;}
	.st10{opacity:0.5;fill:#DEDEDE;enable-background:new    ;}
</style>
<g id="OBJECTS">
	<g>
		<path class="st0" d="M352.3,124.9H152c-15.8,0-29,12.3-29,28.1v146.9c0,15.8,13.2,28.4,29,28.4h127.8l51.8,36.6v-36.6h20.6
			c15.8,0,28.7-12.6,28.7-28.4V153.1C381,137.3,368.1,124.9,352.3,124.9z"/>
		
			<linearGradient id="SVGID_1_" gradientUnits="userSpaceOnUse" x1="133.5844" y1="397.0152" x2="363.3974" y2="162.6008" gradientTransform="matrix(1 0 0 -1 0 502)">
			<stop  offset="0" style="stop-color:#99EEFF"/>
			<stop  offset="0.2983" style="stop-color:#90ECFF"/>
			<stop  offset="0.7814" style="stop-color:#78E8FF"/>
			<stop  offset="1" style="stop-color:#6BE6FF"/>
		</linearGradient>
		<path class="st1" d="M349,120.4H148.7c-15.8,0-28.7,13.1-28.7,28.9v146.9c0,15.8,12.9,28.4,28.7,28.4h127.8l52.1,36.6v-36.6H349
			c15.8,0,29-12.6,29-28.4V149.3C378,133.5,364.8,120.4,349,120.4z"/>
		<g>
			<rect x="179.3" y="206" class="st2" width="139.1" height="89.8"/>
			<path class="st0" d="M323,210.9L323,210.9l-63.1-57.3c0,0-8.8-9.1-18.2,0.3l-57.7,57l0,0l0.4,89.1l0,0l0,0l-0.4-0.1h139v0.1
				L323,210.9z"/>
			<rect x="179.3" y="205.7" class="st3" width="139.1" height="90.5"/>
			<path class="st3" d="M255.3,149c0,0-8.8-9.3-18.2,0.1l-57.7,56.6h139.1L255.3,149z"/>
			<path class="st4" d="M254.5,155.7c0,0-7.8-8.2-16.1,0l-50.8,50h122.5L254.5,155.7z"/>
			<rect x="191.6" y="168.5" class="st0" width="114.7" height="97.6"/>
			<rect x="189.3" y="165.5" class="st5" width="114.7" height="97.6"/>
			<rect x="198.6" y="181.3" class="st6" width="96.1" height="4.3"/>
			<rect x="198.6" y="194.2" class="st6" width="96.1" height="4.3"/>
			<rect x="198.6" y="207" class="st6" width="96.1" height="4.3"/>
			<rect x="198.6" y="219.8" class="st6" width="96.1" height="4.3"/>
			<rect x="198.6" y="232.7" class="st6" width="96.1" height="4.3"/>
			<path class="st7" d="M255.7,231.8c0,0-3.2,1.3-4,2.2c-1.9,2.1-4.9,11.4-4.9,11.4l6.4,6.1l65.3,44.3v-89.8L255.7,231.8z"/>
			<g>
				<path class="st8" d="M245.5,246.1L245.5,246.1L245.5,246.1z"/>
				<path class="st7" d="M240.4,234.8c-0.8-0.9-4.1-2.1-4.1-2.1l-57-26.6v89.8l59.8-43.6l6.4-6.2
					C245.4,245.8,242.1,236.7,240.4,234.8z"/>
			</g>
			<path class="st9" d="M272.3,240.1c-1.8-3.1-4.9-3.1-4.9-3.1l-21.1-0.1h-0.1l-21,0.1c0,0-2.9-0.1-4.5,3.7l-41.3,55.2l67.4-0.2
				l71.7,0.2L272.3,240.1z"/>
		</g>
		<g>
			<ellipse class="st0" cx="325.3" cy="135.1" rx="32.3" ry="32.3"/>
			<ellipse class="st7" cx="322.9" cy="131.6" rx="32.3" ry="32.3"/>
			<g>
				<path class="st5" d="M328.4,111.4v40.7c0,2.2-1.8,3.8-3.9,3.8c-2.2,0-3.8-1.6-3.8-3.8v-34l-2.8,1.6c-0.6,0.4-1.3,0.5-1.9,0.5
					c-1.3,0-2.5-0.7-3.2-1.9c-1.2-1.7-0.5-4.1,1.3-5.2l8.5-5c0.1-0.1,0.2-0.1,0.3-0.1c0.1,0,0.2-0.1,0.4-0.2c0.1,0,0.3-0.1,0.4-0.1
					c0.1-0.1,0.2-0.1,0.3-0.1c0.1-0.1,0.4-0.1,0.4-0.1c0.1,0,0.1,0,0.2,0h0.1c0.2,0,0.4,0,0.4,0c0.1,0.1,0.2,0.1,0.3,0.1
					c0.2,0,0.3,0.1,0.4,0.1c0.1,0,0.2,0,0.3,0.1c0.2,0.1,0.3,0.2,0.4,0.2c0.1,0.1,0.1,0.1,0.3,0.2c0.1,0.1,0.2,0.1,0.3,0.2
					c0.1,0.1,0.2,0.2,0.3,0.3c0.1,0.1,0.1,0.1,0.2,0.3c0.1,0.1,0.2,0.2,0.3,0.3l0.1,0.1c0,0.1,0.1,0.1,0.1,0.2
					c0.1,0.1,0.1,0.2,0.1,0.4c0.1,0.1,0.1,0.3,0.1,0.4c0,0.1,0.1,0.3,0.1,0.4c0,0.2,0,0.4,0.1,0.4
					C328.4,111.2,328.4,111.3,328.4,111.4z"/>
			</g>
		</g>
	</g>
	<ellipse class="st10" cx="245.6" cy="372.5" rx="61.8" ry="3.1"/>
</g>
<g id="DESIGNED_BY_FREEPIK">
</g>
</svg>
